<?xml version="1.0" encoding="utf-8"?>
<!-- Generator: Adobe Illustrator 22.1.0, SVG Export Plug-In . SVG Version: 6.00 Build 0)  -->
<svg version="1.1" id="Layer_1" xmlns="http://www.w3.org/2000/svg" xmlns:xlink="http://www.w3.org/1999/xlink" x="0px" y="0px"
	 viewBox="0 0 512 512" style="enable-background:new 0 0 512 512;" xml:space="preserve">
<style type="text/css">
	.st0{fill:#1F1F1F;}
</style>
<g>
	<path class="st0" d="M504.7,365c-1.5,7.9-2.6,15.9-4.6,23.7c-12.3,47.9-54.2,85.1-103.3,92c-66.9,9.4-128-32.1-142.2-98.4
		c-9.9-46,3.1-86.4,37.3-118.9c27.8-26.4,61.7-37.9,99.8-33.3c50,6.1,85,33.3,104.1,79.9c4.7,11.5,6.1,24.3,9,36.5
		C504.7,352.7,504.7,358.8,504.7,365z M486.5,355.9c0.3-59.6-48.1-108.2-108.1-108.6c-59.5-0.4-108.4,48.1-108.8,107.9
		C269.2,414.9,318,464,378,464.1C437.7,464.3,486.2,415.8,486.5,355.9z"/>
	<path class="st0" d="M174,235.4c15.7-14.4,31.2-28.4,46.6-42.5c16.4-15,32.7-29.9,49.1-44.9c7.6-6.9,12.4-6.5,18.3,1.8
		c13.7,19.2,27.5,38.4,41.2,57.7c1,1.4,2,3,2.7,4.6c1.9,4.1,0.7,7.7-2.7,10.4c-3.4,2.7-7.3,2.7-10.8,0.1c-1.6-1.2-2.9-3-4.1-4.7
		c-11.4-15.9-22.8-31.9-34.2-47.8c-0.9-1.3-1.9-2.6-3.1-4.1c-11.1,10.1-21.9,20-32.8,29.9c-20.2,18.4-40.4,36.9-60.6,55.4
		c-7.2,6.6-9.9,6.7-17.7,1c-19.3-14.2-38.6-28.3-59-43.3c-3.4,3.8-6.7,7.8-10.3,11.4C86,231,75.2,241.7,64.5,252.5
		c-1.3,1.3-2.7,3.1-2.7,4.8c-0.2,17.5-0.1,35-0.1,53.2c2.1,0,4,0,5.8,0c47.9,0,95.9,0,143.8,0c1.9,0,3.9-0.1,5.8,0.3
		c4.4,0.8,7.3,4.6,7.1,9.1c-0.2,4.3-3,7.6-7.4,8.3c-1.9,0.3-3.9,0.3-5.8,0.3c-51.3,0-102.7,0-154,0c-10.8,0-13.5-2.7-13.5-13.4
		c0-78.5,0-157.1,0-235.6c0-10.4,2.8-13.2,13.3-13.2c105.7,0,211.5,0,317.2,0c10.6,0,13.3,2.7,13.3,13.2c0,37.9,0,75.8,0,113.7
		c0,0.6,0,1.3,0,1.9c-0.1,7-3.7,11.5-9.2,11.4c-5.4-0.1-8.9-4.4-8.9-11.2c-0.1-23.6,0-47.3,0-70.9c0-13.1,0-26.2,0-39.7
		c-102.4,0-204.5,0-307,0c0,47.9,0,95.8,0,144.4c1.5-1.3,2.6-2.3,3.7-3.4c10.9-10.9,21.7-21.8,32.6-32.6c5.8-5.8,9.4-6.1,16.1-1.2
		c18.2,13.3,36.3,26.6,54.4,39.9C170.4,232.9,172,234,174,235.4z"/>
	<path class="st0" d="M25.8,346.6c2.3,0,4.2,0,6.1,0c59.7,0,119.5,0,179.2,0c8.7,0,12.9,2.9,12.9,9c0.1,6.3-4.2,9.3-13.2,9.3
		c-63.5,0-126.9,0-190.4,0c-10.5,0-13.3-2.8-13.3-13.2c0-102.8,0-205.6,0-308.4C7.3,32.8,10.1,30,20.6,30c129.8,0,259.7,0,389.5,0
		c10.3,0,13.1,2.8,13.1,12.8c0,50.4,0,100.7,0,151.1c0,1.1,0,2.3-0.1,3.4c-0.4,5.3-4.1,9.1-8.9,9.1c-4.6,0-8.3-3.5-8.8-8.6
		c-0.2-1.8-0.1-3.6-0.1-5.3c0-46,0-92,0-137.9c0-1.9,0-3.8,0-6c-126.7,0-252.9,0-379.5,0C25.8,147.7,25.8,246.8,25.8,346.6z"/>
	<path class="st0" d="M143.1,102.6c19.9,0.1,36.3,16.7,36,36.3c-0.3,19.9-16.8,36-36.6,35.8c-19.7-0.2-35.8-16.5-35.7-36.1
		C106.9,118.7,123.2,102.5,143.1,102.6z M160.9,138.9c0.1-10.1-7.9-18.3-17.9-18.3c-9.7,0-17.9,8.1-18.1,17.8
		c-0.2,9.9,8.1,18.3,18,18.3C152.7,156.7,160.8,148.7,160.9,138.9z"/>
	<path class="st0" d="M369.3,364.8c-21.6,0-42.3,0-63.3,0c0-6.1,0-11.8,0-18.1c20.8,0,41.6,0,62.9,0c0-21.3,0-42.1,0-63.1
		c6.2,0,11.8,0,17.9,0c0,20.7,0,41.5,0,62.8c21.3,0,42,0,63.2,0c0,6.2,0,12,0,18.3c-20.8,0-41.5,0-62.8,0c0,21.3,0,42.1,0,63.1
		c-6.1,0-11.7,0-17.9,0C369.3,407.1,369.3,386.3,369.3,364.8z"/>
</g>
</svg>
