<?xml version="1.0" encoding="utf-8"?>
<!-- Generator: Adobe Illustrator 22.1.0, SVG Export Plug-In . SVG Version: 6.00 Build 0)  -->
<svg version="1.1" id="Layer_1" xmlns="http://www.w3.org/2000/svg" xmlns:xlink="http://www.w3.org/1999/xlink" x="0px" y="0px"
	 viewBox="0 0 512 512" style="enable-background:new 0 0 512 512;" xml:space="preserve">
<style type="text/css">
	.st0{fill:#3663AE;}
	.st1{fill:#FFFFFF;}
</style>
<circle class="st0" cx="256" cy="256" r="250"/>
<g>
	<path class="st1" d="M139,254.2c1.9-5.1,5.7-6.6,10.9-6.5c31.5,0.1,63.1,0.1,94.6,0.1c0.9,0,1.8,0,3.1,0c0-1.1,0-2,0-3
		c0-31.7,0.1-63.4-0.1-95c0-5.2,1.6-8.8,6.6-10.7c1.2,0,2.4,0,3.7,0c4.8,1.9,6.5,5.4,6.5,10.5c-0.1,31.8-0.1,63.5-0.1,95.3
		c0,0.9,0,1.8,0,2.9c1.1,0,2,0,2.9,0c31.8,0,63.5,0.1,95.3-0.1c5.3,0,9,1.7,10.6,7c0,0.9,0,1.8,0,2.7c-1.7,5.3-5.4,7-10.8,7
		c-31.6-0.1-63.2-0.1-94.8-0.1c-0.9,0-1.8,0-3.1,0c0,1.1,0,2,0,2.9c0,31.7-0.1,63.5,0.1,95.2c0,5.1-1.6,8.7-6.5,10.5
		c-1.2,0-2.4,0-3.7,0c-5-1.9-6.6-5.5-6.6-10.7c0.1-31.6,0.1-63.2,0.1-94.8c0-1,0-2,0-3.3c-1.1,0-2,0-2.9,0
		c-31.7,0-63.5-0.1-95.2,0.1c-5.4,0-8.9-1.8-10.6-7C139,256.3,139,255.2,139,254.2z"/>
</g>
</svg>
