<?xml version="1.0" encoding="utf-8"?>
<!-- Generator: Adobe Illustrator 22.1.0, SVG Export Plug-In . SVG Version: 6.00 Build 0)  -->
<svg version="1.1" id="Layer_1" xmlns="http://www.w3.org/2000/svg" xmlns:xlink="http://www.w3.org/1999/xlink" x="0px" y="0px"
	 viewBox="0 0 512 512" style="enable-background:new 0 0 512 512;" xml:space="preserve">
<style type="text/css">
	.st0{fill:#4BC1EA;}
	.st1{fill:#3762AE;}
</style>
<g>
	<circle class="st0" cx="255.6" cy="265.3" r="22.5"/>
	<polygon class="st0" points="31,120.7 11.4,78.4 31,34.4 57.7,14.2 92.2,14.2 115.4,31.9 	"/>
	<path class="st0" d="M394,33.8c0,0,24.3-19.6,42.2-19.6s44.2,15.9,44.2,15.9l21.4,41l-13.1,38.6l-10.7,11L394,33.8z"/>
	<g>
		<path class="st1" d="M115.9,506.7c-8-4.9-8.6-10.1-1.9-16.8c7.8-7.9,15.7-15.7,23.9-23.8c-63-39.7-102.1-95.4-112.3-169.2
			C15.4,223.1,37.9,158.8,88,104c-0.3-0.5-0.5-1-0.8-1.3C83,98.3,78.8,94,74.3,89.4c-1.6,1.5-2.9,2.7-4.1,3.9
			c-9.9,9.9-19.8,19.9-29.8,29.8c-5.7,5.7-10.4,5.5-15.8-0.3C4.9,101.2,0.5,70.8,13.2,44.3c12-25.1,39.2-40.9,67.5-38.9
			c16.5,1.2,31,7.4,43.1,18.8c5.5,5.2,5.7,9.6,0.3,15.1C112.8,50.7,101.4,62,90.1,73.2c-1.3,1.2-3,2-4.2,2.9
			c5.7,5.7,10.4,10.4,15.3,15.3c44.3-38.2,95.7-58.9,154.8-58.9c59.1,0,110.5,20.7,154.9,59c5-5,9.6-9.7,14.6-14.7
			c-11.3-11.3-22.8-22.7-34.2-34.1c-1.3-1.3-2.6-2.5-3.8-3.8c-4.8-5.2-4.7-9.6,0.3-14.4C419.1-5.9,472.3,0.8,495.3,38
			c16.7,27.1,13.7,60.9-7.5,84.4c-5.8,6.4-10.3,6.5-16.5,0.3c-9.8-9.8-19.6-19.6-29.4-29.4c-1.1-1.1-2.3-2.2-3.3-3.2
			c-4.6,4.8-9.1,9.4-14,14.5c49.5,53.9,72,118.2,62,191.9c-10,73.8-49.1,129.7-112.6,169.8c5.8,5.7,11.5,11.2,17.1,16.8
			c2.3,2.3,4.6,4.6,6.9,6.9c6.6,6.8,6.1,11.9-1.9,16.8c-1.6,0-3.3,0-4.9,0c-9.8-9.5-19.7-18.9-29.2-28.7c-2.9-3-5.1-3.2-8.7-1.5
			c-26.8,12.7-55.2,19.6-84.8,21.2c-38.6,2-75.6-5-110.6-21.5c-3.3-1.6-5.1-0.8-7.4,1.5c-9.8,9.8-19.7,19.4-29.6,29
			C119.2,506.7,117.6,506.7,115.9,506.7z M256.1,49.6C137.6,49.5,40.9,145.9,40.4,264.7c-0.4,118.9,96.3,216,215.5,216.2
			c118.6,0.2,215.6-96.7,215.6-215.6C471.6,146.5,375,49.8,256.1,49.6z M479,105.2c15.1-20,11.9-50.9-6.5-68.1
			c-21.1-19.7-52.1-17.2-66.2-4.7C430.4,56.6,454.6,80.8,479,105.2z M32.7,105C57.1,80.6,81.4,56.3,105.6,32
			c-18.8-14.5-48.2-12.2-66.7,5.6C20.8,55.2,18.1,84.6,32.7,105z"/>
		<path class="st1" d="M454.3,265.4C454,374.9,364.7,464,255.6,463.6C146.5,463.2,57.5,374,57.7,265.2
			c0.2-109.4,89.5-198.5,198.6-198.2C365.5,67.2,454.6,156.6,454.3,265.4z M157.9,113.4c-21.9,14.3-39.7,32.1-53.9,53.9
			c5.4,4,14.8,6.5,9.9,15.6c-5.3,9.9-12.5,2.3-18.8-0.3c-11.7,23.5-18.6,47.8-19.5,74c7.1,0.5,15.9-1.4,16.2,8.3
			c0.4,10.9-9.2,8.5-16.3,9.3c1.2,26.3,7.8,50.7,19.7,73.9c6.3-2.9,12.9-9.5,18.3-1.1c6,9.4-3.8,12.2-9.4,16.3
			c14.4,21.9,32.1,39.9,54,53.9c7.5-10.8,10.9-13.2,15.7-10c9,6,2.6,12.4-0.4,18.9c23.3,12,47.7,18.4,74,19.7c0-2.8-0.1-5,0-7.3
			c0.4-5.8,3.8-9.3,8.7-9.3c4.9,0,8.3,3.6,8.6,9.4c0.1,2.4,0,4.7,0,7.2c26.5-1.5,50.9-7.8,74-19.8c-2.8-6.3-9.4-12.9-1-18.3
			c9.4-6,12.1,3.9,16.2,9.2c18-9.9,43.7-35.6,53.9-53.9c-5.4-4-15-6.6-9.4-15.9c5.3-8.8,12.2-2.2,18.1,0.6
			c10.5-15.6,21.7-58.2,19.4-74.1c-2.5,0-5,0.2-7.6,0c-4.9-0.4-8.4-4.1-8.3-8.6c0.1-4.3,3.4-7.8,8.1-8.3c2.7-0.2,5.4-0.3,8-0.4
			c1.3-18.9-10.4-62-19.9-73.7c-1.8,1-3.6,2.1-5.5,3.1c-5.4,2.9-10.3,1.8-12.7-2.6c-2.5-4.6-0.9-9.1,4.3-12.4
			c1.9-1.2,3.8-2.2,5.7-3.3c-12.2-20.3-38.6-46.5-54.2-53.8c-3.9,5.1-6.4,14.6-15.5,9.5c-9.3-5.3-2.6-12.3,0.3-18.4
			c-15.7-10.4-59-21.8-73.9-19.5c0,2.2,0.1,4.5,0,6.7c-0.4,5.8-3.8,9.3-8.7,9.2c-4.9-0.1-8.2-3.6-8.5-9.4c-0.1-2.3,0-4.7,0-7.2
			c-26.6,1.5-51,7.8-73.8,19.7c5.5,12.5,5.6,15.9,0.6,18.9C169,126.3,165.9,124.5,157.9,113.4z"/>
		<path class="st1" d="M264.7,187.5c0,13.2,0.1,26.4-0.1,39.6c0,3.3,0.5,5.1,4.1,6.4c9,3.3,15.5,9.7,18.8,18.7
			c1.4,3.9,3.4,4.6,7.1,4.6c17.5-0.2,34.9-0.1,52.4-0.1c1.8,0,3.6,0,5.4,0.3c4,0.7,7,4.3,7,8.3c0,4-3,7.6-7,8.2
			c-1.8,0.3-3.6,0.3-5.4,0.3c-17.3,0-34.6,0.1-51.9-0.1c-4.1-0.1-6.2,0.9-7.8,5c-5.9,14.9-20.6,22.6-37.2,20.4
			c-14-1.9-26.5-14.8-28.2-29.3c-1.9-15.9,6.7-30.7,21.4-36.3c3.2-1.2,4.1-2.7,4-6c-0.1-26.4-0.1-52.9,0-79.3c0-2.3,0.1-4.6,0.8-6.7
			c1.2-3.6,4.1-5.5,7.8-5.4c3.8,0,6.6,1.9,7.8,5.5c0.6,2,0.8,4.2,0.8,6.2C264.7,161.1,264.7,174.3,264.7,187.5z M256.1,282.4
			c9.4-0.1,17.1-7.8,17.1-17.2c0-9.6-7.9-17.3-17.6-17.1c-9.4,0.2-17,8.1-16.8,17.4C238.9,274.9,246.7,282.5,256.1,282.4z"/>
	</g>
</g>
</svg>
