<?xml version="1.0" encoding="utf-8"?>
<!-- Generator: Adobe Illustrator 22.1.0, SVG Export Plug-In . SVG Version: 6.00 Build 0)  -->
<svg version="1.1" id="Layer_1" xmlns="http://www.w3.org/2000/svg" xmlns:xlink="http://www.w3.org/1999/xlink" x="0px" y="0px"
	 viewBox="0 0 512 512" style="enable-background:new 0 0 512 512;" xml:space="preserve">
<style type="text/css">
	.st0{fill:#ADADAD;}
</style>
<g>
	<path class="st0" d="M347.7,254.8c-1.8-1.2-3.9-2.1-5.4-3.6c-70.8-70.7-141.6-141.5-212.4-212.3c-4.1-4.1-7.5-8.3-7.6-14.5
		c-0.1-7.4,2.9-13,9.5-16.4c6.6-3.4,13-2.6,18.8,1.8c1.7,1.3,3.2,2.9,4.7,4.4c75.4,75.4,150.8,150.8,226.2,226.2
		c11.1,11.1,11.2,20,0,31.1c-75.5,75.5-151,151-226.5,226.6c-4.2,4.2-8.5,7.8-14.9,7.8c-7.2,0-12.6-3.1-15.9-9.4
		c-3.2-6.1-2.8-12.3,1-18c1.5-2.2,3.5-4.2,5.4-6.1c70.5-70.5,141-141.1,211.6-211.5c1.5-1.5,3.6-2.4,5.4-3.7
		C347.7,256.5,347.7,255.6,347.7,254.8z"/>
</g>
</svg>
