<?xml version="1.0" encoding="utf-8"?>
<!-- Generator: Adobe Illustrator 22.1.0, SVG Export Plug-In . SVG Version: 6.00 Build 0)  -->
<svg version="1.1" id="Layer_1" xmlns="http://www.w3.org/2000/svg" xmlns:xlink="http://www.w3.org/1999/xlink" x="0px" y="0px"
	 viewBox="0 0 512 512" style="enable-background:new 0 0 512 512;" xml:space="preserve">
<style type="text/css">
	.st0{fill:#ADADAD;}
</style>
<g>
	<path class="st0" d="M164.3,254.8c1.8-1.2,3.9-2.1,5.4-3.6c70.8-70.7,141.6-141.5,212.4-212.3c4.1-4.1,7.5-8.3,7.6-14.5
		c0.1-7.4-2.9-13-9.5-16.4c-6.6-3.4-13-2.6-18.8,1.8c-1.7,1.3-3.2,2.9-4.7,4.4c-75.4,75.4-150.8,150.8-226.2,226.2
		c-11.1,11.1-11.2,20,0,31.1c75.5,75.5,151,151,226.5,226.6c4.2,4.2,8.5,7.8,14.9,7.8c7.2,0,12.6-3.1,15.9-9.4
		c3.2-6.1,2.8-12.3-1-18c-1.5-2.2-3.5-4.2-5.4-6.1C310.8,402,240.3,331.5,169.7,261c-1.5-1.5-3.6-2.4-5.4-3.7
		C164.3,256.5,164.3,255.6,164.3,254.8z"/>
</g>
</svg>
