<?xml version="1.0" encoding="utf-8"?>
<!-- Generator: Adobe Illustrator 22.1.0, SVG Export Plug-In . SVG Version: 6.00 Build 0)  -->
<svg version="1.1" id="Layer_1" xmlns="http://www.w3.org/2000/svg" xmlns:xlink="http://www.w3.org/1999/xlink" x="0px" y="0px"
	 viewBox="0 0 512 512" style="enable-background:new 0 0 512 512;" xml:space="preserve">
<style type="text/css">
	.st0{fill-rule:evenodd;clip-rule:evenodd;fill:#1F1F1F;}
</style>
<g>
	<path class="st0" d="M506,252.1c-3.8-10.6-11.4-13.9-22.3-13.9c-136.5,0.2-273.1,0.1-409.6,0.1c-1.9,0-3.8,0-7.1,0
		c2-2.1,3.2-3.5,4.4-4.8c40.3-40.3,80.5-80.6,120.9-120.8c5.7-5.7,8.9-12,6.3-20.1c-3.8-11.9-17.9-16.2-27.7-8.5
		c-1.7,1.3-3.1,2.8-4.6,4.3C116,138.8,65.7,189,15.5,239.4c-3.7,3.7-6.4,8.4-9.5,12.7c0,2.6,0,5.2,0,7.8c3.1,4.2,5.8,9,9.5,12.7
		c50.5,50.7,101.2,101.3,151.8,152c5.3,5.3,11.1,8.6,18.7,6.6c12.3-3.2,17.5-17.1,10.2-27.5c-1.4-2-3.1-3.7-4.9-5.4
		c-40-39.9-79.9-79.8-119.9-119.7c-1.2-1.2-3-2-4.5-3c0.3-0.6,0.7-1.2,1-1.8c1.8,0,3.7,0,5.5,0c136.5,0,273.1-0.1,409.6,0.1
		c11.1,0,18.9-3.3,22.9-13.9C506,257.3,506,254.7,506,252.1z"/>
</g>
</svg>
