<?xml version="1.0" encoding="utf-8"?>
<!-- Generator: Adobe Illustrator 22.1.0, SVG Export Plug-In . SVG Version: 6.00 Build 0)  -->
<svg version="1.1" id="Layer_1" xmlns="http://www.w3.org/2000/svg" xmlns:xlink="http://www.w3.org/1999/xlink" x="0px" y="0px"
	 viewBox="0 0 512 512" style="enable-background:new 0 0 512 512;" xml:space="preserve">
<style type="text/css">
	.st0{fill:#4BC1EA;}
	.st1{fill:#3762AE;}
</style>
<g>
	<rect x="22.9" y="103.2" class="st0" width="466.1" height="48"/>
	<g>
		<path class="st1" d="M506,413.2c-3.1,4.5-7.5,5.3-12.7,5.3c-72.1-0.1-144.2-0.1-216.3-0.1c-10.3,0-12.3-2.1-13.3-12.4
			c-2.9-31.7-6.1-63.4-9.1-95.5c-4.7,0-9.1,0-13.9,0c-1.1,10.8-2.2,21.4-3.2,32c-2.1,21.9-4.1,43.7-6.2,65.6
			c-0.8,7.9-3.4,10.3-11.2,10.3c-67.7,0-135.4,0-203.1,0c-8.3,0-11.2-3-10.9-11.2c1.8-55.1,3.8-110.3,5.3-165.4
			c1.3-44.7,2-89.5,3-134.2c0-2,0-3.9,0.1-5.9c0.5-5,3.1-7.6,8.1-8.1c1.6-0.2,3.3-0.1,4.9-0.1c152.3,0,304.6,0,457,0
			c1.9,0,3.9,0,5.8,0.2c4,0.5,6.5,2.8,7.1,6.8c0.3,2.1,0.3,4.2,0.3,6.3c1.7,66.4,3.3,132.7,5.1,199.1c0.7,26.4,1.6,52.7,2.4,79
			c0.1,3.2,0.6,6.4,0.8,9.6C506,400.8,506,407,506,413.2z M280.2,401.4c70,0,139.3,0,208.9,0c-2.6-80.5-5.2-160.6-7.8-240.9
			c-69.7,0-138.9,0-208.7,0c0,2,0,3.8,0,5.5c0,17.3,0.2,34.5,0,51.8c-0.3,22.6-16.7,40.6-38,42.1c-8.8,0.6-11.8-2.2-11.8-11.1
			c0-27.7,0-55.3,0-83c0-1.7,0-3.5,0-5.1c-64.4,0-128.1,0-192,0c-2.6,80.5-5.2,160.6-7.8,240.9c64.3,0,128,0,192.1,0
			c0.6-5.9,1.3-11.5,1.8-17.1c2.7-27.4,5.3-54.7,7.9-82.1c0.5-5.6,3.2-8.5,8.7-8.7c9.4-0.3,18.9-0.3,28.3,0c5.5,0.2,8.3,3.1,8.8,8.6
			c2,20.4,4,40.8,5.9,61.2C277.7,376,278.9,388.6,280.2,401.4z M31.3,143.2c149.9,0,299.5,0,449.3,0c0-11.1,0-21.9,0-32.7
			c-150,0-299.6,0-449.3,0C31.3,121.6,31.3,132.3,31.3,143.2z M239.6,160.4c0,27.3,0,54,0,81.5c1.9-0.9,3.3-1.4,4.6-2.3
			c7.8-5.1,11.7-12.4,11.7-21.7c0.1-18.2,0-36.4,0-54.6c0-0.9-0.2-1.8-0.3-2.9C250.2,160.4,245.1,160.4,239.6,160.4z"/>
		<path class="st1" d="M39.5,384.7c0-5.6,0-10.7,0-16.1c5.4,0,10.5,0,16,0c0,5.3,0,10.5,0,16.1C50.3,384.7,45,384.7,39.5,384.7z"/>
		<path class="st1" d="M72.7,384.7c0-5.5,0-10.5,0-15.9c5.4,0,10.6,0,16.2,0c0,5.2,0,10.3,0,15.9C83.7,384.7,78.4,384.7,72.7,384.7z
			"/>
		<path class="st1" d="M173,368.7c5.4,0,10.5,0,16,0c0,5.3,0,10.4,0,16c-5.2,0-10.4,0-16,0C173,379.4,173,374.2,173,368.7z"/>
		<path class="st1" d="M289.6,368.5c5.5,0,10.5,0,15.9,0c0,5.3,0,10.5,0,16.2c-5.1,0-10.3,0-15.9,0
			C289.6,379.5,289.6,374.2,289.6,368.5z"/>
		<path class="st1" d="M339,368.8c0,5.5,0,10.6,0,16c-5.5,0-10.7,0-16.2,0c0-5.4,0-10.5,0-16C328.2,368.8,333.6,368.8,339,368.8z"/>
		<path class="st1" d="M439.1,384.8c-5.5,0-10.6,0-16.1,0c0-5.4,0-10.5,0-16c5.3,0,10.5,0,16.1,0C439.1,374,439.1,379.2,439.1,384.8
			z"/>
		<path class="st1" d="M472.4,384.8c-5.4,0-10.5,0-16,0c0-5.3,0-10.5,0-16.1c5.2,0,10.4,0,16,0C472.4,374.1,472.4,379.3,472.4,384.8
			z"/>
		<path class="st1" d="M106.2,368.7c5.6,0,10.7,0,16.1,0c0,5.4,0,10.5,0,16c-5.3,0-10.6,0-16.1,0
			C106.2,379.4,106.2,374.3,106.2,368.7z"/>
		<path class="st1" d="M139.6,384.8c0-5.5,0-10.6,0-16.1c5.4,0,10.5,0,16,0c0,5.3,0,10.5,0,16.1
			C150.4,384.8,145.2,384.8,139.6,384.8z"/>
		<path class="st1" d="M356.2,384.7c0-5.3,0-10.4,0-15.9c5.4,0,10.6,0,16.1,0c0,5.3,0,10.4,0,15.9
			C367,384.7,361.8,384.7,356.2,384.7z"/>
		<path class="st1" d="M405.7,368.8c0,5.3,0,10.4,0,15.9c-5.4,0-10.6,0-16.1,0c0-5.3,0-10.4,0-15.9
			C394.9,368.8,400,368.8,405.7,368.8z"/>
	</g>
</g>
</svg>
