<?xml version="1.0" encoding="utf-8"?>
<!-- Generator: Adobe Illustrator 22.1.0, SVG Export Plug-In . SVG Version: 6.00 Build 0)  -->
<svg version="1.1" id="Layer_1" xmlns="http://www.w3.org/2000/svg" xmlns:xlink="http://www.w3.org/1999/xlink" x="0px" y="0px"
	 viewBox="0 0 512 512" style="enable-background:new 0 0 512 512;" xml:space="preserve">
<style type="text/css">
	.st0{fill:#1F1F1F;}
</style>
<g>
	<path class="st0" d="M483.1,505.5c-151.4,0-302.8,0-454.2,0c-4.4-2.5-5.9-6.3-5.9-11.4c0.1-147.7,0.1-295.3,0.1-443
		c0-8.8,2.8-11.5,11.8-11.5c16.4,0,32.8,0,49.2,0c1.7,0,3.4,0,5.5,0c0-7.8,0-15,0-22.1c0.1-8.2,3-11.1,11.2-11.1
		c17.4,0,34.8,0,52.1,0c8.9,0,11.5,2.6,11.5,11.7c0,7.1,0,14.2,0,21.2c61.4,0,122.1,0,183.1,0c0-7.1,0-13.9,0-20.7
		c0-9.7,2.4-12.2,12-12.2c16.9,0,33.8,0,50.7,0c9.6,0,12.2,2.6,12.2,12.1c0,6.9,0,13.8,0,21.1c2.4,0,4.2,0,5.9,0
		c16.2,0,32.5,0,48.7,0c9.1,0,11.8,2.7,11.8,12c0,147.3,0,294.7,0.1,442C489,498.9,487.6,502.9,483.1,505.5z M471.9,488.8
		c0-113.9,0-227.3,0-340.7c-144.2,0-288,0-431.9,0c0,113.7,0,227.1,0,340.7C184.2,488.8,327.9,488.8,471.9,488.8z M39.8,130.8
		c144.4,0,288.3,0,432.2,0c0-25,0-49.6,0-74.2c-16.6,0-32.9,0-49.6,0c0,7.5,0,14.7,0,21.8c-0.1,8.3-2.8,11.1-11.2,11.1
		c-17.5,0-35.1,0-52.6,0c-8.4,0-11-2.7-11.1-11.1c0-7.3,0-14.5,0-21.8c-61.4,0-122.1,0-183.1,0c0,7.6,0,14.7,0,21.9
		c0,8.3-2.7,11-11.1,11c-17.2,0-34.4,0-51.6,0c-9.6,0-12-2.5-12.1-12.2c0-6.9,0-13.8,0-20.7c-17,0-33.3,0-49.8,0
		C39.8,81.5,39.8,106,39.8,130.8z M147.7,23.4c-14,0-27.5,0-41.1,0c0,16.6,0,32.9,0,49.1c13.9,0,27.4,0,41.1,0
		C147.7,56,147.7,39.9,147.7,23.4z M405.5,23.4c-13.9,0-27.4,0-41,0c0,16.6,0,32.9,0,49.3c13.8,0,27.3,0,41,0
		C405.5,56,405.5,39.7,405.5,23.4z"/>
	<path class="st0" d="M98.3,198c105.2,0,210,0,315.3,0c0,80.2,0,160.3,0,240.8c-105,0-210,0-315.3,0C98.3,358.6,98.3,278.5,98.3,198
		z M172.5,347.3c0-19.5,0-38.6,0-57.7c-19.5,0-38.5,0-57.6,0c0,19.4,0,38.5,0,57.7C134.2,347.3,153.3,347.3,172.5,347.3z
		 M339.5,289.4c0,19.5,0,38.7,0,57.8c19.5,0,38.5,0,57.5,0c0-19.4,0-38.5,0-57.8C377.8,289.4,358.9,289.4,339.5,289.4z M172.5,272.4
		c0-19.5,0-38.6,0-57.7c-19.4,0-38.5,0-57.6,0c0,19.4,0,38.5,0,57.7C134.2,272.4,153.2,272.4,172.5,272.4z M397,272.4
		c0-19.5,0-38.6,0-57.7c-19.4,0-38.4,0-57.6,0c0,19.4,0,38.5,0,57.7C358.8,272.4,377.7,272.4,397,272.4z M172.5,422.2
		c0-19.6,0-38.7,0-57.7c-19.5,0-38.5,0-57.5,0c0,19.4,0,38.5,0,57.7C134.3,422.2,153.2,422.2,172.5,422.2z M397,422.2
		c0-19.6,0-38.7,0-57.7c-19.4,0-38.5,0-57.5,0c0,19.4,0,38.5,0,57.7C358.9,422.2,377.8,422.2,397,422.2z M189.7,272.4
		c19.5,0,38.4,0,57.6,0c0-19.3,0-38.4,0-57.6c-19.4,0-38.4,0-57.6,0C189.7,234.1,189.7,253,189.7,272.4z M322.2,214.8
		c-0.9-0.2-1.5-0.4-2.1-0.4c-17.4,0-34.8,0-52.1-0.1c-3.3,0-3.7,1.6-3.6,4.2c0.1,16.9,0,33.8,0.1,50.7c0,1.1,0.3,2.1,0.4,3.2
		c19.3,0,38.2,0,57.4,0C322.2,253,322.2,234,322.2,214.8z M247.4,289.5c-19.3,0-38.4,0-57.6,0c0,19.4,0,38.4,0,57.7
		c19.3,0,38.4,0,57.6,0C247.4,327.9,247.4,308.8,247.4,289.5z M322.1,347.4c0-19.6,0-38.8,0-57.9c-19.3,0-38.3,0-57.3,0
		c0,19.4,0,38.6,0,57.9C284,347.4,302.8,347.4,322.1,347.4z M247.3,364.5c-19.3,0-38.4,0-57.5,0c0,19.4,0,38.4,0,57.7
		c19.3,0,38.2,0,57.5,0C247.3,402.8,247.3,383.7,247.3,364.5z M322.2,364.5c-19.4,0-38.4,0-57.5,0c0,19.4,0,38.4,0,57.7
		c19.3,0,38.3,0,57.5,0C322.2,402.9,322.2,383.9,322.2,364.5z"/>
</g>
</svg>
