<?xml version="1.0" encoding="utf-8"?>
<!-- Generator: Adobe Illustrator 22.1.0, SVG Export Plug-In . SVG Version: 6.00 Build 0)  -->
<svg version="1.1" id="Layer_1" xmlns="http://www.w3.org/2000/svg" xmlns:xlink="http://www.w3.org/1999/xlink" x="0px" y="0px"
	 viewBox="0 0 512 512" style="enable-background:new 0 0 512 512;" xml:space="preserve">
<style type="text/css">
	.st0{fill-rule:evenodd;clip-rule:evenodd;fill:#3663AE;}
	.st1{fill:#FFFFFF;}
</style>
<circle class="st0" cx="256" cy="256" r="250"/>
<g>
	<path class="st1" d="M133,332.9c0-39.1,0-78.2,0-117.2c0.1-0.2,0.3-0.4,0.4-0.6c1.9-11.9,13-21.1,25.7-20.6
		c8.8,0.3,17.6,0.1,26.4,0.1c6.1,0,9.9-2.7,11.8-8.5c2.2-6.7,4.5-13.3,6.7-20c1.9-5.6,5.7-8.4,11.7-8.4c26.9,0,53.8,0,80.7,0
		c5.8,0,9.7,2.8,11.5,8.3c2.3,6.7,4.5,13.5,6.8,20.2c1.9,5.6,5.7,8.4,11.6,8.4c9,0,17.9,0,26.9,0c15.1,0,25.8,10.7,25.8,25.9
		c0,17.9,0,35.9,0,53.8c0,18.3,0,36.7,0,55c0,5.6-1.5,10.7-5,15.2c-5.3,7-12.5,10.1-21.2,10.1c-64.5,0-129,0-193.6,0
		c-0.8,0-1.6,0-2.4,0c-7.4-0.4-13.5-3.5-18.3-9.2C135.6,341.6,134,337.3,133,332.9z M255.9,329.8c33.6,0.3,61.3-27.3,61.6-61.3
		c0.3-33.8-27.3-61.5-61.4-61.7c-33.7-0.2-61.4,27.3-61.6,61.2C194.3,301.9,221.7,329.5,255.9,329.8z M337.2,227.6
		c0,4.7,3.8,8.6,8.5,8.6c4.8,0.1,8.8-3.9,8.7-8.7c-0.1-4.6-4-8.6-8.6-8.5C341.1,219.1,337.2,223,337.2,227.6z"/>
	<path class="st1" d="M256,305.1c-20.4,0-37-16.7-36.9-37c0.1-20.3,16.6-36.7,36.9-36.7c20.4,0,37.1,16.7,36.9,37
		C292.8,288.7,276.3,305.1,256,305.1z"/>
</g>
</svg>
