<?xml version="1.0" encoding="utf-8"?>
<!-- Generator: Adobe Illustrator 22.1.0, SVG Export Plug-In . SVG Version: 6.00 Build 0)  -->
<svg version="1.1" id="Layer_1" xmlns="http://www.w3.org/2000/svg" xmlns:xlink="http://www.w3.org/1999/xlink" x="0px" y="0px"
	 viewBox="0 0 512 512" style="enable-background:new 0 0 512 512;" xml:space="preserve">
<style type="text/css">
	.st0{fill:#D0D0D0;}
	.st1{fill:#666766;}
</style>
<circle class="st0" cx="256" cy="256" r="250"/>
<g>
	<path class="st1" d="M256.5,266.4c-17.2,17.2-33.4,33.5-49.6,49.7c-4.9,4.9-9.8,9.8-14.7,14.7c-4.5,4.4-9.1,5-12.6,1.6
		c-3.5-3.4-3-8.1,1.4-12.6c20.1-20.2,40.3-40.3,60.5-60.5c1-1,2-2.1,3.1-3.3c-1.2-1.2-2.1-2.3-3.1-3.3
		c-19.9-19.9-39.8-39.8-59.6-59.7c-5.2-5.2-5.9-9.8-2.3-13.4c3.7-3.6,8.2-2.8,13.4,2.4c19.8,19.8,39.6,39.6,59.4,59.4
		c1,1,1.9,2.3,3.1,3.7c1.5-1.4,2.5-2.3,3.5-3.3c19.5-19.5,39-39,58.5-58.5c0.7-0.7,1.3-1.3,2-2c4.7-4.6,9.4-5.2,12.9-1.6
		c3.4,3.5,2.8,8.1-1.7,12.6c-20.1,20.1-40.1,40.2-60.2,60.2c-1,1-2.2,1.9-3.6,3c1.4,1.5,2.3,2.6,3.3,3.6
		c20.1,20.1,40.2,40.1,60.1,60.3c1.8,1.8,3.3,4.2,4,6.6c0.9,3.1-0.8,5.7-3.5,7.4c-2.7,1.7-5.6,1.6-8.3-0.2c-1.4-1-2.6-2.2-3.9-3.4
		c-19.8-19.8-39.6-39.6-59.4-59.4C258.4,269.4,257.7,268.1,256.5,266.4z"/>
</g>
</svg>
