<?xml version="1.0" encoding="utf-8"?>
<!-- Generator: Adobe Illustrator 22.1.0, SVG Export Plug-In . SVG Version: 6.00 Build 0)  -->
<svg version="1.1" id="Layer_1" xmlns="http://www.w3.org/2000/svg" xmlns:xlink="http://www.w3.org/1999/xlink" x="0px" y="0px"
	 viewBox="0 0 512 512" style="enable-background:new 0 0 512 512;" xml:space="preserve">
<style type="text/css">
	.st0{fill-rule:evenodd;clip-rule:evenodd;fill:#ADADAD;}
</style>
<g>
	<path class="st0" d="M298.2,256.1c7,6.2,12.2,10.4,17,15.2c59.1,59.1,118.1,118.3,177.2,177.4c9.9,9.9,16.1,20.7,11.6,35.3
		c-6.4,20.4-30.1,28.5-47.4,15.9c-3.7-2.7-6.9-6.1-10.2-9.4C386,430.2,325.7,369.8,265.3,309.4c-2.8-2.8-5.2-5.8-8.7-9.7
		c-3.5,3.3-6.3,5.8-8.9,8.4C185.8,370,123.9,431.8,62.1,493.8c-10.1,10.1-21.3,15.4-35.5,10.2C6.5,496.5-0.3,472.8,13,455.8
		c2.6-3.4,5.7-6.3,8.8-9.3c60.4-60.4,120.7-120.8,181.1-181.1c2.8-2.8,6-5,10-8.2c-3.8-4-6.4-6.8-9-9.4
		C142.4,186.4,81,125.1,19.9,63.5c-5.7-5.8-10.6-13.6-13-21.3c-3.5-11.5,3.2-24.8,13.7-31.1c11.4-6.9,23-6.7,34.1,0.8
		c3.8,2.5,7,6,10.3,9.3C125.6,81.7,186.2,142.3,246.8,203c2.7,2.7,4.9,6.1,12.1,11.3c1.8-3.5,2.9-7.8,5.6-10.4
		c61.2-61.5,122.5-123,184.2-184c5.8-5.7,13.6-10.6,21.3-12.9c11.5-3.5,24.8,3.3,31.1,13.8c6.9,11.4,6.6,23.1-0.9,34.1
		c-2.6,3.8-6,7-9.3,10.2C430.3,125.7,369.7,186.3,309,246.9C306.3,249.7,303.1,252,298.2,256.1z"/>
</g>
</svg>
