<?xml version="1.0" encoding="utf-8"?>
<!-- Generator: Adobe Illustrator 22.1.0, SVG Export Plug-In . SVG Version: 6.00 Build 0)  -->
<svg version="1.1" id="Layer_1" xmlns="http://www.w3.org/2000/svg" xmlns:xlink="http://www.w3.org/1999/xlink" x="0px" y="0px"
	 viewBox="0 0 512 512" style="enable-background:new 0 0 512 512;" xml:space="preserve">
<style type="text/css">
	.st0{fill:#ADADAD;}
</style>
<g>
	<path class="st0" d="M6,383c3.1-8.8,5.3-18,9.4-26.3c3-6.1,7.8-11.6,12.7-16.5C132,236,236,132.1,340.1,28.1
		c29.5-29.5,71.9-29.4,101.4,0c14.2,14.1,28.3,28.3,42.4,42.4c29.4,29.5,29.5,71.9,0,101.4c-103.9,104-208,208-311.9,312
		c-11.5,11.5-24.9,19.1-41.2,21.3c-0.6,0.1-1.1,0.5-1.7,0.8c-5.2,0-10.4,0-15.6,0c-0.6-0.3-1.2-0.7-1.8-0.7
		c-16.5-2.2-30-9.8-41.6-21.5c-14.1-14.2-28.3-28.3-42.4-42.5c-8.1-8-14.4-17.2-17.8-28.1c-1.5-4.8-2.5-9.7-3.8-14.5
		C6,393.4,6,388.2,6,383z M391.2,20.8c-16.6,0.2-29.9,6.8-41.4,18.3C246.3,142.7,142.7,246.2,39.1,349.8c-1,1-2.1,2.1-3.1,3.1
		c-20.8,22.5-20.8,54.5,0.5,76.5c15,15.6,30.5,30.7,45.9,45.9c10.8,10.7,24,16,39.2,15.9c16.2-0.2,29.3-7.1,40.6-18.4
		c103.4-103.5,206.8-206.9,310.3-310.4c1-1,2.1-2.1,3.1-3.1c21-22.6,20.9-54.8-0.5-76.9c-15-15.4-30.3-30.5-45.5-45.6
		C418.9,26.3,405.9,21.1,391.2,20.8z"/>
	<path class="st0" d="M382.8,506c-6.8-2-14.1-3.1-20.2-6.3c-7.9-4.2-15.7-9.3-22.2-15.5c-21.8-21-43-42.6-64.3-64.1
		c-1.8-1.8-3.7-4.2-3.9-6.4c-0.2-2.1,1.2-5.3,2.9-6.5c1.7-1.2,4.9-1.2,7.1-0.7c1.8,0.5,3.4,2.4,4.8,3.9c21,20.9,41.9,41.9,62.8,62.8
		c24.5,24.4,57.3,24.4,81.8-0.1c13.9-13.9,27.9-27.8,41.7-41.8c23.7-23.8,23.7-56.9,0-80.8c-20.5-20.6-41.2-41.2-61.7-61.8
		c-1.1-1.1-2.4-2.3-3.4-3.5c-2.8-3.4-2.7-7.3,0.1-10.1c2.8-2.8,6.7-2.8,10.2-0.1c0.4,0.3,0.7,0.6,1.1,1
		c22.3,22.3,45.1,44.2,66.8,67.1c26.8,28.4,25.8,69.5-1.5,97.4c-14.7,15-29.6,29.7-44.5,44.5c-11.1,11-24.2,17.9-39.7,20.1
		c-0.8,0.1-1.5,0.6-2.2,0.8C393.3,506,388.1,506,382.8,506z"/>
	<path class="st0" d="M6,113.5c3.2-9.1,5.7-18.6,9.8-27.3c2.8-5.8,7.6-10.9,12.2-15.7C42,56.2,56.2,42.1,70.4,28
		c29.4-29.2,71.7-29.4,101.1-0.2c20.9,20.7,41.7,41.6,62.4,62.5c1.6,1.7,3.5,3.9,3.7,6c0.2,2.2-1,5.3-2.7,6.6
		c-1.7,1.3-4.9,1.3-7.1,0.8c-1.8-0.4-3.4-2.4-4.9-3.8c-20.4-20.3-40.7-40.7-61.1-61.1c-24.3-24.2-57.2-24.2-81.5,0
		C66.4,52.8,52.4,66.7,38.5,80.6c-24,24.1-24,57,0,81.1c20.7,20.7,41.4,41.4,62.1,62.1c1.3,1.3,2.6,2.5,3.6,4
		c2.1,3.1,1.8,6.3-0.7,8.9c-2.5,2.6-5.7,3.2-8.9,1.2c-1.6-1-3-2.4-4.4-3.8c-20.4-20.3-40.7-40.8-61.1-61
		C17,161.2,8.8,147.4,6.7,130.4c-0.1-0.4-0.5-0.8-0.7-1.2C6,123.9,6,118.7,6,113.5z"/>
	<path class="st0" d="M294.2,137.3c6,0.1,11.6,2.5,16.1,7.1c19.1,19.1,38.3,38,57.2,57.3c9.9,10.1,9.6,23.3-0.4,33.4
		c-44,44.1-88,88.2-132.1,132.1c-10.2,10.2-23.5,10.3-33.8,0.1c-19-18.7-37.9-37.6-56.6-56.6c-10.2-10.3-10.1-23.6,0.1-33.8
		c44-44.1,88.1-88.1,132.1-132.2C281.5,140.1,287.1,137.4,294.2,137.3z M218.4,361c2.8-2,5.6-3.5,7.8-5.7c43.1-43,86.1-86,129.1-129
		c6.3-6.3,6.2-9.9-0.2-16.4c-17.7-17.7-35.4-35.4-53.1-53.1c-6.4-6.4-10-6.4-16.4,0c-19.3,19.3-38.6,38.6-58,58
		c-23.8,23.8-47.6,47.6-71.4,71.4c-5.4,5.4-5.9,9.5-1.2,14.3c18.8,18.9,37.7,37.8,56.6,56.6C213.3,358.6,215.7,359.4,218.4,361z"/>
	<path class="st0" d="M288.9,194.6c-3.9,0-7.2-3.2-7.3-7c-0.1-3.9,3.6-7.6,7.5-7.5c3.9,0.1,7,3.4,7,7.3
		C296,191.3,292.8,194.5,288.9,194.6z"/>
	<path class="st0" d="M324.5,230.5c-3.8,0-7.1-3.3-7.1-7.2c0-4.1,3.4-7.4,7.5-7.2c3.9,0.2,7.1,3.5,7,7.4
		C331.8,227.1,328.2,230.5,324.5,230.5z"/>
	<path class="st0" d="M219.8,263.5c0,3.9-3.2,7.1-7.1,7.2c-3.9,0.1-7.2-3.1-7.4-7c-0.2-3.9,3.5-7.6,7.4-7.5
		C216.6,256.3,219.8,259.6,219.8,263.5z"/>
	<path class="st0" d="M187.4,281.7c3.9,0.1,7,3.5,7,7.4c0,4.1-3.5,7.3-7.6,7.1c-3.9-0.2-7-3.7-6.8-7.5
		C180.2,284.9,183.7,281.5,187.4,281.7z"/>
	<path class="st0" d="M230.3,324.8c0,3.7-3.5,7.2-7.2,7.2c-4,0-7.4-3.5-7.2-7.6c0.1-3.9,3.4-7,7.4-6.9
		C227.1,317.6,230.4,321,230.3,324.8z"/>
	<path class="st0" d="M270.6,213c-0.1,3.9-3.4,7-7.3,7c-3.9,0-7.2-3.3-7.2-7.1c0-3.9,3.7-7.5,7.6-7.3
		C267.6,205.7,270.7,209,270.6,213z"/>
	<path class="st0" d="M245.2,238c0.1,3.9-3,7.2-6.9,7.4c-4.1,0.2-7.6-3.2-7.6-7.2c0-3.7,3.5-7.2,7.2-7.2
		C241.8,230.8,245.1,234.1,245.2,238z"/>
	<path class="st0" d="M306.5,248.6c0,3.7-3.4,7.2-7.2,7.3c-4,0.1-7.4-3.4-7.3-7.5c0.1-3.9,3.4-7,7.3-7
		C303.2,241.4,306.5,244.7,306.5,248.6z"/>
	<path class="st0" d="M281.1,273.8c0.1,3.7-3.2,7.3-7,7.4c-3.8,0.2-7.2-2.9-7.5-6.9c-0.2-4.1,3-7.6,7.1-7.6
		C277.7,266.8,281,269.9,281.1,273.8z"/>
	<path class="st0" d="M248.3,292.2c3.9,0,7.2,3.1,7.4,7c0.1,3.9-3.5,7.6-7.4,7.5c-3.9-0.1-7.1-3.4-7.1-7.3
		C241.2,295.4,244.4,292.2,248.3,292.2z"/>
	<path class="st0" d="M306.3,212.4c-4-0.2-6.9-3.3-6.7-7.4c0.1-4.2,3.5-7.2,7.8-6.8c4,0.3,6.7,3.5,6.5,7.6
		C313.5,209.8,310.3,212.6,306.3,212.4z"/>
	<path class="st0" d="M281.4,237.8c-4.1,0-7.1-2.9-7.2-7c-0.1-4.3,3.1-7.4,7.3-7.3c4,0.1,7,3.2,6.9,7.2
		C288.4,234.8,285.4,237.8,281.4,237.8z"/>
	<path class="st0" d="M255.9,248.9c4,0,7.1,3,7.1,7c0.1,4.2-3.1,7.4-7.3,7.3c-4-0.1-7-3.2-6.9-7.2
		C248.8,251.9,251.9,248.9,255.9,248.9z"/>
	<path class="st0" d="M230.5,274.3c4.1,0,7.1,2.9,7.1,7c0.1,4.1-2.8,7.1-6.9,7.3c-4.3,0.1-7.4-3-7.4-7.2
		C223.4,277.3,226.4,274.4,230.5,274.3z"/>
	<path class="st0" d="M212.3,306.6c0.1,4.1-2.7,7.2-6.8,7.4c-4.2,0.2-7.5-2.9-7.5-7.1c0-4.1,3-7,7-7.1
		C209.1,299.7,212.1,302.6,212.3,306.6z"/>
</g>
</svg>
