<?xml version="1.0" encoding="utf-8"?>
<!-- Generator: Adobe Illustrator 22.1.0, SVG Export Plug-In . SVG Version: 6.00 Build 0)  -->
<svg version="1.1" id="Layer_1" xmlns="http://www.w3.org/2000/svg" xmlns:xlink="http://www.w3.org/1999/xlink" x="0px" y="0px"
	 viewBox="0 0 512 512" style="enable-background:new 0 0 512 512;" xml:space="preserve">
<style type="text/css">
	.st0{fill:#4BC1EA;}
	.st1{fill:#3762AE;}
</style>
<g>
	<path class="st0" d="M474,260.8l-164-159.5c0,0-37.9,4.1-41.9-8.1s-7.9-41.5-7.9-41.5l-51.5-35.8c0,0-30.1-0.8-55.3,13
		s-131,67.5-131,67.5S15.7,129,28,134.7s195.1,57.9,195.1,57.9l18.6-13.1l26.4,4.1l23.3,30L474,260.8z"/>
	<g>
		<path class="st1" d="M186.7,6c4.6,0,9.1,0,13.7,0c8.6,2.7,17.6,4.7,25.8,8.3c18,8,29.9,23.7,43.8,36.8c1.7,1.6,2.3,5.9,1.7,8.5
			c-3.3,14.5,3.3,28.3,17,34.3c5.4,2.3,10.5,2.9,15.7-0.6c3.4-2.3,7.1-2.3,10.5,0.2c1.6,1.1,3,2.5,4.4,3.8
			c54.5,51.5,109.1,103,163.6,154.5c8.2,7.7,13.7,17.2,17.3,27.9c3.9,11.9,2.9,24.1,3,36.3c0.1,11.9-4.7,15.3-15.8,11.5
			c-0.8-0.3-1.5-0.5-2.3-0.8c-11.7-3.1-19.7,3.3-19.1,15.4c0.1,2.6,0.6,5.2,1.5,7.6c4.8,13.1,13.7,21.8,27.2,25.6
			c6.4,1.8,8.5,4.5,8.5,10.8c0,25.9,0.1,51.7-0.1,77.6c-0.1,10.7-4,19.9-11.1,27.9c-7.2,8.2-16.6,12.2-27,14.5c-3.9,0-7.8,0-11.7,0
			c-2.8-0.8-5.5-1.7-8.3-2.5c-93.2-27.5-186.3-54.9-279.5-82.4c-42.2-12.4-84.5-24.7-126.6-37.5C21,378.3,9.7,362.5,9,343.8
			c-0.2-6.5,0-13-0.1-19.5c-0.1-4.4,1-8.1,5.1-10.3c3.9-2.1,7.4-0.6,11,1.5c4.2,2.4,8.5,4.9,13.1,6.1c9.6,2.5,16.4-2.7,17.3-12.4
			c1.6-16.9-16.5-36.2-33.5-35.8c-9.8,0.2-13-2.8-13-12.5c0-47.2,0-94.4,0-141.6c0-19.9,8.6-34.5,26.9-43.2
			c19.8-9.4,39.4-19.4,59.3-28.5C125.6,33.8,154.5,16.2,186.7,6z M27.6,254.7c26.5,4.5,45.2,28.6,46.3,50.9
			c0.9,17.6-9.5,33-27.4,34.9c-6.1,0.7-12.5-0.7-18.7-1.1c-1.4,13.4,5.7,23.5,20.1,27.7c134.5,39.6,269,79.2,403.5,118.7
			c3.4,1,7.1,1.6,10.5,1.2c13.5-1.4,22.5-11.8,22.6-26c0.1-21.5-0.1-43,0.1-64.4c0-3.6-1.1-5.3-4.3-6.9c-19.9-10-31.9-25.9-33-48.6
			c-1-19.8,13.4-34.1,33.3-33.7c1.2,0,2.5-0.2,3.6-0.3c1.7-18.9-4.4-28-22.1-33.3c-47.5-14.1-95-28.2-142.5-42.3
			c-7.7-2.3-15.4-4.6-23.1-6.9c-7.4,19.7-26.4,24.6-43.1,17c-15-6.8-24.8-18.2-28.9-34.1c-0.9-3.6-2.5-5.2-6.1-6.3
			c-50-14.8-100-29.7-149.9-44.6c-13.5-4-27-8-40.8-12.1C27.6,181.4,27.6,217.9,27.6,254.7z M455.6,252.5c-2.6-2.7-4.2-4.5-5.9-6.2
			c-45-42.6-90.1-85.2-135-127.9c-4-3.8-7.6-7.4-13.7-4.3c-1.2,0.6-2.9,0.3-4.3,0.3c-22.9-0.1-46.3-24-44.9-47.2
			c0.4-6.8-1.8-10.5-6.3-14.3c-4-3.4-7.4-7.4-11.4-10.6c-5.2-4.1-10.4-8.4-16.2-11.5c-12.2-6.3-25.3-9.3-38.4-3.1
			C133.4,49.7,87.6,71.8,41.9,94.1c-3.5,1.7-6.8,4.6-9.2,7.8c-7.6,10.1-6.4,23.1,7,27.1c60.7,17.6,121.2,35.8,181.7,54
			c3.4,1,5.1,0.5,7-2.6c5-7.8,12.6-11.7,21.7-12.1c18.9-0.8,37.7,13,44.5,32.6c1.1,3.2,2.7,4.6,5.8,5.5
			c33.5,9.9,66.9,19.9,100.4,29.9C418.7,241.6,436.6,246.9,455.6,252.5z M278.7,215c0-12.3-11.2-25.6-23.7-27.9
			c-8.3-1.6-13.6,3-13.3,11.5c0.5,11.9,11.5,24.9,23.4,27.4C273.5,227.8,278.7,223.6,278.7,215z"/>
		<path class="st1" d="M173.7,291.2c-1.4-25.7,20.8-43.2,47-36.9c24.1,5.8,45.2,30.4,47.3,55.1c2.5,29.8-21.7,48.8-50.1,39.4
			C193,340.6,175.1,317.2,173.7,291.2z M196.8,276.9c6,11,14,19.2,25.6,23.2c8,2.8,15.8,3.2,22.6-3.6c-6-11-14.3-19.2-26.1-23.3
			C211.2,270.6,203.7,270.5,196.8,276.9z M197.6,307.7c4.5,9.1,10.8,16.7,20.1,20.7c5.3,2.3,11.5,3.6,17.3,3.6
			c8.3,0,14.2-7.2,13.6-14.9C229.6,324.8,213.1,319,197.6,307.7z"/>
		<path class="st1" d="M164.5,347.8c-1.2,21.1-19.4,33.2-39.3,25.8c-16.6-6.1-27.2-18-31.3-35.3c-2.7-11.7-0.6-22.5,9-30.6
			c9.3-7.8,20-8,30.8-3.9C152.1,310.8,165.5,330.1,164.5,347.8z M145.9,346.2c-0.1-11.6-11.2-24.3-22.6-25.8
			c-7.7-1-11.7,2.5-11.8,10.2c-0.1,11.1,11,24.2,22,26C141.6,358,146,354.3,145.9,346.2z"/>
		<path class="st1" d="M382.1,320.2c17.8-0.3,36.5,14.9,41.9,33.8c3.3,11.7,2.5,22.7-6.2,31.9c-9.4,9.8-24.2,11.3-37.8,3.7
			c-14.6-8.2-23.7-20.4-25.7-37.4C352.2,334.3,364.3,320.5,382.1,320.2z M382.5,338.7c-5.6-0.2-8.7,2.4-9.6,8
			c-1.9,12.7,11.6,28.7,24.5,28.9c5.1,0.1,8.2-2.4,9.2-7.4C409.4,355.7,395.9,339.2,382.5,338.7z"/>
		<path class="st1" d="M54.8,197.4c0-15.8,12.8-26,28.5-22.6c17.3,3.8,30.6,22.4,27.6,38.8c-2.4,12.9-13.5,20.7-26.4,18.4
			C68.3,229.1,54.8,213.4,54.8,197.4z M78.1,192.6c-3-0.1-4.6,1.6-4.7,4.9c-0.1,6.6,7.6,15.2,14.2,16c2.9,0.3,4.7-0.8,5.1-3.8
			C93.5,202.9,84.9,192.8,78.1,192.6z"/>
		<path class="st1" d="M313,274.4c18.5-0.1,34.9,20.3,30.9,38.3c-2.1,9.5-10.5,16.3-20.4,16.4c-17.7,0.3-34.4-19-31.7-36.6
			C293.6,281.3,301.7,274.4,313,274.4z M325.8,307.7c-0.1-6.4-5.8-13.4-11.1-14.5c-2.9-0.6-4.9,0.1-4.7,3.6
			c0.3,5.5,6,12.1,11.3,13.3C324.4,310.7,325.8,309.7,325.8,307.7z"/>
		<path class="st1" d="M329.2,439.8c-16.9-0.3-32.7-18.1-31-34.9c1.3-13.4,12.6-21.8,25.8-19.3c16.3,3.1,28.6,19.1,27,34.9
			C349.7,432.3,341,440,329.2,439.8z M332.4,417.4c-0.1-5.6-6.2-12.7-11.6-13.5c-2.7-0.4-4,0.7-4,3.4c0,5.4,6.3,12.8,11.5,13.7
			C331,421.5,332.6,420.5,332.4,417.4z"/>
	</g>
</g>
</svg>
