<?xml version="1.0" encoding="utf-8"?>
<!-- Generator: Adobe Illustrator 22.1.0, SVG Export Plug-In . SVG Version: 6.00 Build 0)  -->
<svg version="1.1" id="Layer_1" xmlns="http://www.w3.org/2000/svg" xmlns:xlink="http://www.w3.org/1999/xlink" x="0px" y="0px"
	 viewBox="0 0 512 512" style="enable-background:new 0 0 512 512;" xml:space="preserve">
<style type="text/css">
	.st0{fill:#4BC1EA;}
	.st1{fill:#3762AE;}
</style>
<g>
	<path class="st0" d="M164.5,347.9c0,0-2.7-95.6,45-130.8s86.4-67,138.7-54.7c-4.7-17.1-21-64.3-21-64.3l-54.7-55.3l-49.6-23.6
		h-72.4L97.7,35.4L51.2,72.8l-35.8,83.4l7.5,72.9l22.7,54.5l32.6,30.8l45,24.9L164.5,347.9z"/>
	<g>
		<path class="st1" d="M321.5,506c-5-0.6-10-1.2-14.9-2c-53.4-8.2-94.6-35.3-123.8-80.6c-12.9-20.1-21-42.1-24.4-65.7
			c-0.4-2.8-1.7-3.6-4.3-4.1c-60.9-10.5-105-43.6-131.9-99.2c-9-18.6-13.8-38.5-15.4-59.1c-0.1-1.3-0.5-2.5-0.7-3.8
			c0-6.8,0-13.7,0-20.5c0.6-4.8,1.2-9.6,1.9-14.4c8.2-53.4,35.2-94.8,80.6-123.8C122.2,11.3,159.5,2.7,199,7.1
			c58.2,6.5,102.8,35.2,133.1,85.5c11.5,19,18.5,39.7,21.6,61.7c0.4,2.9,1.8,3.6,4.4,4.1c5.9,1.1,11.8,2.3,17.6,3.7
			c6.5,1.7,8.7,5.7,6.9,12c-3.1,10.9-0.7,17,9.1,22.2c4.3,2.3,5.9,5.4,6.1,10.1c1.1,23.5,11.8,41.1,33,51.9c2.9,1.5,6,2.6,9.1,3.4
			c5.2,1.4,7.6,4.6,8.7,9.9c3.7,17.8,14.6,29,32.2,33.2c4.3,1,9,0.8,13.6,0.7c7.5-0.1,10.2,2.5,10.8,9.9
			c2.4,27.7-1.4,54.5-11.8,80.3c-13.8,34.2-36.2,61.4-67,81.7c-22.9,15.1-48.2,23.9-75.4,27.3c-3.4,0.4-6.7,0.8-10.1,1.2
			C334.5,506,328,506,321.5,506z M488.9,322.9c-0.7-0.2-1.2-0.4-1.7-0.4c-27.2-2.3-45.1-16.3-53.8-42.3c-0.6-1.8-2.7-3.4-4.4-4.5
			c-6-3.5-12.7-6.1-18.1-10.3c-16.8-12.8-26.7-29.9-29-51.1c-0.3-3.1-1.6-5.2-4.2-7.1c-6.7-4.8-11-11.5-12.4-19.7
			c-0.6-3.6-0.8-7.3-1.1-10.9c-63.6-14.1-134.9,13.1-171.1,77.6c-31.7,56.5-27.5,132.7,24.4,186.7c46.1,47.9,117,61.8,177.5,34.9
			C462,445.9,492.7,379.7,488.9,322.9z M337,155.6C326.6,81.5,257.2,14.9,165.6,23.6C85.4,31.1,21.2,99.3,22.9,183.9
			c1.8,89.4,71.3,145.4,132.7,152.7C153.1,235.1,235.8,153.5,337,155.6z"/>
		<path class="st1" d="M256.3,322.5c-18.4,0.1-33.3-14.7-33.4-33c-0.1-18.2,14.8-33.3,33.1-33.5c18.1-0.1,33.3,14.9,33.4,33.1
			C289.4,307.5,274.6,322.4,256.3,322.5z M272.7,289.2c-0.1-9-7.5-16.5-16.5-16.5c-9.2-0.1-16.8,7.6-16.7,16.8
			c0.1,9.3,7.6,16.6,17,16.4C265.5,305.7,272.7,298.3,272.7,289.2z"/>
		<path class="st1" d="M281.2,431c0-18.2,14.8-33.2,33-33.4c18.2-0.2,33.7,15.4,33.5,33.5c-0.2,18.2-15.2,33-33.4,33
			C296,464.1,281.3,449.4,281.2,431z M314.3,447.5c9.3,0.1,16.9-7.5,16.9-16.6c-0.1-8.9-7.6-16.5-16.5-16.6
			c-9.2-0.1-16.7,7.5-16.7,16.8C297.9,440.2,305.1,447.5,314.3,447.5z"/>
		<path class="st1" d="M356,339.2c-5.4,0-10.7,0.1-16.1,0c-5.7-0.2-8.7-3.2-8.7-8.9c-0.1-10.6-0.1-21.1,0-31.7
			c0.1-5.8,3.2-9.1,9.1-9.2c10.6-0.2,21.1-0.2,31.7,0c5.8,0.1,9,3.4,9,9.3c0.1,10.4,0.1,20.8,0,31.2c-0.1,6.2-3.1,9.2-9.4,9.4
			C366.5,339.3,361.2,339.2,356,339.2z M364.1,322.6c0-5.9,0-11.2,0-16.4c-5.5,0-10.6,0-16,0c0,5.5,0,10.7,0,16.2
			c1.4,0.1,2.5,0.2,3.6,0.2C355.7,322.6,359.7,322.6,364.1,322.6z"/>
		<path class="st1" d="M381.1,430.2c0-12.8,11.8-24.3,24.5-24c4.6,0.1,8,2.8,8.5,7c0.6,4.2-1.8,8.2-6.4,8.9c-6.3,1-9.8,4-10.5,10.6
			c-0.5,4.4-4.8,7-8.9,6.4C383.9,438.5,381.1,435,381.1,430.2z"/>
		<path class="st1" d="M339.2,246.6c0.1,5.2-2.7,8.8-7.3,9.3c-4.2,0.5-8.1-2.2-8.9-7.2c-0.9-5.8-3.7-8.8-9.7-9.6
			c-4.8-0.7-7.7-4.7-7.1-8.9c0.6-4.6,4.2-7.4,9.3-7.4C328,222.9,339,234,339.2,246.6z"/>
		<path class="st1" d="M256,388.5c0,4.7-2.9,8.4-7.2,9c-4.4,0.6-8.5-2.3-9.2-7.3c-0.8-5.6-3.6-8.6-9.4-9.4c-5-0.7-7.9-4.7-7.3-9.2
			c0.6-4.5,4.4-7.3,9.5-7.1C244.9,364.9,255.9,376.1,256,388.5z"/>
		<path class="st1" d="M439.4,363.6c0,4.7-3,8.3-7.3,8.8c-4.6,0.5-8.2-1.9-9-6.9c-0.9-6.1-4.1-9-10.1-9.9c-4.9-0.8-7.2-4.4-6.7-9.1
			c0.5-4.1,4-7,8.5-7.1C427.5,339.2,439.3,350.8,439.4,363.6z"/>
		<path class="st1" d="M81.2,239.2c0.1-18.3,15-33.1,33.4-33c18.3,0.1,33.2,15.1,33.1,33.4c-0.1,18.2-15.3,33.2-33.4,33.1
			C96,272.5,81.1,257.4,81.2,239.2z M97.8,239.5c0.1,9,7.5,16.4,16.5,16.5c9.2,0,16.8-7.6,16.7-16.8c-0.1-9-7.5-16.4-16.6-16.4
			C105.2,222.7,97.8,230.2,97.8,239.5z"/>
		<path class="st1" d="M289.3,114.3c0,5.2,0.1,10.4,0,15.6c-0.1,5.8-2.8,9.1-8.4,9.3c-11,0.3-22.1,0.3-33.2,0
			c-5.4-0.1-8.2-3.4-8.3-8.9c-0.1-10.6-0.1-21.1,0-31.7c0.1-5.7,3-9,8.6-9.1c10.9-0.3,21.8-0.3,32.7,0c5.6,0.2,8.4,3.5,8.5,9.2
			C289.4,103.8,289.3,109.1,289.3,114.3z M256.4,106.2c0,5.7,0,10.9,0,16.2c5.5,0,10.6,0,16,0c0-5.5,0-10.7,0-16.2
			C267,106.2,261.9,106.2,256.4,106.2z"/>
		<path class="st1" d="M130.9,105.9c-5.2,0-10.4,0.1-15.6,0c-5.8-0.2-9-2.9-9.1-8.6c-0.3-10.9-0.3-21.8,0-32.7
			c0.2-5.6,3.4-8.5,9.2-8.6c10.4-0.2,20.8-0.2,31.2,0c6.2,0.1,9.3,3.2,9.4,9.4c0.2,10.4,0.2,20.8,0,31.2c-0.1,6.3-3.2,9.1-9.5,9.3
			C141.3,106,136.1,105.9,130.9,105.9z M139.1,89c0-5.7,0-10.8,0-16.2c-5.4,0-10.6,0-16.1,0c0,5.4,0,10.7,0,16.2
			C128.5,89,133.6,89,139.1,89z"/>
		<path class="st1" d="M164.5,179.9c0.4-12.6,11.4-23.5,23.9-23.7c5.1-0.1,8.5,2.5,9.1,6.9c0.7,4.7-1.8,8.4-7.1,9.3
			c-5.8,1-8.8,3.9-9.6,9.8c-0.7,4.8-4.7,7.6-8.9,7.1C167.3,188.6,164.3,184.8,164.5,179.9z"/>
		<path class="st1" d="M73.7,122.8c12.6,0.2,23.5,10.9,24,23.6c0.2,5-2.7,8.8-7.3,9.3c-4.5,0.5-8.4-2-9-6.8c-0.8-6.1-4-9-10-10
			c-4.9-0.8-7.3-4.5-6.7-9.1C65.2,125.5,68.7,122.8,73.7,122.8z"/>
		<path class="st1" d="M214.2,113.1c0.1,5.2-2.3,8.5-6.7,9.2c-4.8,0.7-8.6-1.6-9.4-6.8c-0.9-6.1-4.1-9-10.1-9.9
			c-4.5-0.7-7.2-4.6-6.8-8.6c0.5-4.4,4-7.5,8.7-7.6C202.4,89.2,213.9,100.4,214.2,113.1z"/>
	</g>
</g>
</svg>
