<?xml version="1.0" encoding="utf-8"?>
<!-- Generator: Adobe Illustrator 22.1.0, SVG Export Plug-In . SVG Version: 6.00 Build 0)  -->
<svg version="1.1" id="Layer_1" xmlns="http://www.w3.org/2000/svg" xmlns:xlink="http://www.w3.org/1999/xlink" x="0px" y="0px"
	 viewBox="0 0 512 512" style="enable-background:new 0 0 512 512;" xml:space="preserve">
<style type="text/css">
	.st0{fill:#4BC1EA;}
	.st1{fill:#FFFFFF;}
	.st2{fill:#3762AE;}
</style>
<g>
	<circle class="st0" cx="257.2" cy="256.1" r="75.2"/>
	<circle class="st1" cx="258.4" cy="256.5" r="27.2"/>
	<g>
		<path class="st2" d="M258.9,6c5.3,2.9,7,7.3,6.9,13.3c-0.3,20-0.1,40-0.1,59.9c0,4.5-1.6,8.4-5.9,9.7c-2.9,0.8-6.9,0.5-9.4-1.1
			c-2.2-1.3-4-5-4-7.6c-0.3-21.4-0.2-42.9-0.2-64.3c0-4.9,3.1-7.5,6.8-9.9C255,6,257,6,258.9,6z"/>
		<path class="st2" d="M255.7,392.8c-30.8-0.2-60.2-6.8-88.3-19.3c-54.2-24.2-97.2-62.1-132.5-109.2c-5.1-6.8-5.1-9.6,0.1-16.6
			c31.6-42.5,70.1-77.3,117.1-101.9c35.6-18.6,73.6-28.3,114-26.3c25.5,1.3,50.1,7,73.6,17.1c56.2,24,100.6,62.6,137,111.1
			c5.3,7.1,5.3,9.8-0.1,17c-31.6,42.3-69.9,77-116.8,101.6C327.4,383.2,292.8,393,255.7,392.8z M252.7,373.2
			c41.8-0.3,77-11.7,109.8-30.8c36.5-21.2,66.8-49.5,93.1-82.3c2.6-3.2,2.4-5.1-0.1-8.2c-26.3-32.8-56.6-61-93.1-82.3
			c-30.7-17.8-63.4-29.1-99.1-30.6c-41-1.7-78.6,10.1-113.8,30.5c-36.7,21.2-67,49.7-93.4,82.6c-2.4,3-2.3,4.8,0,7.8
			c30.7,38.1,66.4,70,110.7,91.7C195.1,365.4,224.8,372.7,252.7,373.2z"/>
		<path class="st2" d="M265.7,463.9c0,10.1,0,20.1,0,30.2c0,7.5-3.7,11.9-9.9,11.9c-5.9-0.1-9.6-4.4-9.6-11.6c0-20.6,0-41.3,0-61.9
			c0-4.5,2-7.8,6.1-9.6c3.6-1.6,7.4-1.2,9.9,1.7c1.8,2.2,3.2,5.4,3.3,8.2C266,443.1,265.7,453.5,265.7,463.9z"/>
		<path class="st2" d="M122.1,130.3c-0.3,8.6-7.9,13.3-14.1,10.2c-1.6-0.8-3-2-4.2-3.2C90.9,124.5,78.1,111.7,65.4,99
			c-3.2-3.2-5.6-6.8-3.8-11.7c2.2-6.1,8.7-8.5,14.2-5.2c1.5,0.9,2.9,2.1,4.1,3.4c12.6,12.5,25.2,25,37.5,37.7
			C119.7,125.4,121,128.6,122.1,130.3z"/>
		<path class="st2" d="M72.4,441.4c-8.4,0.2-13.5-7.4-10.6-13.7c0.8-1.7,2.1-3.3,3.4-4.7c12.7-12.8,25.4-25.7,38.4-38.2
			c2.3-2.2,5.8-4.2,8.8-4.3c7.2-0.4,11.7,8,8.1,14.3c-0.7,1.3-1.6,2.4-2.7,3.5c-13,13-25.9,26.1-39,38.9
			C76.8,439.3,73.9,440.5,72.4,441.4z"/>
		<path class="st2" d="M401.4,141.6c-8.9-0.2-13.5-8.2-10-14.5c0.9-1.5,2.1-2.9,3.3-4.2c12.6-12.7,25.3-25.3,37.9-38
			c3.2-3.2,6.7-5.6,11.7-3.9c6.1,2.2,8.5,8.6,5.2,14.2c-0.9,1.5-2.1,2.9-3.4,4.1c-12.4,12.4-24.7,24.9-37.3,37.2
			C406.4,139,403.1,140.5,401.4,141.6z"/>
		<path class="st2" d="M399,379c3.5,2,6.4,3,8.4,4.9c13.4,13.1,26.6,26.3,39.8,39.6c4.8,4.9,5.1,10.6,1.1,14.7
			c-4.1,4.3-10,4.2-15.1-0.8c-13.3-13.2-26.5-26.4-39.6-39.7c-3.2-3.2-5.1-7.3-2.5-11.4C392.9,383.4,396.2,381.5,399,379z"/>
		<path class="st2" d="M255.9,344.3c-43.8-0.4-80.7-32.4-86.6-76.1c-1.2-8.7-0.4-17.8,0.1-26.6c0.4-6.1,5.5-10.1,10.9-9.4
			c5.5,0.6,9.2,4.9,8.4,11.1c-1.5,12.1-1.1,24,3,35.6c10,28,37.9,47.1,66.6,45.6c31.4-1.6,57-22.7,64.1-52.7
			c12-50.4-35.3-95.5-85.1-81.1c-1.9,0.5-3.7,1.2-5.6,1.6c-6.2,1.5-11-0.7-12.7-5.9c-1.8-5.4,0.6-10.5,6.6-12.7
			c12.5-4.7,25.6-6.7,38.8-5.1c29.8,3.6,52.7,18.2,68.1,44.2c30.9,52.4-3.3,122.6-63.5,130.3C264.6,343.5,260.2,343.8,255.9,344.3z"
			/>
		<path class="st2" d="M256.2,295.1c-21.6,0.1-39.2-17.4-39.2-39c0-21.5,17.6-39.1,39.1-39.1c21.4,0,38.8,17.4,39,38.8
			C295.2,277.3,277.7,295,256.2,295.1z M256.2,236.5c-10.5-0.1-19.7,9.1-19.7,19.6c0.1,10.3,9,19.3,19.3,19.4
			c10.5,0.1,19.7-9.1,19.7-19.6C275.4,245.7,266.5,236.7,256.2,236.5z"/>
		<path class="st2" d="M207.1,207.2c0,5.3-4.2,9.6-9.4,9.7c-5.5,0.1-10-4.3-10-9.7c0-5.3,4.2-9.6,9.5-9.7
			C202.6,197.4,207.1,201.7,207.1,207.2z"/>
	</g>
</g>
</svg>
