<?xml version="1.0" encoding="utf-8"?>
<!-- Generator: Adobe Illustrator 22.1.0, SVG Export Plug-In . SVG Version: 6.00 Build 0)  -->
<svg version="1.1" id="Layer_1" xmlns="http://www.w3.org/2000/svg" xmlns:xlink="http://www.w3.org/1999/xlink" x="0px" y="0px"
	 viewBox="0 0 512 512" style="enable-background:new 0 0 512 512;" xml:space="preserve">
<style type="text/css">
	.st0{fill-rule:evenodd;clip-rule:evenodd;fill:#E7E7E7;stroke:#ADADAD;stroke-miterlimit:10;}
	.st1{fill:#C8C8C8;}
</style>
<circle class="st0" cx="256" cy="256" r="250"/>
<g>
	<path class="st1" d="M262.7,123.9c3.2,0.7,6.4,1.2,9.5,2c27.5,7.6,44.6,25.3,51,53c6.2,27-7,56.9-30.6,71.4
		c-13.3,8.2-27.7,11.9-43.2,10.3c-29-2.9-52.7-23.5-59.8-51.8c-9.5-37.6,14.7-75.8,53.5-83.7c2.1-0.4,4.2-0.8,6.3-1.2
		C253.7,123.9,258.2,123.9,262.7,123.9z"/>
	<path class="st1" d="M255.6,388.1c-29.9-0.5-57.1-9.2-81.1-27.1c-14.1-10.5-25.9-23.3-35.1-38.3c-1.7-2.7-1.9-5.3-0.4-8.2
		c11.9-24.4,30.9-40,57.1-46.8c3-0.8,6-1.3,9.1-1.7c4-0.5,7,1.7,10.1,3.8c13.3,9,28,13,44,12.4c12.6-0.5,24.6-3.7,34.9-10.9
		c6.9-4.9,13.5-5.7,21.3-3.7c19.2,4.9,35.2,14.8,47.2,30.6c4,5.2,7,11.1,10.4,16.8c1.4,2.3,1,4.4-0.4,6.7
		c-13.4,21.7-31.1,38.8-53.6,50.7c-14.8,7.8-30.6,12.8-47.4,14.6C266.4,387.3,261,387.6,255.6,388.1z"/>
</g>
</svg>
