<?xml version="1.0" encoding="utf-8"?>
<!-- Generator: Adobe Illustrator 22.1.0, SVG Export Plug-In . SVG Version: 6.00 Build 0)  -->
<svg version="1.1" id="Layer_1" xmlns="http://www.w3.org/2000/svg" xmlns:xlink="http://www.w3.org/1999/xlink" x="0px" y="0px"
	 viewBox="0 0 512 512" style="enable-background:new 0 0 512 512;" xml:space="preserve">
<style type="text/css">
	.st0{fill:#ADADAD;}
</style>
<g>
	<path class="st0" d="M134,506c-4.1-0.9-8.2-1.8-12.2-2.8c-39.9-10.1-68.4-44.9-69.7-85.1c-1.4-41.7,24-78.4,63.9-90.9
		c9.8-3.1,20.4-4.2,30.7-4.5c22-0.7,43.9-0.2,65.9-0.2c1.8,0,3.5,0,5.7,0c0.2-1.6,0.4-2.8,0.4-4c0-14.3,0-28.7,0.1-43
		c0-2.5-0.2-4.2-3.1-5.1c-8.1-2.6-14-8.1-18.3-15.3C160.6,195,123.8,134.9,87.5,74.6c-14.4-24,1.8-51.8,29.9-52.1
		c5.9-0.1,11.7,0.2,17.6-0.1c1.6-0.1,3.7-1.2,4.6-2.5c7.7-11.3,18.2-15.7,31.6-13.3c12,2.2,23.2,6.2,32.4,14.7
		c8.9,8.2,8.8,19.6-0.2,27.7c-11,9.8-24.3,14.4-38.8,15.1c-12.5,0.6-23.8-8.1-27.7-20c-0.5-1.5-0.9-3.1-1.4-4.7
		c-7,0-13.9-0.6-20.6,0.1c-13.6,1.3-20,14.8-12.9,26.9c7.8,13.3,16,26.4,24,39.6c28.2,46.4,56.4,92.8,84.7,139.3
		c6,9.9,15.1,13.6,23.7,8.7c3.7-2.1,7-5.9,9.2-9.6c31.7-53.2,63.2-106.6,94.7-159.9c3.5-5.9,7.1-11.7,10.4-17.6
		c7.8-13.7,0-27.2-15.8-27.5c-0.5,0-1,0-1.5,0c-7.9-0.8-13.6-0.3-16.9,9.5C310.7,59.8,298,65.3,286,63.9c-13.5-1.6-26-5.9-36.2-15.4
		c-8.3-7.7-8.5-19-0.2-26.7c11.4-10.5,25.2-15.4,40.5-15.7c10.1-0.2,18.1,4.8,23.5,13.4c1.5,2.4,3.1,3.2,5.8,3.2
		c6.3-0.1,12.8-0.5,19,0.3c24.6,3.1,37.4,29,25.2,50.8c-7.5,13.5-15.6,26.6-23.5,39.9c-27.4,46.3-54.8,92.7-82.2,139
		c-4.9,8.2-10.9,14.9-20.3,18.1c-1.1,0.4-2.4,1.9-2.4,3c-0.2,16.1-0.1,32.2-0.1,48.5c1.8,0.1,3.2,0.3,4.6,0.3c27.7,0,55.3,0,83,0.1
		c3.4,0,4.8-0.9,5.4-4.4c5.7-31.4,34.3-54.6,66.1-53.9c33,0.7,60.2,24.5,64.9,56.5c5.2,35.7-18.9,69.9-53.5,75.6
		c-36.9,6.1-70.7-17-77.6-53.1c-0.4-2.3-0.7-4.2-4-4.2c-29,0.1-58,0.1-86.9,0.1c-0.5,0-0.9,0.2-2,0.5c0,1.8,0,3.7,0,5.6
		c-0.2,25.1,0.5,50.2-0.6,75.2c-1.9,42.7-35.6,78.6-77.9,84.4c-1.4,0.2-2.8,0.7-4.2,1C146.3,506,140.1,506,134,506z M218.2,339.6
		c-1-0.1-1.7-0.3-2.5-0.3c-24.2,0-48.5-0.6-72.7,0.2c-32.3,1-56.1,16.5-68.5,46.4c-12.2,29.5-6.9,57.3,15.2,80.3
		c21.7,22.6,48.8,29.2,78.3,18.8c30.2-10.6,47.9-33,49.9-65.2c1.6-25.8,0.6-51.7,0.7-77.6C218.6,341.3,218.3,340.6,218.2,339.6z
		 M343.7,330.9c-0.1,27.4,22.5,50.1,50,50.1c27.1,0,49.8-22.6,50-49.7c0.1-27.5-22.3-50.1-49.8-50.2
		C366.3,280.9,343.7,303.3,343.7,330.9z M288,22.6c-8.5,1-17.2,4.3-25.1,9.6c-3.6,2.4-2.2,4.6,0.6,6.3c7.6,4.8,15.8,8.3,24.9,9
		c7.1,0.6,13.5-5.3,13.5-12.3C301.9,28.4,296,22.6,288,22.6z M194.6,35.1c-10.3-7.9-20.3-12.7-32.1-12.3
		c-5.8,0.2-10.6,6.5-10.6,12.2c0,5.6,4.4,11.6,10,12.1C174,48,184.1,43,194.6,35.1z"/>
	<path class="st0" d="M360.4,330.9c0-18.4,14.9-33.2,33.2-33.2c18.3,0,33.3,15,33.3,33.2c0,18.1-15.3,33.3-33.4,33.3
		C375.3,364.3,360.4,349.2,360.4,330.9z M377,330.7c-0.1,9.3,7.4,16.9,16.6,16.9c8.9,0,16.5-7.5,16.7-16.5c0.1-9-7.2-16.6-16.2-16.8
		C384.6,314.2,377.1,321.4,377,330.7z"/>
</g>
</svg>
