<?xml version="1.0" encoding="utf-8"?>
<!-- Generator: Adobe Illustrator 22.1.0, SVG Export Plug-In . SVG Version: 6.00 Build 0)  -->
<svg version="1.1" id="Layer_1" xmlns="http://www.w3.org/2000/svg" xmlns:xlink="http://www.w3.org/1999/xlink" x="0px" y="0px"
	 viewBox="0 0 512 512" style="enable-background:new 0 0 512 512;" xml:space="preserve">
<style type="text/css">
	.st0{fill:#4BC1EA;}
	.st1{fill:#FFFFFF;}
	.st2{fill:#3762AE;}
</style>
<g>
	<path class="st0" d="M91.7,12.3h328.4c0,0,13.4-7.3,15.9,20.8s0,66.7,0,66.7l-21.6,41.9L390,153.9l-271.8-2l-34.9-26.9l-7-33.1
		V31.9l2.4-15.1L91.7,12.3z"/>
	<circle class="st1" cx="224.6" cy="82.7" r="11.4"/>
	<circle class="st1" cx="287.7" cy="83.7" r="18.4"/>
	<g>
		<path class="st2" d="M424.9,6c14.1,4.8,19.1,15,18.6,29.4c-0.6,18-0.1,36.1-0.1,54.2c0,20.3-6.9,37.8-21.3,52.3
			c-1.2,1.2-2.1,3.3-2.1,5c-0.1,61.3-0.2,122.7,0,184c0.1,24.6-2.4,48.7-11.8,71.7c-15.5,37.7-41.1,66.2-77.3,85.2
			c-19.7,10.3-40.6,16.3-62.9,17.7c-0.8,0.1-1.5,0.4-2.3,0.7c-6.5,0-13,0-19.5,0c-11.9-2.2-24.1-3.6-35.8-6.8
			c-28.1-7.6-52.1-22.5-72.2-43.4c-21.3-22-35.7-48-41.9-78c-2.7-12.8-4-26.1-4.1-39.2c-0.4-63.9-0.2-127.9-0.2-191.8
			c0-1.7-0.9-3.8-2.1-5c-14.5-14.4-21.3-31.9-21.3-52.3c0-18.1,0.4-36.1-0.1-54.2C68,21,72.9,10.8,87.1,6C199.7,6,312.3,6,424.9,6z
			 M255.9,20.7c-53.7,0-107.4,0-161.1,0c-8.9,0-11.6,2.7-11.6,11.7c0,18.7,0,37.4,0,56.1c0,34.7,23.5,58.3,58.1,58.3
			c76.5,0,152.9,0,229.4,0c3.7,0,7.5,0,11.2-0.7c27.8-4.9,46.6-27,46.8-55.3c0.2-19.4,0-38.7,0-58.1c0-9.5-2.6-12.1-12.3-12.1
			C363,20.7,309.5,20.7,255.9,20.7z M405.3,153.9c-11.6,5.6-23.1,7.7-35.1,7.7c-76.2-0.1-152.3,0.1-228.5-0.2c-9,0-17.9-2.5-26.8-4
			c-2.6-0.5-5-1.9-7.9-3.1c-0.1,1.8-0.2,3.1-0.2,4.3c0,60.7-0.2,121.4,0.2,182.1c0.1,11,1.3,22.1,3.5,32.9
			c5.5,27.2,18.3,51,37.5,71.1c25.2,26.4,56.1,41.8,92.4,45.8c29.9,3.3,58.4-2.1,84.9-16.3c32.5-17.3,55.7-43.2,69.6-77.4
			c8.5-21,10.7-43,10.6-65.5c-0.2-56.8-0.1-113.6-0.1-170.4C405.3,158.9,405.3,156.9,405.3,153.9z"/>
		<path class="st2" d="M286.8,114.5c-16.9-0.2-30.6-14.4-30.2-31.2c0.4-17,14.5-30.8,31.2-30.3c16.7,0.5,30.3,14.2,30.3,30.8
			C318.1,100.8,303.9,114.7,286.8,114.5z M287.5,99.8c8.9-0.1,16.1-7.3,16-16.2c-0.1-8.8-7.5-16.1-16.2-16
			c-8.9,0.1-15.9,7.4-15.9,16.3C271.4,92.9,278.5,99.9,287.5,99.8z"/>
		<path class="st2" d="M224.6,106.6c-12.6,0-22.9-10.3-22.9-22.9c0-12.6,10.4-23,23-22.9c12.6,0,22.8,10.3,22.8,23
			C247.5,96.6,237.4,106.7,224.6,106.6z M224.5,92c4.5,0.1,8.1-3.2,8.3-7.7c0.2-4.6-3.3-8.6-7.9-8.7c-4.4-0.2-8.4,3.8-8.4,8.3
			C216.5,88.2,220.1,91.8,224.5,92z"/>
		<path class="st2" d="M256.5,194.1c16.6,0,33.2-0.9,49.8,0.2c38.3,2.4,65.7,30.7,66.5,68.9c0.6,29.1,0.9,58.3-0.6,87.3
			c-2.1,39.4-21.3,70.1-54.6,90.7c-48.2,29.9-106.6,22-145.6-19.2c-22.5-23.7-32.8-52.6-32.9-85.2c-0.1-23.6-0.1-47.2,0-70.8
			c0.2-41.7,30.3-71.9,72.1-72.3c15.1-0.1,30.3,0,45.4,0C256.5,193.9,256.5,194,256.5,194.1z M256,208.7c0-0.1,0-0.1,0-0.2
			c-13.3,0-26.7-0.1-40,0.1c-5.8,0.1-11.8,0-17.5,1.2c-26.7,5.4-44.6,27.5-44.8,55.6c-0.2,24.1-0.3,48.2,0.1,72.2
			c0.1,8.6,1,17.3,2.9,25.6c12.6,55.1,64.7,89.7,118.6,79.3c45.7-8.8,80.1-47.1,82.3-93.3c1.4-28.7,1.2-57.6,0.5-86.4
			c-0.8-30.3-22.6-52.3-52.8-53.9C288.9,207.9,272.4,208.7,256,208.7z"/>
		<path class="st2" d="M255.9,233.1c25.4-0.1,46.8,21.3,46.5,46.5c-0.3,25.5-21,46.1-46.4,46.2c-25.3,0.1-46.8-21.4-46.5-46.6
			C209.9,253.8,230.6,233.2,255.9,233.1z M255.5,247.8c-17.6,0.5-31.6,14.9-31.2,32.1c0.4,17.5,14.9,31.7,32,31.4
			c17.7-0.4,32.1-15.2,31.4-32.4C287,261.1,272.7,247.3,255.5,247.8z"/>
	</g>
</g>
</svg>
