<?xml version="1.0" encoding="utf-8"?>
<!-- Generator: Adobe Illustrator 22.1.0, SVG Export Plug-In . SVG Version: 6.00 Build 0)  -->
<svg version="1.1" id="Layer_1" xmlns="http://www.w3.org/2000/svg" xmlns:xlink="http://www.w3.org/1999/xlink" x="0px" y="0px"
	 viewBox="0 0 512 512" style="enable-background:new 0 0 512 512;" xml:space="preserve">
<style type="text/css">
	.st0{fill:#4BC1EA;}
	.st1{fill:#3762AE;}
</style>
<g>
	<path class="st0" d="M142.1,276.7c0,0-7.3-58.2,0-71.3c7.3-13,41.5-50.5,57-56.2c15.5-5.7,23.6-3.3,23.6-3.3s25.7,39.9,33.2,39.9
		c7.5,0,93.7,24.5,93.7,24.5s35,42.2,22.8,58.4s-17.1,7.8-17.1,7.8H142.1z"/>
	<g>
		<path class="st1" d="M6,415c2.2-10.2,5.3-20.1,11.9-28.5c11.4-14.5,26.3-22.4,44.8-23.2c7.1-0.3,14.3,0,22.5,0
			c-15.7-20.2-19.8-41.8-8.7-64.6c11.1-22.6,30.4-32.9,55.7-33.3c-1.1-6-2.5-11.8-3.3-17.7c-4.2-30.7,3.5-57.8,25.5-80
			c14-14.1,31.3-23.1,49.7-29.9c4-1.5,8-2.9,12-3.9c6.4-1.7,11.6,0.7,12.8,7c5,25.5,23.4,35.8,46.1,40.8c19,4.2,38.3,7.4,57.3,11.8
			c17.7,4.1,33.4,12,43.3,28.3c7,11.5,8.9,24.3,8.5,37.5c-0.1,1.9,0,3.9,0,6.1c24.1,1.9,42.3,12.9,52.2,35.1
			c9.9,22.2,5.9,43.1-9.7,62.8c6.4,0,11.8,0.2,17.3,0c35.2-1.2,58.4,24.9,61.4,50c0.1,0.6,0.5,1.2,0.7,1.8c0,4.6,0,9.1,0,13.7
			c-0.2,0.6-0.7,1.2-0.7,1.8c-2.9,25-26.2,50.3-61.4,50.1c-125.3-0.4-250.6-0.2-375.8-0.2c-1.8,0-3.6,0-5.4-0.1
			c-18.5-0.9-33.4-8.7-44.8-23.2c-6.6-8.4-9.7-18.2-11.9-28.5C6,424.2,6,419.6,6,415z M255.5,460.9c62.5,0,125,0,187.5,0
			c1.8,0,3.6,0,5.4-0.1c30.5-1.7,47.7-32.9,32.3-59.1c-8-13.6-20.7-19-36.1-19c-125.6,0-251.3,0-376.9,0c-1.3,0-2.6,0-3.9,0.1
			c-27.4,1.5-44.5,26.9-35.5,52.6c5.5,15.7,20.3,25.5,38.9,25.5C129.9,461,192.7,460.9,255.5,460.9z M256.1,363.3c3.3,0,6.5,0,9.8,0
			c38.6,0,77.1,0.1,115.7,0c28.7-0.1,47.2-26.1,37.8-52.7c-5.5-15.6-20.3-25.3-39-25.3c-82.8,0-165.7,0-248.5,0
			c-1.3,0-2.6,0-3.9,0.1c-27.4,1.6-44.4,27-35.3,52.7c5.5,15.5,20.3,25.3,38.5,25.3C172.8,363.3,214.5,363.3,256.1,363.3z
			 M364.5,265.6c0-5,0.2-9.5,0-14c-0.7-17.5-9.4-29.5-25.7-35.4c-8.5-3.1-17.4-5.2-26.3-7.2c-17.9-4.1-36.1-6.9-53.7-11.8
			c-21.2-6-37.3-18.8-45.3-40.1c-0.2-0.6-0.7-1-1.3-1.8c-6.5,2.9-13,5.4-19.2,8.6c-15.2,7.8-28.3,18-36.7,33.2
			c-11.3,20.5-11,41.9-4.9,63.8c1.1,3.9,2.8,4.9,6.7,4.9c67-0.1,134-0.1,201-0.1C360.8,265.6,362.4,265.6,364.5,265.6z"/>
		<path class="st1" d="M94,90.8c-0.2,0.8-0.4,2.6-1.3,4.1c-3.7,6.7-2.9,13.4-0.9,20.3c2.2,7.8,4.6,15.5,6.1,23.5
			c1.4,7.9-0.7,15.5-4.6,22.5c-2.9,5.1-8,7-12.7,4.8c-5-2.3-7.2-7.7-4.6-13.1c3.5-7.3,2.9-14.3,0.6-21.7c-2.1-6.6-4.1-13.3-5.5-20.1
			c-1.8-9,0.4-17.4,4.7-25.3c2.4-4.4,6.9-6.3,11-5.1C91.2,81.8,93.9,85.3,94,90.8z"/>
		<path class="st1" d="M247.2,107.2c0.2-0.6,0.3-2.3,1.1-3.7c3.8-6.8,2.8-13.7,0.7-20.8c-2.2-7.5-4.5-14.9-5.9-22.5
			c-1.5-8.3,0.8-16.1,4.8-23.4c2.8-5.1,8-6.8,12.8-4.6c4.8,2.2,7.1,7.6,4.6,12.7c-4,7.9-3,15.6-0.5,23.6c2,6.5,4,13,5.3,19.7
			c1.7,8.8-0.6,17.1-5.1,24.7c-2.4,4-6.1,5.8-10.8,4.5C249.9,116.4,247.1,112.6,247.2,107.2z"/>
		<path class="st1" d="M442.7,142.5c-2.1,6.3-3.8,12.7-6.4,18.7c-2.3,5.2-8,6.9-12.7,4.6c-4.7-2.3-7.1-7.7-4.6-12.7
			c3.9-7.8,2.9-15.3,0.3-23.1c-3.3-9.8-7.2-19.7-5.1-30.3c1-4.9,2.7-9.7,4.8-14.1c2.5-5.2,8.1-6.7,12.8-4.4
			c4.7,2.3,6.9,7.8,4.3,12.9c-3.9,7.8-3,15.3-0.5,23.1C438.2,125.4,440.3,133.7,442.7,142.5z"/>
		<path class="st1" d="M161.3,319.3c-10.4,0-20.8,0.1-31.2,0c-8-0.1-12.7-6.9-9.8-13.5c1.8-4,5.1-5.9,9.3-5.9
			c21.1-0.1,42.3-0.1,63.4,0c6,0,10.2,4.4,10.2,9.7c0,5.3-4.2,9.6-10.2,9.7C182.4,319.5,171.8,319.3,161.3,319.3
			C161.3,319.3,161.3,319.3,161.3,319.3z"/>
		<path class="st1" d="M222.7,299.9c5.2,0.1,9.7,4.5,9.7,9.6c0.1,5.3-4.6,9.9-9.9,9.9c-5.5-0.1-9.8-4.6-9.6-10
			C213.1,304,217.5,299.8,222.7,299.9z"/>
	</g>
</g>
</svg>
