<?xml version="1.0" encoding="utf-8"?>
<!-- Generator: Adobe Illustrator 22.1.0, SVG Export Plug-In . SVG Version: 6.00 Build 0)  -->
<svg version="1.1" id="Layer_1" xmlns="http://www.w3.org/2000/svg" xmlns:xlink="http://www.w3.org/1999/xlink" x="0px" y="0px"
	 viewBox="0 0 512 512" style="enable-background:new 0 0 512 512;" xml:space="preserve">
<style type="text/css">
	.st0{fill:#4BC1EA;}
	.st1{fill:#3762AE;}
</style>
<g>
	<rect x="14.8" y="106.5" class="st0" width="89.1" height="80.6"/>
	<rect x="408.5" y="106.5" class="st0" width="89.1" height="80.6"/>
	<g>
		<path class="st1" d="M6,56.7c2.5-4,6.1-5,10.8-5c159.5,0.1,319,0.1,478.5,0.1c8.4,0,10.7,2.3,10.7,10.7c0,56.2,0,112.3,0,168.5
			c0,8.6-2.4,11.1-11.1,11c-19.3-0.4-38.3,0.6-56.6,7.9c-22.8,9.2-42,23.4-57.9,41.9c-31.7,37.1-47.7,80.7-53.2,128.7
			c-0.7,6.2-1.2,12.5-2,20.1c10.7-3.4,20.5-5.9,29.8-9.6c53.5-21.3,92.7-58,117.2-110.1c8-17,13-35,16.1-53.5
			c0.6-3.8,2.1-6.9,6.3-7.7c5.2-1.1,9.5,2.9,8.7,8.7c-1,6.9-2.3,13.8-4,20.6c-15.8,60.3-50.7,106.6-103.7,139.1
			c-20.1,12.3-41.8,21-64.8,26.3c-3,0.7-5.5,3-8.5,4c-2.4,0.8-5.1,1.1-7.7,1.1c-2.3,0-4.7-1.2-7-1c-34.4,2.8-68.9,2.8-103.3,0
			c-2.1-0.2-4.4,0.9-6.5,0.8c-2.7,0-5.6-0.3-8.2-1.1c-2.5-0.8-4.6-2.9-7.1-3.5c-49.3-11.1-90.3-36-123-74.3
			c-26.4-31-42.7-66.9-50-107c-0.8-4.6,1.6-8.4,5.7-9.4c3.8-0.9,7.6,1.4,8.8,5.8c2,7.7,3.4,15.6,5.6,23.2
			C41,332.4,62.1,365.8,93,392.8c26,22.8,56,38.2,89.7,46.2c0.8,0.2,1.6,0.3,2.4,0.4c0.3,0,0.6-0.2,1.8-0.7
			c-1.4-11.3-2.4-22.9-4.3-34.4c-5-29.6-14.6-57.6-30-83.5c-19.1-32.1-44.4-57.6-79.9-71.5c-14.3-5.6-29.2-7.8-44.5-7.5
			c-3.9,0.1-7.8-0.1-11.7,0c-4.6,0.2-8.3-1.3-10.5-5.5C6,176.5,6,116.6,6,56.7z M21.5,100.7c1.8,0,3.6,0,5.3,0c24.7,0,49.5,0,74.2,0
			c8,0,10.5,2.6,10.5,10.5c0,23.4,0,46.9,0,70.3c0,9-2.1,11.1-11.3,11.1c-24.2,0-48.5,0-72.7,0c-1.9,0-3.8,0-6,0
			c0,11.6,0,22.5,0,33.4c0.5,0.3,0.8,0.5,1.1,0.5c2.6,0.1,5.2,0.1,7.8,0.1c32.4,0.1,61.1,10.9,86.6,30.7
			c23,17.9,40.5,40.3,54.1,65.9c18.2,34.4,27.7,71.4,30.2,110.1c0.6,9.1,0.3,9.2,9.1,10.5c1.8,0.3,3.6,0.5,5.3,0.5
			c20.8,0.3,41.6,0.8,62.5,0.7c10.7-0.1,21.3-1.2,32.1-1.9c0.2-2.4,0.3-3.8,0.4-5.3c0.7-20.1,3.8-39.8,9-59.2
			c13.2-49.2,36.9-91.9,78.1-123.3c20.6-15.7,43.8-25.4,69.7-27.8c7.7-0.7,15.5-0.9,23-1.3c0-11.3,0-22.3,0-33.6c-2.2,0-4,0-5.7,0
			c-24.6,0-49.1,0-73.7,0c-8.2,0-10.5-2.3-10.5-10.4c0-23.4,0-46.9,0-70.3c0-8.9,2.3-11.2,11.3-11.2c24.4,0,48.8,0,73.2,0
			c1.9,0,3.7,0,5.6,0c0-11.7,0-22.5,0-33.7C334.1,67,178,67,21.5,67C21.5,78.2,21.5,89.1,21.5,100.7z M21.7,116.2
			c0,20.7,0,40.8,0,61.1c24.9,0,49.5,0,74.5,0c0-20.4,0-40.6,0-61.1C71.3,116.2,46.7,116.2,21.7,116.2z M490.1,177.4
			c0-20.7,0-41,0-61.1c-25,0-49.6,0-74.2,0c0,20.6,0,40.8,0,61.1C440.8,177.4,465.3,177.4,490.1,177.4z"/>
	</g>
</g>
</svg>
