<?xml version="1.0" encoding="utf-8"?>
<!-- Generator: Adobe Illustrator 22.1.0, SVG Export Plug-In . SVG Version: 6.00 Build 0)  -->
<svg version="1.1" id="Layer_1" xmlns="http://www.w3.org/2000/svg" xmlns:xlink="http://www.w3.org/1999/xlink" x="0px" y="0px"
	 viewBox="0 0 512 512" style="enable-background:new 0 0 512 512;" xml:space="preserve">
<style type="text/css">
	.st0{fill:#4BC1EA;}
	.st1{fill:#3762AE;}
</style>
<g>
	<path class="st0" d="M168.8,120.3c0,0,23.2-40.7,57.8-42.3c34.6-1.6,78.5,7.3,85,17.1c6.5,9.8,29.9,55.8,33,60.2
		c3.1,4.3,8.5,31.4,5.3,43.6c-3.3,12.2-13.4,44.4-19.1,52.5s-16.7,24.4-18.3,29.3c-1.6,4.9-6.5,15.1-6.5,15.1l-27.2-60.5l-2.9-5.8
		l0.8-55.3c0,0-19.9-33.4-38.7-39.9s-27.3-9.4-38.2-11.4S168.8,120.3,168.8,120.3z"/>
	<g>
		<path class="st1" d="M266,6c10.5,1.9,21.2,3.1,31.5,5.8C335.9,22,366.1,44,388.3,76.8c21.5,31.8,28.7,67.2,26.7,105.3
			c-2.6,50.1-21.7,93.5-51.4,133c-9.6,12.7-19,25.6-28.2,38.6c-15,21.1-26.1,44.1-33.2,69.1c-4.4,15.4-10.4,30.1-19,43.6
			c-15.9,24.8-38.9,37.6-68.2,39.4c-26.6,1.6-51-4.9-72.6-20.6c-2.2-1.6-4.4-4.7-4.7-7.3c-0.5-6,6.1-8.5,12.1-5.2
			c8.2,4.6,16.2,9.9,25,13c23.2,8.2,46.7,8.7,69.3-2.2c17.8-8.6,28.2-24.2,35.7-41.7c3.8-8.8,6.9-17.9,9.7-27.1
			c8.5-28.6,22.8-54.1,40.1-78.1c14.3-19.9,29-39.7,42.1-60.4c17.4-27.4,26-57.9,28.3-90.3c1.5-20.3,0.9-40.3-4.8-60
			c-10-34.7-30.2-62-60.4-81.8C306.4,25.6,275,18,241.3,21.6c-35.3,3.7-65.4,18.6-89.9,44.4c-27.4,28.9-39.9,63.7-39.8,103.3
			c0.1,74.7,0.1,149.4,0,224.1c0,19.5,4.3,37.7,14.7,54.3c3.2,5,2.6,9.1-1.3,11.6c-3.9,2.5-8,1.1-11.3-4.1
			C103,438,97.2,419.4,97.1,399.3C97,321,96.2,242.7,97.3,164.4c0.8-61.4,29.5-107.7,82.4-138.6c19.3-11.3,40.6-17.3,63-19
			c1.3-0.1,2.5-0.5,3.8-0.8C253,6,259.5,6,266,6z"/>
		<path class="st1" d="M183.8,112.5c10.2,1,20.6,0.9,30.5,3.1c29.6,6.6,53.2,21.7,65.7,50.6c8.9,20.5,7.3,41.6,1,62.5
			c-0.7,2.2-1.4,4.3-2.2,6.5c-1.8,4.6-5.5,6.6-9.6,5.1c-3.7-1.3-5.4-5-4.2-9.7c1.8-7.4,4.1-14.7,5.3-22.2
			c4.9-31.7-9.7-58.3-39.1-71.8c-17.2-7.9-34.9-11.2-53.6-6.6c-5.9,1.5-10.3,4.2-12.7,10.5c-4.2,10.9-6.4,22.1-7.1,33.7
			c-0.4,6.3-3.2,9.2-8,8.8c-4.5-0.4-6.9-3.9-6.6-9.7c2.5-43,22.8-74.6,61.5-93.6c53.9-26.3,121.6,0.8,143.2,56.9
			c1.6,4.2,3,8.6,4.2,13c1.4,4.9-0.4,8.5-4.5,9.8c-4.3,1.4-8-0.7-9.4-5.9c-3.8-13.8-10.2-26.2-19.4-37.3
			c-33.6-40.4-98.2-42.7-134.4-4.7C184.1,112,183.9,112.4,183.8,112.5z"/>
		<path class="st1" d="M219.1,391.8c-21.2-0.9-39-10.4-48.7-31.5c-10.3-22.2-7.6-43.3,8.5-62.3c9.8-11.5,11.7-21.9,5.6-32.5
			c-4.1-7.2-10.4-11.5-18.7-12.6c-1.6-0.2-3.2-0.4-4.8-0.8c-4.2-0.9-6.1-3.7-5.7-7.7c0.4-4.2,3.2-6.4,7.3-6.4
			c11.6,0.2,21.7,4.4,29.4,13.1c14,15.9,14.3,37.3,0.4,53.3c-8.1,9.4-13.5,19.4-13.3,32c0.4,16.7,10.7,32,25.6,37.7
			c16.9,6.5,34.4,3,45.8-10.7c7.3-8.8,13-19,19.2-28.7c12.7-19.7,25.2-39.5,38-59c11.3-17.2,21.6-34.9,26.8-55
			c2.6-9.9,3.8-20.1,5.6-30.1c0.3-1.8,0.3-3.6,0.7-5.3c1-4.8,3.8-7.1,8.1-6.6c4.1,0.4,6.5,3.5,6.2,8.4c-1,17.8-3.8,35.4-11.2,51.7
			c-6.8,14.9-14.5,29.5-23.2,43.3c-15.5,24.4-32.3,48-46.1,73.5c-5.2,9.6-12.2,18-20.9,24.9C244,388.3,233,391.8,219.1,391.8z"/>
	</g>
</g>
</svg>
