<?xml version="1.0" encoding="utf-8"?>
<!-- Generator: Adobe Illustrator 22.1.0, SVG Export Plug-In . SVG Version: 6.00 Build 0)  -->
<svg version="1.1" id="Layer_1" xmlns="http://www.w3.org/2000/svg" xmlns:xlink="http://www.w3.org/1999/xlink" x="0px" y="0px"
	 viewBox="0 0 512 512" style="enable-background:new 0 0 512 512;" xml:space="preserve">
<style type="text/css">
	.st0{fill:#4BC1EA;}
	.st1{fill:#3762AE;}
</style>
<g>
	<path class="st0" d="M154.7,449.6H359c0,0,2.7,30.9-8.8,37.4c-11.5,6.5-15.6,16.3-19.7,14.6c-4.1-1.6-155.4,0.2-155.4,0.2
		S148,472.4,154.7,449.6z"/>
	<polygon class="st0" points="231.3,102.8 278.5,102.8 278.5,32.1 263.6,13.4 240.3,16.6 231.3,35.3 	"/>
	<g>
		<path class="st1" d="M182.7,506c-9.4-1.9-18-5.4-24.7-12.6c-7.8-8.4-11.1-18.6-11.1-29.9c0-49.3-0.1-98.6,0.1-147.9
			c0.1-20.2,6.1-38.7,17.6-55.4c0.4-0.5,0.7-1.1,1.1-1.6c3-3.8,6.8-4.7,10.2-2.4c3.4,2.2,4.2,6.2,1.9,10.3
			c-3.4,6.4-6.9,12.8-10.4,19.3c-0.3,0.5-0.4,1.2-0.7,2.3c59.5,0,118.8,0,178.4,0c-3.6-11-9.2-20.8-17.5-28.5
			c-7.8-7.3-16.8-13.3-25.3-19.8c-1.4-1.1-2.9-2.1-4.4-3c-8.3-4.7-15.8-9.9-12.1-22c-8.9,0-16.8,0-24.7,0c-2.8,0-5.5,0.1-8.3-0.1
			c-5.1-0.4-8-3.2-7.9-7.5c0.1-4.3,3-7,8.2-7c12.9-0.1,25.7,0,38.6-0.1c1.8,0,4,0.3,5.2-0.5c1.9-1.3,4.5-3.8,4.3-5.5
			c-0.2-2-2.9-3.9-4.8-5.6c-0.7-0.6-2.2-0.2-3.3-0.3c-5.2-0.6-7.5-3-7.8-8.2c-0.2-2.4,0-4.8,0-7.5c-19.8,0-39.1,0-59,0
			c0,2.4,0.1,4.7,0,6.9c-0.3,5.8-2.5,8.1-8.3,8.9c-2,0.3-4.5,0.4-5.9,1.6c-1.3,1.2-2.5,4.2-1.9,5.4c1,2,3.4,4.1,5.5,4.6
			c9.8,2,10.5,2.6,10.5,12.6c0,18.2,1.3,14.6-13.1,24.6c-4.8,3.3-9.6,6.7-14.5,9.8c-4.4,2.8-8.9,2.2-11.2-1.4
			c-2.3-3.5-1.3-7.6,2.8-10.5c6.1-4.3,12.5-8.3,18.5-12.7c1.5-1.1,2.6-3.6,2.7-5.5c0-1.2-2-2.9-3.4-3.6
			c-8.1-3.9-12.7-10.2-12.7-19.2c0-9,4.7-15.3,12.9-19c1.1-0.5,2.2-1,4.3-2c-1.8-0.5-2.5-0.7-3.3-0.8c-8.3-0.7-10-2.5-10-10.9
			c0-14.3,0-28.6,0-43c0-15.3,6.9-22.2,22.4-22.5c1.1,0,2.2-0.1,3.9-0.2c0-2.1,0-4,0-5.9c0.6-19.7,0.6-39.4,2-59
			c1-14,14.1-24.7,28.2-24.7c14.1-0.1,27.3,10.6,28.3,24.5c1.4,19.5,1.4,39,2,58.5c0.1,2.1,0,4.2,0,6.8c2.7,0,4.9-0.1,7.2,0
			c10.8,0.4,18.7,7.6,19,18.4c0.4,16.6,0.2,33.2,0.1,49.8c0,5.4-2.8,7.8-8.3,8.1c-1.2,0.1-2.4,0.2-3.9,1.3c1.2,0.5,2.4,1.1,3.6,1.6
			c7.8,3.4,12.9,10.8,12.6,19.2c-0.3,8.8-4.6,15-12.5,18.8c-1.5,0.7-3.7,2.4-3.6,3.4c0.2,2.1,1.3,4.7,2.9,5.8
			c7.3,5.4,15.1,10.2,22.4,15.7c26.2,19.8,39.2,46.4,39.4,79c0.3,47-0.4,94.1,0.3,141.1c0.4,25.4-11.6,43.5-36,47.9
			C280.3,506,231.5,506,182.7,506z M350.3,443.3c0-2.3,0-4.1,0-5.9c0-39.5,0-79.1,0-118.6c0-3.1-0.6-6.2-0.3-9.3
			c0.5-5.6-2.2-6.5-7.2-6.4c-55.7,0.2-111.3,0.1-167,0.1c-14.3,0-14.3,0-14.3,14.6c0,40,0,80.1,0,120.1c0,1.7,0.1,3.5,0.2,5.3
			C224.7,443.3,287.1,443.3,350.3,443.3z M349.9,458.4c-62.8,0-125.4,0-187.9,0c-2.5,20.1,8.6,32.9,28.3,32.9c43.8,0,87.6,0,131.3,0
			C341.3,491.3,352.4,478.5,349.9,458.4z M270.3,95.7c0-20.7,0.1-40.9-0.1-61c0-2.9-1.5-6-3.2-8.5c-3.4-5-9.6-6.6-15.2-4.9
			c-6.5,2.1-10.1,7.1-10.3,14.9c-0.5,18.7-0.8,37.4-1.2,56.1c0,1.1,0.2,2.1,0.3,3.3C250.9,95.7,261,95.7,270.3,95.7z M248.2,157.2
			c0-15.8,0-31.1,0-46.5c-3.4,0-6.4,0-9.9,0c0,15.6,0,30.9,0,46.5C241.6,157.2,244.7,157.2,248.2,157.2z M263.6,110.7
			c0,15.8,0,31.1,0,46.6c3.5,0,6.7,0,9.8,0c0-15.7,0-31.1,0-46.6C269.9,110.7,267,110.7,263.6,110.7z M223,110.9
			c-7.8-0.9-9,0.1-9,7.4c0,6.3,0,12.7,0,19c0,6.6,0,13.2,0,19.9c3.3,0,6,0,9,0C223,141.7,223,126.4,223,110.9z M288.6,110.8
			c0,7.9,0,15.5,0,23.1c0,7.7,0,15.5,0,23.3c3.4,0,6.1,0,9.2,0c0-13.1,0-26,0-38.8C297.8,111,296.8,110.2,288.6,110.8z"/>
		<path class="st1" d="M297.9,364.3c-0.5,10.5-5,21-14.3,29.1c-2.5,2.1-3.3,4.2-3.5,7.4c-0.8,13.9-10.9,23.9-23.9,24.1
			c-12.3,0.1-22.6-9.2-24.1-21.7c-0.6-5,1.6-8.6,5.6-9.4c4.5-0.9,7.5,1.5,8.8,6.8c1.5,6.5,5.2,10,10.3,9.5c5.4-0.5,9.2-4.7,8.8-11.5
			c-0.5-7,1.9-11.6,7.7-15.8c10-7.2,12.8-21,7.8-32.1c-5-11.2-16.5-17.5-29.1-15.8c-11.8,1.6-21.3,11.1-23.1,23.2
			c-0.2,1.1-0.1,2.3-0.3,3.4c-0.6,4.9-3.8,7.9-7.8,7.6c-4.4-0.3-7-3.9-6.7-9.1c1.2-22.5,20.2-40.6,42.2-40.2
			C279.6,320.3,298,339.2,297.9,364.3z"/>
	</g>
</g>
</svg>
