<?xml version="1.0" encoding="utf-8"?>
<!-- Generator: Adobe Illustrator 22.1.0, SVG Export Plug-In . SVG Version: 6.00 Build 0)  -->
<svg version="1.1" id="Layer_1" xmlns="http://www.w3.org/2000/svg" xmlns:xlink="http://www.w3.org/1999/xlink" x="0px" y="0px"
	 viewBox="0 0 512 512" style="enable-background:new 0 0 512 512;" xml:space="preserve">
<style type="text/css">
	.st0{fill-rule:evenodd;clip-rule:evenodd;fill:#666766;}
</style>
<g>
	<path class="st0" d="M6,398.6c0-95.1,0-190.1,0-285.2c1.4-4.1,2.3-8.5,4.2-12.3c8-15.8,21.4-22.9,38.8-22.9c90.8,0,181.5,0,272.3,0
		c47.2,0,94.3,0,141.5,0c11.7,0,22.1,3.3,30.7,11.4c6.9,6.5,10.1,14.9,12.4,23.8c0,95.1,0,190.1,0,285.2c-1.4,4.1-2.3,8.5-4.2,12.3
		c-8,15.8-21.4,22.9-38.9,22.9c-91.3,0-182.5,0-273.8,0c-46.7,0-93.4,0-140.1,0c-11.7,0-22.1-3.3-30.7-11.4
		C11.5,415.8,8.2,407.5,6,398.6z M324.3,252c1.6,1.7,2.6,3,3.8,4.1c28.4,26.6,56.7,53.2,85.1,79.8c6.2,5.8,7.2,10,3.4,14.1
		c-3.7,4.1-8.3,3.4-14.3-2.2c-23.6-22.2-47.2-44.3-70.8-66.5c-6.5-6.1-13-12.2-19.7-18.4c-8.3,7.2-16.4,14.3-24.5,21.3
		c-7.6,6.6-16.1,10.8-26.2,11.8c-14.5,1.4-26.9-3-37.6-12.7c-7.7-6.9-15.6-13.6-23.4-20.4c-30.1,28.2-59.7,56.1-89.4,83.9
		c-1.5,1.4-3.1,2.9-4.8,4.2c-3.6,2.6-7.9,2.2-10.6-0.9c-2.8-3.2-3-6.8-0.4-10.2c1.1-1.4,2.4-2.6,3.7-3.8
		c28.4-26.6,56.7-53.2,85.1-79.8c1.3-1.2,2.7-2.2,4.5-3.6c-55.1-48.1-109.5-95.5-164.8-143.8c-0.6,4.7-1.3,8.2-1.3,11.6
		c-0.1,90.3-0.1,180.7,0,271c0,16.4,9.8,26.1,26.3,26.1c138.3,0.1,276.7,0.1,415-0.1c4.4,0,9.2-0.9,13.2-2.8
		c10.1-4.9,13.4-13.8,13.3-24.6c-0.1-40.5,0-81,0-121.6c0-48.7,0-97.3-0.1-146c0-4.2-0.8-8.4-1.3-13.7
		C433,157.3,378.7,204.6,324.3,252z M476.6,97.8c-0.1-0.6-0.1-1.1-0.2-1.7c-5.2-0.6-10.3-1.7-15.5-1.7c-116.3-0.1-232.7-0.1-349-0.1
		c-20.8,0-41.7-0.1-62.5,0.1c-4.7,0-9.3,1.2-15.3,2c2.5,2.3,3.6,3.5,4.8,4.5c65.2,56.9,130.4,113.8,195.7,170.7
		c13.5,11.8,29.1,11.7,42.7-0.1c57.4-50,114.8-100.1,172.2-150.1C458.6,113.6,467.6,105.7,476.6,97.8z"/>
</g>
</svg>
