<?xml version="1.0" encoding="utf-8"?>
<!-- Generator: Adobe Illustrator 22.1.0, SVG Export Plug-In . SVG Version: 6.00 Build 0)  -->
<svg version="1.1" id="Layer_1" xmlns="http://www.w3.org/2000/svg" xmlns:xlink="http://www.w3.org/1999/xlink" x="0px" y="0px"
	 viewBox="0 0 512 512" style="enable-background:new 0 0 512 512;" xml:space="preserve">
<style type="text/css">
	.st0{fill:#4BC1EA;}
	.st1{fill:#3762AE;}
</style>
<circle class="st0" cx="343" cy="212.5" r="17.7"/>
<circle class="st0" cx="169.1" cy="212.5" r="17.7"/>
<g>
	<path class="st1" d="M241.4,6c9.8,0,19.5,0,29.3,0c1.6,0.3,3.2,0.7,4.7,0.9c10.9,1.6,22,2.5,32.8,4.8c59.8,13,108.7,43.9,146,92.4
		c40.1,52.2,56.8,111.6,50.5,177c-5.1,52.8-25.6,99.5-60.7,139.4c-38.8,44-87.1,71.4-144.9,81.7c-9.4,1.7-18.9,2.6-28.4,3.9
		c-9.8,0-19.5,0-29.3,0c-3.5-0.4-7.1-0.8-10.6-1.2c-53.6-6-100.9-26.4-141.1-62.5C46.8,403.8,20,356,9.9,299
		c-1.7-9.4-2.6-18.9-3.9-28.4c0-9.8,0-19.5,0-29.3c0.4-3.5,0.8-7,1.2-10.6c5.9-52.7,25.7-99.4,60.9-139.3
		c38.8-44,87.1-71.3,144.9-81.6C222.4,8.2,231.9,7.3,241.4,6z M256,27.7C130.3,27.8,27.6,130.4,27.7,256
		c0,125.7,102.7,228.3,228.4,228.3c125.6,0,228.4-102.8,228.3-228.4C484.3,130.3,381.5,27.6,256,27.7z"/>
	<path class="st1" d="M255.8,375c-41.2-0.3-76.2-15.3-104.6-45.4c-4.8-5.1-5-11.7-0.5-16.1c4.3-4.2,10.4-3.8,15.8,0.7
		c8.5,7.2,16.6,15.2,25.9,21.3c40.9,26.9,99.4,23.7,137.5-7.1c5.9-4.8,11.2-10.3,17-15.3c3.7-3.2,8-3.5,12.2-1
		c4.2,2.5,6.1,6.4,5,11.2c-0.5,2.2-1.9,4.6-3.4,6.3c-23.3,24.9-51.8,39.8-85.5,44.6c-2.1,0.3-4.2,0.7-6.3,0.8
		C264.6,375,260.2,375,255.8,375z"/>
	<path class="st1" d="M136.6,212.5c0-17.9,14.8-32.7,32.6-32.6c17.7,0.1,32.2,14.6,32.3,32.4c0.1,17.9-14.5,32.7-32.3,32.8
		C151.4,245.2,136.6,230.4,136.6,212.5z M169.1,223.2c5.7,0,10.6-4.8,10.7-10.5c0.1-5.8-5-11-10.8-10.9c-5.7,0-10.6,4.8-10.7,10.6
		C158.2,218.3,163.1,223.2,169.1,223.2z"/>
	<path class="st1" d="M375.5,212.5c0,17.9-14.8,32.7-32.6,32.6c-17.9-0.1-32.5-14.9-32.3-32.8c0.1-17.8,14.6-32.2,32.3-32.4
		C360.6,179.8,375.5,194.6,375.5,212.5z M343.2,223.2c5.8-0.1,10.5-4.9,10.5-10.7c0-5.9-5.1-10.9-11-10.8
		c-5.7,0.1-10.5,5.1-10.6,10.7C332.2,218.4,337.3,223.3,343.2,223.2z"/>
</g>
</svg>
