<?xml version="1.0" encoding="utf-8"?>
<!-- Generator: Adobe Illustrator 22.1.0, SVG Export Plug-In . SVG Version: 6.00 Build 0)  -->
<svg version="1.1" id="Layer_1" xmlns="http://www.w3.org/2000/svg" xmlns:xlink="http://www.w3.org/1999/xlink" x="0px" y="0px"
	 viewBox="0 0 512 512" style="enable-background:new 0 0 512 512;" xml:space="preserve">
<style type="text/css">
	.st0{fill:#4BC1EA;}
	.st1{fill:#3762AE;}
</style>
<g>
	<circle class="st0" cx="169.1" cy="232.8" r="21.7"/>
	<circle class="st0" cx="344.9" cy="232.8" r="21.7"/>
	<g>
		<path class="st1" d="M506,241.3c0,9.8,0,19.5,0,29.3c-0.4,3.5-0.8,7-1.2,10.6c-5.9,52.7-25.7,99.4-60.9,139.3
			c-38.8,44-87.1,71.4-144.9,81.6c-9.4,1.7-18.9,2.6-28.4,3.9c-9.8,0-19.5,0-29.3,0c-3.5-0.4-7.1-0.8-10.6-1.2
			c-53.6-6-101-26.4-141.1-62.5C46.7,403.8,19.9,355.9,9.9,299c-1.7-9.4-2.6-18.9-3.9-28.4c0-9.8,0-19.5,0-29.3
			c0.3-1.7,0.7-3.5,0.9-5.2c1.6-10.8,2.5-21.7,4.8-32.3c13.1-60,44-109,92.8-146.3C156.5,17.6,215.8,1,281.1,7.3
			c53.9,5.2,101.3,26.4,141.6,62.6c42.7,38.5,69.4,86.2,79.5,143C503.8,222.3,504.7,231.9,506,241.3z M256,27.6
			C130.3,27.7,27.6,130.4,27.6,256c0,125.7,102.7,228.3,228.4,228.3c125.6,0,228.4-102.8,228.3-228.4
			C484.3,130.3,381.5,27.5,256,27.6z"/>
		<path class="st1" d="M262.1,310.5c35.2,0.8,70.2,15.7,98.6,45.8c4.8,5.1,5,11.7,0.6,16.1c-4.3,4.3-11.2,4.1-16-1
			c-13.8-14.5-29.7-25.9-48.8-32.1C250,324.1,208.4,333,172.1,366c-2.2,2-4.1,4.2-6.3,6.1c-5,4.3-11.2,4.3-15.3,0
			c-4.1-4.3-4.4-10.8,0.3-15.3c7-6.8,14-13.7,21.8-19.5C196.8,319.6,226.5,310.4,262.1,310.5z"/>
		<path class="st1" d="M136.6,234.3c-0.1-17.9,14.6-32.7,32.5-32.7c17.9,0,32.5,14.8,32.4,32.7c-0.1,17.8-14.5,32.3-32.2,32.4
			C151.3,266.9,136.6,252.3,136.6,234.3z M169,223.6c-5.8,0-10.6,4.7-10.7,10.5c-0.1,5.9,5,11,10.8,11c5.8,0,10.9-5.3,10.7-11.1
			C179.6,228.2,174.8,223.5,169,223.6z"/>
		<path class="st1" d="M375.4,234.1c0.1,17.9-14.5,32.6-32.5,32.6c-17.8,0-32.2-14.3-32.5-32.1c-0.2-18,14.1-32.6,32.2-33
			C360.4,201.3,375.3,216.1,375.4,234.1z M343.2,223.6c-6-0.1-11,4.8-11,10.7c0,5.6,5,10.6,10.6,10.8c5.8,0.2,11-5,11-10.8
			C353.7,228.4,349,223.7,343.2,223.6z"/>
		<path class="st1" d="M169.9,114.8c1.2,0.4,3.4,0.8,5.2,1.7c13.7,6.8,27.4,13.5,41,20.5c5.6,2.8,7.8,7,6.9,12.1
			c-0.8,4.9-3.8,8-8.6,8.7c-2.3,0.3-5,0-7-1c-14.2-6.9-28.3-13.9-42.3-21c-5.6-2.8-7.7-7.8-6.4-12.8
			C160,118.1,164.2,114.8,169.9,114.8z"/>
		<path class="st1" d="M300.6,158.1c-5.5,0-10-3-11.2-7.2c-1.4-4.6-0.6-8.7,3.2-11.9c1.2-1,2.7-1.9,4.1-2.6
			c13.1-6.6,26.1-13.2,39.2-19.6c2.5-1.2,5.6-1.9,8.3-1.8c4.7,0.2,7.7,3.2,8.9,7.7c1.2,4.3-0.1,8-3.5,10.9c-1.4,1.1-2.9,2.1-4.5,2.8
			c-12.9,6.5-25.8,13-38.8,19.3C304.3,157,301.9,157.6,300.6,158.1z"/>
	</g>
</g>
</svg>
