<?xml version="1.0" encoding="utf-8"?>
<!-- Generator: Adobe Illustrator 22.1.0, SVG Export Plug-In . SVG Version: 6.00 Build 0)  -->
<svg version="1.1" id="Layer_1" xmlns="http://www.w3.org/2000/svg" xmlns:xlink="http://www.w3.org/1999/xlink" x="0px" y="0px"
	 viewBox="0 0 512 512" style="enable-background:new 0 0 512 512;" xml:space="preserve">
<style type="text/css">
	.st0{fill:#4BC1EA;}
	.st1{fill:#3762AE;}
</style>
<g>
	<polygon class="st0" points="310.6,193 381.9,193 377.1,212.6 357.5,234 318.5,228.9 301.4,193 	"/>
	<polygon class="st0" points="138.4,193 209.8,193 204.9,212.6 185.4,234 146.3,228.9 129.2,193 	"/>
	<g>
		<path class="st1" d="M5.9,241.3c1.3-9.5,2.2-19,3.9-28.4c10-56.8,36.7-104.5,79.5-143C129.6,33.6,177,12.5,230.9,7.3
			C296.3,1,355.8,17.7,408,57.8c48.4,37.2,79.7,85.8,92.2,145.6c15.5,74.3,0.4,142.6-45.2,203.3c-37.1,49.3-86.5,80.5-146.9,93.6
			c-10.8,2.3-21.8,3.2-32.8,4.8c-1.6,0.2-3.2,0.6-4.7,0.9c-9.8,0-19.5,0-29.3,0c-3.5-0.4-7.1-0.8-10.6-1.2
			c-53.6-6-101-26.4-141.1-62.5C46.7,403.8,19.9,355.9,9.8,299c-1.7-9.4-2.6-18.9-3.9-28.4C5.9,260.9,5.9,251.1,5.9,241.3z
			 M484.3,256.3C484.8,130.9,382.2,28,256.3,27.6C130.9,27.2,28.1,129.7,27.6,255.7c-0.5,125.4,102,228.1,228.1,228.7
			C380.9,484.9,483.8,382.3,484.3,256.3z"/>
		<path class="st1" d="M365.6,365.6c-2.3,2.9-4,6.8-6.9,8.1c-2.9,1.3-7.1,0.7-10.5-0.1c-1.9-0.4-3.5-2.7-5.1-4.3
			c-36.9-36.9-86.8-47-135.2-27.2c-15.1,6.2-28.1,15.6-39.4,27.4c-2,2.1-4.3,4.1-6.9,5.2c-4.7,2-9.6,0.1-12.4-4.1
			c-2.8-4.1-2.8-9.6,1.2-13.4c7.6-7.3,15.2-14.8,23.8-20.9c27.5-19.4,58.5-27.9,92.1-25.4c37.6,2.8,69.3,18.4,95,46.1
			C363.1,359,363.9,362,365.6,365.6z"/>
		<path class="st1" d="M170.7,245.1c-30.6,0.1-54.8-23.1-56-52.2c-0.3-7.1,3.6-12.1,9.9-12.9c5.8-0.7,10.9,3.4,11.6,10.5
			c1,10.3,4.3,19.3,12.8,25.8c10.2,7.8,21.5,9.2,33.1,4.2c11.4-5,17.9-14.1,19.3-26.7c0.1-1.3,0.3-2.6,0.5-3.9
			c1.3-6.6,6.1-10.6,11.7-9.8c6,0.8,9.7,5.4,9.7,12c-0.1,24.9-19.9,48.2-44.4,52.1C175.7,244.7,172.4,244.9,170.7,245.1z"/>
		<path class="st1" d="M343,245.3c-28.4-0.1-52-22.1-54.2-50.6c-0.7-8.7,2.8-14,9.7-14.7c6.5-0.7,11.3,4.3,12,13
			c0.8,9.8,5,17.8,12.8,23.6c9.9,7.4,21,8.8,32.2,4c11.4-4.9,18.1-13.9,19.5-26.5c0.2-1.4,0.4-2.9,0.6-4.3
			c1.2-6.3,5.8-10.3,11.3-9.8c6.1,0.5,10.2,5.4,10.2,12.2c0,24.9-20.4,48.5-45,52.1C349.2,244.7,346.1,245,343,245.3z"/>
	</g>
</g>
</svg>
