<?xml version="1.0" encoding="utf-8"?>
<!-- Generator: Adobe Illustrator 22.1.0, SVG Export Plug-In . SVG Version: 6.00 Build 0)  -->
<svg version="1.1" id="Layer_1" xmlns="http://www.w3.org/2000/svg" xmlns:xlink="http://www.w3.org/1999/xlink" x="0px" y="0px"
	 viewBox="0 0 512 512" style="enable-background:new 0 0 512 512;" xml:space="preserve">
<style type="text/css">
	.st0{fill:#4BC1EA;}
	.st1{fill:#3762AE;}
</style>
<g>
	<circle class="st0" cx="342.9" cy="212.5" r="21.7"/>
	<circle class="st0" cx="169.6" cy="212.5" r="21.7"/>
	<g>
		<path class="st1" d="M241.3,506c-9.5-1.3-19-2.2-28.4-3.9c-57.6-10.3-105.9-37.5-144.6-81.3c-35.3-39.9-55.9-86.7-61-139.7
			c-6.3-65.4,10.4-124.8,50.6-177c37.2-48.3,85.8-79.7,145.6-92.1c74.7-15.6,143.2-0.3,204,45.8c48.9,37,79.7,86.2,92.8,146.2
			c2.3,10.6,3.2,21.5,4.8,32.3c0.3,1.7,0.6,3.5,0.9,5.2c0,9.8,0,19.5,0,29.3c-0.4,3.5-0.8,7-1.2,10.6
			c-5.9,52.7-25.7,99.4-60.9,139.3c-38.7,44-87.1,71.3-144.8,81.6c-9.4,1.7-18.9,2.6-28.4,3.9C260.9,506,251.1,506,241.3,506z
			 M256.2,27.7C130.8,27.4,28,129.9,27.7,255.8c-0.4,125.4,102.1,228.1,228.1,228.5c125.3,0.4,228.2-102.2,228.5-228.1
			C484.6,130.9,382,28,256.2,27.7z"/>
		<path class="st1" d="M256.2,310.5c34.5,0,69,0,103.4,0c1.8,0,3.6,0,5.4,0.1c6,0.5,9.9,4.3,10.3,9.8c0.4,5.9-2.9,10.2-9,11.4
			c-1.4,0.3-2.9,0.4-4.4,0.4c-70.6,0-141.2,0-211.7,0c-8.7,0-13.7-4.2-13.5-11.2c0.1-5.1,3.7-9.3,8.8-10.1c2.1-0.3,4.2-0.3,6.3-0.3
			C186.6,310.5,221.4,310.5,256.2,310.5z"/>
		<path class="st1" d="M136.6,212.5c0-17.9,14.9-32.7,32.6-32.5c17.7,0.2,32.2,14.6,32.3,32.4c0.1,17.9-14.5,32.7-32.4,32.8
			C151.3,245.2,136.5,230.4,136.6,212.5z M168.4,223.2c6,0.4,11.1-4.3,11.4-10.3c0.2-5.6-4.4-10.7-10.1-11.1
			c-5.7-0.4-10.8,4.1-11.3,9.8C157.8,217.7,162.4,222.8,168.4,223.2z"/>
		<path class="st1" d="M375.4,212.6c0,17.9-14.8,32.7-32.6,32.6c-17.9-0.1-32.5-14.9-32.3-32.9c0.1-17.8,14.6-32.2,32.3-32.3
			C360.6,179.9,375.4,194.7,375.4,212.6z M343.1,223.2c5.8-0.1,10.5-4.9,10.6-10.6c0-5.9-5.1-10.9-10.9-10.8
			c-5.7,0.1-10.5,5-10.6,10.7C332.1,218.4,337.2,223.4,343.1,223.2z"/>
	</g>
</g>
</svg>
