<?xml version="1.0" encoding="utf-8"?>
<!-- Generator: Adobe Illustrator 22.1.0, SVG Export Plug-In . SVG Version: 6.00 Build 0)  -->
<svg version="1.1" id="Layer_1" xmlns="http://www.w3.org/2000/svg" xmlns:xlink="http://www.w3.org/1999/xlink" x="0px" y="0px"
	 viewBox="0 0 512 512" style="enable-background:new 0 0 512 512;" xml:space="preserve">
<style type="text/css">
	.st0{fill:#4BC1EA;}
	.st1{fill:#FFFFFF;}
	.st2{fill:#3762AE;}
</style>
<g>
	<circle class="st0" cx="254.8" cy="303.6" r="69.6"/>
	<circle class="st1" cx="254.8" cy="303.6" r="22"/>
	<g>
		<path class="st2" d="M6,309.9c44.6-51.3,97.3-91.2,161.3-115.2c61.3-23,122.5-21.8,183.3,2.2c49.5,19.5,92.2,49.1,130.2,86
			c7.3,7.1,14.3,14.7,21.3,22.2c5,5.4,5.1,11.1,0.7,15.1c-4.3,3.9-10.1,3.2-15-1.9c-1.6-1.6-3.1-3.4-4.8-5.3
			C426.8,390,351.2,431.5,256.1,431.5c-94.9,0-170.5-41.3-226.6-117.8c-3.7,2.8-7.2,6.6-11.6,8.6c-4.5,2.1-8.1-0.5-12-6.5
			C6,313.9,6,311.9,6,309.9z M43.7,298.1c41,66.7,127.4,119.1,223.2,113.9c85.4-4.6,152.7-42.9,201.8-113c-0.9-1.2-1.2-1.7-1.5-2
			c-40.3-38.6-85.3-69.8-138.7-87.4c-42.8-14-86-15.8-129.8-4.4c-30.3,7.9-58.4,20.9-84.9,37.4C88.5,258.4,65.4,277.1,43.7,298.1z"
			/>
		<path class="st2" d="M140.8,170.7c-3.6-2-6.5-3-8.4-4.9c-13.4-13.1-26.6-26.3-39.7-39.6c-4.8-4.8-4.9-10.7-0.8-14.7
			c4.1-4,9.9-3.7,14.7,1.1c13.2,13,26.3,26.2,39.4,39.3c3.2,3.2,5.2,7.3,2.8,11.4C147,166.2,143.7,168.1,140.8,170.7z"/>
		<path class="st2" d="M424.5,117.5c-2.1,3.7-3.2,6.7-5.2,8.7c-13,13.3-26.1,26.4-39.3,39.4c-4.8,4.8-10.7,5-14.7,0.9
			c-4-4.1-3.8-9.9,1-14.7c13-13.2,26.2-26.3,39.3-39.4c3.2-3.2,7.3-5.3,11.4-2.8C419.9,111.3,421.8,114.6,424.5,117.5z"/>
		<path class="st2" d="M265.8,120c0,8.9,0.1,17.9,0,26.8c-0.1,7.1-3.9,11.7-9.8,11.6c-5.8,0-9.7-4.6-9.7-11.7
			c-0.1-18.2-0.1-36.4,0-54.7c0-7.1,3.9-11.6,9.7-11.6c5.8,0,9.7,4.6,9.7,11.7C265.8,101.4,265.8,110.7,265.8,120z"/>
		<path class="st2" d="M334.2,305.1c0,40.7-32.1,75.3-72.5,77.9c-41.2,2.7-77.4-26.6-82.8-67.3c-0.5-3.5-0.8-7.1-0.8-10.7
			c0-6.4,3.9-10.7,9.5-10.8c5.7-0.1,9.8,3.9,9.9,10.4c0.3,13.6,4.3,25.9,12.7,36.6c15.9,20.5,43.9,27.9,68.1,18.1
			c23.9-9.7,39.2-35.1,36.3-60c-3.2-27-23.2-48-49.2-52c-10.4-1.6-20.4-0.4-30.2,3.1c-2.4,0.9-5,1.6-7.5,1.5
			c-4.4-0.2-7.9-3.9-8.4-8.2c-0.5-4.8,1.5-8.7,5.9-10.1c8.3-2.6,16.8-5.6,25.4-6.2C295.5,223.8,334.1,259.9,334.2,305.1z"/>
		<path class="st2" d="M285.3,304.9c0.1,15.9-13.1,29.3-29.1,29.5c-15.9,0.1-29.3-13.1-29.5-29.1c-0.1-15.9,13.1-29.3,29.1-29.5
			C271.8,275.7,285.1,288.9,285.3,304.9z M265.7,305.2c0.1-5.1-4.4-9.8-9.5-9.9c-5.1-0.1-9.8,4.4-9.9,9.5c-0.1,5.1,4.4,9.8,9.5,9.9
			C261,314.9,265.6,310.4,265.7,305.2z"/>
		<path class="st2" d="M197.3,256.3c5.1-0.1,9.8,4.4,9.9,9.5c0.1,5.1-4.4,9.8-9.5,9.9c-5.1,0.1-9.8-4.4-9.9-9.5
			C187.6,261.1,192.2,256.4,197.3,256.3z"/>
	</g>
</g>
</svg>
