<?xml version="1.0" encoding="utf-8"?>
<!-- Generator: Adobe Illustrator 22.1.0, SVG Export Plug-In . SVG Version: 6.00 Build 0)  -->
<svg version="1.1" id="Layer_1" xmlns="http://www.w3.org/2000/svg" xmlns:xlink="http://www.w3.org/1999/xlink" x="0px" y="0px"
	 viewBox="0 0 512 512" style="enable-background:new 0 0 512 512;" xml:space="preserve">
<style type="text/css">
	.st0{fill:#4BC1EA;}
	.st1{fill:#3762AE;}
</style>
<g>
	<path class="st0" d="M341,66.1l74.7,131.6c0,0,17.6,27.8,10.6,43.8c-6.9,16-35.7,49.6-35.7,49.6l-32,16l-57.6-10.5l-42.6-42.9
		l-2.6-40.8l31.9-60L341,66.1z"/>
	<g>
		<path class="st1" d="M341.4,44.8c21,35.6,41.5,70.3,62.1,105c6.1,10.3,12.1,20.6,18.3,30.8c7.1,11.6,12.5,23.8,14.8,37.4
			c0.3,1.9,1.4,3.9,2.7,5.2c25.1,23.7,46.3,50.5,64.2,80c1.9,3.1,1.8,5.3-0.1,8.3c-21,34.4-45.8,65.6-76.9,91.4
			c-36.9,30.6-78.4,51.8-125.9,60.1c-68.9,12-131.9-2.9-189.8-41.4c-43.1-28.6-75.9-67-102.5-110.9c-1.6-2.6-1.4-4.5,0.2-7
			c24-39.7,53.2-74.8,90.6-102.6c34.7-25.8,73.1-43.1,115.9-50.3c20.5-3.4,41-4,61.6-2.6c3.6,0.2,4.5-1.6,5.8-3.8
			c18.6-31.4,37.1-62.9,55.7-94.3C339,48.7,340,47.1,341.4,44.8z M435.4,248.3c-10,36.6-39.1,60.1-70.3,67.2c-1.4,0.3-3,3-3.2,4.8
			c-1.9,14.1-5.9,27.4-13.1,39.6c-35.9,60.9-114.3,72.4-166.3,24.5c-38.3-35.3-43.9-98-12.7-139.7c19-25.3,44.3-39.8,75.6-43.3
			c4.1-0.5,5.7-2,7.4-5.4c4.3-8.8,9.3-17.3,14.8-27.2c-12.7,0.6-24.5,0.8-36.1,1.9c-38.5,3.6-73.5,17.2-105.8,38.2
			c-38.1,24.8-68,57.7-92.6,95.7c-1.7,2.6-1,4.2,0.5,6.4c15.6,24.3,33.6,46.7,55,66.1c53.7,48.6,115.9,73.8,189.3,67.4
			c26.5-2.3,51.7-9.3,75.7-20.5c53.5-25,93.5-64.8,125-113.9c0.8-1.3,0.8-4,0-5.3c-3.2-5.4-6.5-10.7-10.3-15.6
			C457.9,275.7,447,262.6,435.4,248.3z M341.3,87.2c-4.7,7.8-8.9,15-13.1,22.1c-18.2,31-37.1,61.7-54.5,93.2
			c-11.2,20.2-9.2,41.3,3.2,60.7c19.4,30.3,60.7,41.7,95.3,27.4c36.5-15.1,57.4-56.7,32.6-95.7c-4.6-7.3-8.8-14.9-13.2-22.4
			C375.1,144.3,358.5,116.2,341.3,87.2z M339.8,318.1c-26.2-0.9-49.1-9.4-67.9-27.6c-19-18.4-27.6-40.9-26.5-67.2
			c-39.3,3.8-79.1,40.6-73.9,93c4.6,46,44.6,79.5,91.1,75.9C311.4,388.5,338.5,347.4,339.8,318.1z"/>
	</g>
</g>
</svg>
