<?xml version="1.0" encoding="utf-8"?>
<!-- Generator: Adobe Illustrator 22.1.0, SVG Export Plug-In . SVG Version: 6.00 Build 0)  -->
<svg version="1.1" id="Layer_1" xmlns="http://www.w3.org/2000/svg" xmlns:xlink="http://www.w3.org/1999/xlink" x="0px" y="0px"
	 viewBox="0 0 512 512" style="enable-background:new 0 0 512 512;" xml:space="preserve">
<style type="text/css">
	.st0{fill:#4BC1EA;}
	.st1{fill:#3762AE;}
	.st2{font-family:'MyriadPro-Regular';}
	.st3{font-size:14.6429px;}
</style>
<g>
	<polygon class="st0" points="59.5,410 100.6,455.2 59.5,495 29.4,495 10.3,469.4 21,449.1 	"/>
	<polygon class="st0" points="320.2,171.7 341,192.4 184.8,348.2 169,349.8 159.1,333.9 191.3,299.4 	"/>
	<path class="st0" d="M325.1,165.6l19.1,22.8l85-87.2c0,0-8.5-23.8-18.3-18.9C401.2,87,325.1,165.6,325.1,165.6z"/>
	<g>
		<path class="st1" d="M36.3,506c-8-2.7-15.8-5.9-21.4-12.7C2,477.5,3.4,456.8,18.7,441.4c20.4-20.6,40.8-41.1,61.5-61.4
			c8.5-8.4,11.8-17.9,10.3-29.9c-3.3-27.1,4.8-50.8,24.2-70.2c83-83.1,166-166.2,249.2-249.1c27-26.9,66.6-32.2,99.2-14
			c0.9,0.5,1.7,0.9,2.5,1.5c3.4,2.5,4.4,6.5,2.6,9.9c-1.9,3.4-5.7,4.5-9.8,2.8c-5.8-2.4-11.5-5.4-17.5-7.1
			c-23-6.5-43.8-1.4-62.1,13.5c-6.7,5.5-12.1,12.7-18.6,19.5c3.1,3.2,6.9,7.1,10.7,11c1.5,1.5,3.1,2.9,4.4,4.6
			c2.7,3.2,2.5,7.5-0.1,10.2c-2.7,2.7-7,2.9-10.1,0.1c-4.6-4.2-8.8-8.6-13.3-13c-0.9-0.9-1.9-1.7-2.5-2.3c-8.3,8.3-16.4,16.5-25,25
			c2.1,2.2,4.7,4.7,7.2,7.4c3.7,3.9,4,8.1,1,11.3c-3.3,3.4-7.4,3.3-11.5-0.8c-2.5-2.5-4.7-5.4-6.8-7.8c-9.1,9.1-17.3,17.4-26,26.1
			c4.5,4.3,9.3,8.9,14,13.6c4.2,4.2,4.7,8.7,1.5,11.9c-3.3,3.3-7.5,2.9-11.9-1.5c-4.7-4.7-9.3-9.5-13.6-14
			c-8.7,8.7-16.8,16.8-26.2,26.3c2.3,1.8,5.4,3.8,8,6.4c3.7,3.7,3.9,8.2,1,11.3c-3.2,3.4-7.3,3.1-11.6-0.8c-1.3-1.2-2.6-2.4-3.8-3.8
			c-1.2-1.4-2.1-2.9-2.9-4c-9,9-17.2,17.2-26,26.1c4.7,4.5,9.8,9.3,14.8,14.2c3.1,3.1,4.3,6.6,1.4,10.5c-3,4-7.6,4.1-11.8,0
			c-5-4.9-9.6-10.1-14.1-14.8c-8.8,8.8-17,17-25.5,25.5c2,2,4.5,4.6,7,7.3c3.9,4.1,4.1,8.4,0.8,11.6c-3.2,3.1-7.3,2.8-11.2-1.1
			c-2.5-2.5-4.8-5.3-6.9-7.6c-8.8,8.9-17.1,17.1-25.8,25.9c4.6,4.5,9.6,9.3,14.5,14.3c3.1,3.1,4.4,6.5,1.6,10.4
			c-2.8,3.9-7.5,4.2-11.4,0.4c-5.1-5-9.8-10.4-14.8-15.7c-21.6,18.1-33.4,39.5-30.3,67.4c0.1,0.8,0.5,1.6,0.3,2.4
			c-1.4,8.4,3.4,13.7,9,19c11.8,11.2,23,23,34.7,34.3c1.5,1.5,4.1,2.5,6.3,2.6c8.9,0.4,17.9,1.1,26.7,0.3
			c16.5-1.6,29.9-9.9,41.5-21.6c36.7-36.9,73.6-73.7,110.4-110.5c1.5-1.5,3-3.1,4.7-4.2c3.3-2.1,6.6-1.6,9.3,1.2
			c2.5,2.7,2.6,5.9,0.6,9c-0.9,1.3-2.1,2.5-3.2,3.6c-37.3,37.3-74.6,74.5-111.8,111.8c-18.5,18.5-40.5,27.6-66.8,25.9
			c-8.4-0.6-17-1.6-24.8,3c-4,2.4-7.9,5.1-11.3,8.4c-17.5,17.2-34.9,34.6-52.1,52.1c-8.6,8.7-17.1,17.3-29.5,20.5
			C44.8,506,40.5,506,36.3,506z M57.8,424c-10.5,10.3-21,20.4-31.3,30.9c-4.4,4.5-6,10.4-5.4,16.6c0.9,8.9,5.7,15.1,14,18.3
			c8.6,3.3,16.4,1.3,22.9-5c9.9-9.6,19.6-19.5,29.3-29.3c0.4-0.4,0.6-1.1,0.6-1.2C77.8,444.1,67.8,434.1,57.8,424z M91.7,389.8
			c10.3,10.4,20.4,20.6,30.5,30.7c4-2.9,8.4-6.1,12-8.8c-11.3-11.3-22.4-22.5-33.4-33.5C97.8,382,94.5,386.2,91.7,389.8z
			 M98.5,442.3c3.8-3.6,7.8-7.4,10.9-10.4c-9.8-9.8-19.8-19.9-29.9-30.1c-3.4,3.4-7.1,7.2-10.6,10.8C79.1,422.8,89.3,433,98.5,442.3
			z"/>
		<path class="st1" d="M505.8,97c-1.1,5.2-2,10.5-3.5,15.6c-4,13.8-11.2,25.9-21.4,36.1c-35.8,35.8-71.5,71.5-107.3,107.3
			c-3.1,3.1-6.3,5.4-10.7,2.8c-3.6-2.1-4.7-6.6-2.4-10.1c1.2-1.7,2.7-3.2,4.2-4.7c34.6-34.6,68.8-69.6,103.9-103.7
			c23.4-22.8,28.8-59.6,12.2-86.6c-3-4.8-2.2-9.3,1.6-11.6c3.9-2.4,8.2-0.7,11.3,4.3c6,10,9.9,20.8,11.2,32.4
			c0.1,0.9,0.6,1.8,0.9,2.7C505.8,86.6,505.8,91.8,505.8,97z"/>
		<path class="st1" d="M176.1,357.8c-8.9-0.2-15.7-4-19.6-12.1c-3.9-8.1-3.1-16.1,2.4-23.3c1.3-1.7,2.8-3.2,4.3-4.7
			C240.6,240.2,318,162.8,395.4,85.4c9.3-9.3,18.4-11.4,28.1-6.6c12.3,6.1,16,21.9,7.7,32.8c-1.4,1.8-3,3.4-4.6,5
			C349.1,194,271.7,271.4,194.3,348.9C189.2,354,183.8,358.1,176.1,357.8z M320.5,181.5c-1.4,1.3-2.6,2.4-3.7,3.5
			c-47.6,47.6-95.2,95.2-142.8,142.8c-5.6,5.6-6.4,9.7-2.7,13.2c3.6,3.4,7.4,2.6,12.9-2.9c47.6-47.6,95.2-95.2,142.8-142.8
			c1.2-1.2,2.4-2.5,3.5-3.7C327,188.1,324,185,320.5,181.5z M341.3,180.9c25.7-25.7,51.1-51.1,76.5-76.5c0.5-0.5,0.9-1,1.2-1.5
			c2.4-3.4,2.3-6.8-0.7-9.7c-2.8-2.7-6.2-2.7-9.3-0.3c-1.2,0.9-2.2,1.9-3.2,3c-23.8,23.8-47.6,47.5-71.3,71.3
			c-1.1,1.1-2.2,2.3-3,3.2C334.8,174,337.9,177.3,341.3,180.9z"/>
	</g>
	<text transform="matrix(1 0 0 1 232.7573 219.2427)" class="st2 st3">23b846</text>
	<g>
		<text transform="matrix(1 0 0 1 232.7573 219.2427)" class="st2 st3">23b846</text>
	</g>
</g>
</svg>
