<?xml version="1.0" encoding="utf-8"?>
<!-- Generator: Adobe Illustrator 22.1.0, SVG Export Plug-In . SVG Version: 6.00 Build 0)  -->
<svg version="1.1" id="Layer_1" xmlns="http://www.w3.org/2000/svg" xmlns:xlink="http://www.w3.org/1999/xlink" x="0px" y="0px"
	 viewBox="0 0 512 512" style="enable-background:new 0 0 512 512;" xml:space="preserve">
<style type="text/css">
	.st0{fill:#4BC1EA;}
	.st1{fill:#3762AE;}
</style>
<g>
	<path class="st0" d="M181.5,121c0,0,24.7-38.8,30.8-40c6.1-1.2,16.2-15.3,16.2-15.3V44.4l6.7-20.1c0,0,20.4-10.7,24.7-9.2
		c4.3,1.5,17.7,7,19.6,11.9s5.8,23.8,6.1,27.8c0.3,4,0,20.4,0,20.4L315.8,99l16.5,22l-15.6,2.7L181.5,121z"/>
	<g>
		<path class="st1" d="M261.8,6c8.6,2.6,16.7,5.9,22.8,13c9.5,11,12.1,23.5,8,37.3c-2.8,9.7-2.4,11.1,6.2,16.1
			c15.8,9.2,27.5,22.2,35,38.9c1.4,3.2,3,4.2,6.5,4.2c15.4,0.1,24.7,9.6,24.9,25.1c0.1,7.8-0.2,15.6,0.1,23.4
			c0.5,11.8-2.8,21.5-15.1,27.4c3.4,3.2,6.3,5.9,9.2,8.7c14.2,14.1,21.4,31.3,21.4,51.2c0.1,66.4,0.2,132.8,0,199.2
			c-0.1,31.9-23.9,55.2-55.9,55.3c-45.9,0.1-91.8,0.1-137.7,0c-32.2,0-55.9-23.5-56-55.7c-0.2-66.1-0.1-132.1,0-198.2
			c0-20.2,7-37.5,21.4-51.7c2.9-2.8,5.8-5.6,9.1-8.8c-12.3-5.9-15.4-15.8-14.9-27.8c0.3-7.8,0-15.6,0.1-23.4
			c0.2-15.2,9.6-24.6,24.8-24.7c3.4,0,5-1.1,6.5-4.2c7.6-17,19.7-30.1,35.8-39.4c7.2-4.1,8.5-6.5,5.9-13.7
			c-8.5-23.7,6.9-48.3,30-51.6c0.4-0.1,0.8-0.5,1.2-0.7C254.7,6,258.3,6,261.8,6z M145.9,427.8c0,8.4-0.3,16.1,0.1,23.7
			c1.3,24.1,17.7,39.8,41.7,39.8c45.6,0.1,91.1,0.1,136.7,0c24.5,0,41.7-16.8,41.7-41.3c0.2-66.2,0.1-132.5,0-198.7
			c0-15.3-5.3-28.6-16.1-39.6c-5.5-5.6-10.9-11.2-16.6-16.5c-1.4-1.3-3.6-2.3-5.5-2.3c-47.8-0.1-95.7-0.1-143.5,0
			c-1.8,0-4,0.7-5.2,1.8c-6.8,6.5-13.7,13.1-19.9,20.1c-10.3,11.7-14,25.6-13.2,41.6c3.9,0,7.5,0,11,0c7,0,14-0.1,21,0.2
			c4.1,0.2,6.6,2.6,6.8,6.8c0.2,4.1-2.3,6.8-6.8,7.4c-2.1,0.3-4.2,0.2-6.3,0.2c-8.4,0-16.9,0-25.6,0c0,8.3,0,16,0,24.5
			c5.3,0,10.4-0.2,15.6,0.1c5.2,0.2,8.1,3.6,7.4,8.2c-0.7,4.9-4.3,6.2-8.5,6.3c-4.8,0.1-9.6,0-14.5,0c0,8.6,0,16.3,0,24.5
			c10.1,0,19.8,0,29.5,0c6.1,0,9.1,2.4,9.2,7.1c0.1,4.8-3.1,7.4-9.3,7.6c-1.1,0-2.3,0-3.4,0c-8.6,0-17.2,0-25.9,0
			c0,8.4,0,16.3,0,24.5c5.4,0,10.5-0.1,15.5,0c4.5,0.2,7.2,2.8,7.5,6.8c0.2,4.5-2.7,7.6-8,7.8c-5,0.2-9.9,0-15,0
			c0,8.5,0,16.2,0,24.5c2,0,3.8,0,5.5,0c8.6,0,17.3-0.1,25.9,0.1c4.4,0.1,7.2,2.9,7.3,6.9c0.1,4-2.4,6.9-6.7,7.5
			c-1.8,0.2-3.6,0.1-5.4,0.1C164,427.8,155.2,427.8,145.9,427.8z M256.1,178.1c27.6,0,55.3,0,82.9,0c8.7,0,11.5-2.8,11.5-11.3
			c0-8.5,0.1-16.9,0-25.4c-0.1-8.2-3-11.3-11.1-11.3c-55.6,0-111.2,0-166.8,0c-7.9,0-10.9,3.1-11,10.9c-0.1,8.3,0,16.6,0,24.9
			c0,9.6,2.5,12.1,12.1,12.1C201.1,178.1,228.6,178.1,256.1,178.1z M319.7,115.3c-2.7-4.2-4.8-7.9-7.4-11.4
			c-6.6-9.2-15.6-15.5-25.1-21.3c-8.6-5.2-12.4-14.2-10.5-23.8c0.6-2.9,1.6-5.6,2.3-8.4c2.7-11.1-2.3-21.9-12.4-27.1
			c-9.7-4.9-21.6-2.6-28.8,5.9c-6.5,7.7-7,16.3-3.8,25.6c4.1,12.1,0.5,21.7-10.3,28.5c-2.6,1.6-5.3,3.2-7.9,4.9
			c-10,7-17.9,15.8-23.3,27.2C235,115.3,276.9,115.3,319.7,115.3z"/>
		<path class="st1" d="M334.8,330.2c0-15.6,0-31.2,0-46.8c0-1.8-0.1-3.6,0.3-5.3c0.7-3.4,2.9-5.4,6.4-5.6c3.5-0.2,6.1,1.2,7.2,4.6
			c0.6,2,0.7,4.2,0.7,6.2c0,31.4,0,62.8,0,94.1c0,1.1,0.1,2.3-0.1,3.4c-0.5,4.6-3.4,7.7-7.3,7.7c-4.2,0-7.2-3.1-7.2-8.1
			C334.8,363.6,334.9,346.9,334.8,330.2C334.9,330.2,334.8,330.2,334.8,330.2z"/>
		<path class="st1" d="M349.3,250c0,4.1-2.7,7.4-6.4,7.8c-3.8,0.4-7.3-2.1-7.8-6.3c-0.7-7-3-13.1-7.7-18.5c-2.8-3.3-2.1-7.5,0.8-10
			c3.1-2.6,7.3-2.3,10.4,1.1C345.5,231.4,349.1,240,349.3,250z"/>
		<path class="st1" d="M259.7,161.5c-8.6,0-17.2,0.1-25.8,0c-5.5-0.1-8.5-2.7-8.5-7.2c0-4.4,3-7.3,8.5-7.4c17.4-0.1,34.7-0.1,52.1,0
			c5.4,0,8.5,3,8.6,7.3c0,4.5-3.2,7.2-9,7.3C276.9,161.5,268.3,161.5,259.7,161.5z"/>
		<path class="st1" d="M322.2,161.6c-1.6-0.1-3.3,0-4.9-0.3c-3.4-0.6-5.5-2.7-5.8-6.2c-0.4-3.7,1.1-6.7,4.8-7.4
			c3.6-0.7,7.4-0.7,11.1-0.4c4.1,0.4,6.4,3.3,6.2,7.4c-0.2,4.1-2.7,6.5-6.9,6.8c-1.5,0.1-2.9,0-4.4,0
			C322.3,161.5,322.2,161.5,322.2,161.6z"/>
	</g>
</g>
</svg>
