<?xml version="1.0" encoding="utf-8"?>
<!-- Generator: Adobe Illustrator 22.1.0, SVG Export Plug-In . SVG Version: 6.00 Build 0)  -->
<svg version="1.1" id="Layer_1" xmlns="http://www.w3.org/2000/svg" xmlns:xlink="http://www.w3.org/1999/xlink" x="0px" y="0px"
	 viewBox="0 0 512 512" style="enable-background:new 0 0 512 512;" xml:space="preserve">
<style type="text/css">
	.st0{fill:#4BC1EA;}
	.st1{fill:#3762AE;}
</style>
<g>
	<path class="st0" d="M285.1,291.3l61.4-2l8.5-13.8l-6.9-19.4l6.9-25.7l17.3-15.1l27.9-2l18.3,9.6l13.4,22.6l-5.3,21.2l-2.4,16.3
		l4.5,5.7l24.4-0.8l44.3,3.7v30.5v145.7c0,0,4.5,35.8-33,32.1c-46.4,0.4-177.4,0.3-177.4,0.3l-9.3-15.3l3.2-51.7
		c0,0,6.9-6.9,14.2-5.3c7.3,1.6,30.5,0.8,37.4-6.9s24-32.6,9.4-52.1c-14.6-19.5-38.4-15.1-50.5-17.7c-12.1-2.6-10.9-14-10.9-14
		L285.1,291.3z"/>
	<g>
		<path class="st1" d="M43.1,6c125.3,0,250.6,0,376,0c0.3,0.2,0.5,0.5,0.8,0.5c21,3,36.6,20.4,36.2,44.8
			c-0.3,20.6-0.1,41.3-0.1,61.9c0,35.8,0,71.5,0,107.3c0,11.5-5.9,17.8-17.3,18.8c-0.6,0.1-1.3,0.2-2.2,0.4
			c4.7,14.1,3.2,27.6-3.7,41.3c2.6,0,4.3,0,6,0c15.4,0,30.9,0.4,46.3,0c10.2-0.3,17.2,3.5,20.8,13.1c0,58.3,0,116.5,0,174.8
			c-1.4,4.5-2.3,9.2-4.3,13.3c-8.1,16.1-21.6,23.7-39.4,23.7c-44.4,0.1-88.8,0-133.3,0c-13,0-26,0.1-39.1,0
			c-9.6-0.1-16.9-6.6-17.1-15.8c-0.3-18.1-0.4-36.1,0-54.2c0.2-10.7,9.9-17.7,20.3-15.6c1.7,0.4,3.5,0.9,5.2,1.3
			c13.2,2.5,24.8-0.9,33.3-11.4c8.5-10.4,10.2-22.5,4.4-34.8c-6-12.6-16.4-19-30.3-19.3c-4.1-0.1-7.3,1.3-10.1,4.7
			c-13.3,16.7-30.5,23-51.5,18.5c-1.4-0.3-2.8-0.5-4.7-0.8c0,2.2,0,4,0,5.7c-0.1,15.1,0,30.3-0.2,45.4c-0.1,11-6.8,17.7-17.7,17.8
			c-57.8,0.1-115.5,0.2-173.3-0.1c-24.7-0.1-42.3-18-42.3-42.8C6,286,6,167.4,6,48.8c0-11.7,4-22,12.2-30.4C25.1,11.3,33.8,8,43.1,6
			z M22.6,239.4c0,2.1,0,3.6,0,5c0,52.9,0,105.8,0,158.7c0,17.8,10.1,27.8,27.8,27.9c55.7,0,111.3,0,167,0c1.7,0,3.4-0.1,5.3-0.2
			c0-2.4,0-4.1,0-5.9c0-15.5-0.1-30.9,0.1-46.4c0.1-11.2,9.6-18.5,20.5-16.2c2.4,0.5,4.7,1.2,7.1,1.6c10.4,1.6,19.4-1.1,27.4-7.9
			c-4.8-7.1-5.2-8.2-5.2-16.4c0-10.1,0-20.2,0-30.3c0-7.9-0.4-9.2-8.2-10.1c-6.6-0.7-13.6-0.4-20.2,0.7
			c-12.4,2.1-21.4-4.8-21.6-17.3c-0.1-6.2,0-12.4,0-18.6c0-8.1,0-16.2,0-24.7c-2.3,0-4.1,0-5.8,0c-16.4,0-32.9,0.1-49.3,0
			c-14.4-0.1-21.8-11.6-16.2-24.7c0.6-1.3,1.2-2.7,1.7-4c5.4-13.1,2.3-28.2-7.7-37.2c-10.8-9.8-26-11.7-38.5-5
			c-12.6,6.8-19.5,20.4-16.9,34.9c0.8,4.5,3,8.8,4.7,13.2c4.2,11.5-2.7,22.2-14.9,22.9c-2.1,0.1-4.2,0-6.3,0
			C56.7,239.4,40,239.4,22.6,239.4z M489.4,297.7c-2.3,0-4.1,0-5.8,0c-16.3,0-32.5,0.1-48.8,0c-9.7,0-16.1-4.5-18.2-12.4
			c-1.4-5.4,0.4-10.2,2.7-15c7.5-15.7,2.3-33-12.6-42.6c-13.7-8.8-32.1-5.9-42.7,7c-9.1,11.2-10.6,23.8-4,36.5
			c6.4,12.1,0.6,27.4-17.6,26.6c-11.9-0.5-23.8-0.1-35.6-0.1c-5.7,0-11.3,0-17.2,0c0,15.3,0,30.2,0,45.1
			c23.4-7.7,42.7-1.5,56.8,17.6c12.6,17.1,13.4,36.4,2.2,54.5c-13.4,21.8-33.8,28-58.7,22c0,17.6,0,34.8,0,52.4c1.7,0,3.1,0,4.6,0
			c55.7,0,111.3,0,167,0c17.9,0,28-10.2,28-28.3c0-52.6,0-105.1,0-157.7C489.4,301.8,489.4,300.2,489.4,297.7z M222.7,22.6
			c-2.1,0-3.4,0-4.7,0c-56,0-111.9,0-167.9,0c-17.3,0-27.5,10.4-27.5,27.8c0,55.6,0,111.3,0,166.9c0,1.7,0,3.4,0,5.1
			c19.3,0,37.8,0,56.5,0c-11.5-24.4-8.1-46.2,12.3-63.5c16.4-14,39.5-15.5,56.9-3.9c25.5,16.9,29.8,40.3,18,67.5
			c18.8,0,37.3,0,56.3,0c0-2.1,0-3.8,0-5.6c0-15.6-0.1-31.2,0.1-46.9c0.1-11.2,9.5-18.6,20.5-16.3c1.9,0.4,3.8,0.9,5.7,1.4
			c15.2,3.4,31-4.6,37.4-19c6.5-14.5,2-31.3-10.9-40.4c-9.6-6.8-20.1-7.4-31.2-4.6c-12.1,3-21.4-4.4-21.5-16.9
			c-0.1-15.3,0-30.6,0-45.9C222.7,26.7,222.7,24.9,222.7,22.6z M239.7,22.6c0,17.9,0,35.1,0,52.5c35.5-10.2,62.8,14.2,66,41.5
			c1.7,14.8-2.6,28.1-12.6,39.2c-14.5,16-32.7,19.8-53.3,14.4c0,17.8,0,35,0,52.2c18.8,0,37.4,0,56.2,0
			c-10.6-21.5-8.8-41.6,7.3-58.9c14.1-15.1,32.2-19.8,51.7-13.1c25.9,9,35.7,28.9,34,55.6c12.4,0.3,23.8,3.5,32.3,12
			c5.6,5.6,11.3,4.8,18.2,4.5c0-2.1,0-3.8,0-5.6c0-55.2,0-110.3,0-165.5c0-18.9-10-28.8-29-28.8c-55,0-110,0-165,0
			C243.7,22.6,241.9,22.6,239.7,22.6z M346,281c-0.5-1.4-0.7-2-1-2.6c-12.5-26.1-3.4-53.3,22.3-67.2c1.6-0.9,3.1-2.8,3.6-4.6
			c6.4-20.9-9.2-41.9-31.1-42.4c-24.9-0.5-41.5,25.4-30.1,48c7.5,14.9-1.6,28-17.1,27.2c-15.9-0.8-31.9-0.2-47.8-0.2
			c-1.7,0-3.4,0-5.1,0c0,15.1,0,29.5,0,44c0.9,0,1.6,0,2.2-0.1c11.2-3.2,22.1-2.7,32.9,1.7c1,0.4,2.6,0.8,3.2,0.3
			c7.2-6,15.8-4,23.9-4.1C316.4,280.9,330.8,281,346,281z"/>
		<path class="st1" d="M55.9,331.2c0,21.1,0,42.3,0,63.4c0,2.2,0.2,5.1-1.1,6.5c-1.8,2.1-4.9,4.5-7.3,4.3c-2.6-0.2-5.4-2.9-7.3-5.1
			c-1.1-1.4-0.9-4-0.9-6.1c0-42.1,0-84.3,0-126.4c0-1,0-2,0-2.9c0.4-5.4,3.9-8.9,8.6-8.8c4.7,0.1,8,3.7,8,9.2
			C56,287.3,55.9,309.2,55.9,331.2z"/>
		<path class="st1" d="M55.9,114.4c0,18.7,0.1,37.4-0.2,56.1c0,2.9-1.4,6.5-3.4,8.5c-3.8,3.8-10.4,1.8-12.3-3.4
			c-0.7-1.9-0.8-4.1-0.8-6.2c0-36.7,0-73.5,0-110.2c0-1.5,0-2.9,0.3-4.4c0.9-4.6,4.3-7.2,8.6-6.9c4.3,0.3,7.4,3.3,7.6,8
			c0.2,5.4,0.1,10.7,0.1,16.1C55.9,86.1,55.9,100.3,55.9,114.4z"/>
	</g>
</g>
</svg>
