<?xml version="1.0" encoding="utf-8"?>
<!-- Generator: Adobe Illustrator 22.1.0, SVG Export Plug-In . SVG Version: 6.00 Build 0)  -->
<svg version="1.1" id="Layer_1" xmlns="http://www.w3.org/2000/svg" xmlns:xlink="http://www.w3.org/1999/xlink" x="0px" y="0px"
	 viewBox="0 0 512 512" style="enable-background:new 0 0 512 512;" xml:space="preserve">
<style type="text/css">
	.st0{fill:#4BC1EA;}
	.st1{fill:#3762AE;}
</style>
<g>
	<path class="st0" d="M180.9,263.2l43.7-55.9l19.5-57.2l11.9-39.3l39.2-21.9h29.2l32.9,29.2l10.4,40.1v53.5l9.6,38.2l20.2,27.5
		c0,0-20.7,87.9-153.3,113.3c-3.7-20.8-21.9-87.3-21.9-87.3S196.9,269.6,180.9,263.2z"/>
	<g>
		<path class="st1" d="M6.8,355c2.5-10.5,3.9-21.5,7.8-31.5c17.6-45,50.6-71.3,98.5-78.5c4.1-0.6,7.1-1.2,7-6.4
			c-0.1-2.2,1-4.4,1.6-7c-1.4-0.4-2.8-0.9-4.1-1.1c-34.2-5.2-55.6-36.1-48.4-69.9c1.1-5.2,4.2-8.1,9.4-9.1
			c31.2-6.3,59.1,10.5,68.2,41.1c0.3,0.9,0.6,1.8,1,3c4.2-1.8,8-3.6,12.1-5.1c6.7-2.4,12.2-0.3,14.1,5.2c1.9,5.4-0.8,10.4-7.2,12.8
			c-16.2,6.1-24.4,18.3-27.7,34.7c11.8,2.8,23.3,5.6,35.4,8.6c2.5-3.4,5-7.8,8.4-11.5c7.4-8,14.6-16.3,22.9-23.1
			c14.4-11.8,21-26.4,22.4-44.9c1.7-21.4,7.8-42,19.4-60.5c12.5-20,30.2-31.6,54.1-33.1c1.1-0.1,2.2-0.2,2.5-0.2
			c3.7-9.2,6.4-18.5,10.9-26.7c6.9-12.6,17.6-21.5,31.4-26c6.5-2.1,11.8,0,13.7,5.3c1.9,5.5-0.7,10.4-7.1,12.8
			c-16.9,6.5-25.2,19.4-28,36.5c5.3,2.3,10.4,4.3,15.3,6.7c16.6,8.2,26.3,22.1,31.8,39.3c7.2,22.5,7.2,45.5,3,68.3
			c-3.1,16.6-0.6,31,8.9,44.7c5.3,7.6,9.8,15.6,15.2,24.4c3.6-7.7,7.3-14.8,10.4-22.1c2.6-6.1,4.3-12.6,7.1-18.6
			c1.4-3,4.5-5.1,6.7-7.7c1.9-2.2,4.7-4.3,5.2-6.8c1.4-7,2.3-14.1,2.5-21.2c0.2-7.1,3.3-12,9-15.6c7.7-4.8,16.1-7.6,25.2-7.7
			c7.9,0,11.2,2.7,12.6,10.5c2.2,11.9,5.5,23.3,13.7,32.7c0.2,0.2,0.4,0.6,0.6,0.7c10.7,7.4,11.4,18.8,12,30.2
			c0.1,1.6,0.6,3.2,0.9,4.7c0,10.4,0,20.8,0,31.1c-0.3,1.7-0.6,3.4-0.9,5.2c-2.3,13.5-3.5,27.4-7.2,40.5
			c-13.1,46.1-35.6,86.8-72.2,118.7c-32.9,28.7-71.3,44.3-114.6,47.5c-37.4,2.8-73.2-4.2-107.7-18.7c-3.9-1.6-6.6-1.4-10.2,0.9
			c-28.7,17.8-59.8,23-92.4,14.9c-42.3-10.6-71.3-37.1-86.2-78.1c-3.5-9.8-4.7-20.4-7-30.6C6.8,368,6.8,361.5,6.8,355z M460.1,184.7
			c-8.4,1.4-9.5,2.6-10.2,10c-0.4,4.4-0.6,8.7-1.2,13.1c-1.2,9.4-4.2,18-12.9,23.4c-1.4,0.9-2.4,3-3.1,4.7
			c-4.2,9.6-7.7,19.6-12.5,29c-20.3,40.2-49.3,72.9-86.6,98c-28.4,19.2-59.6,31.9-93.6,37.3c-29.5,4.7-58.8,4-87.9-2.9
			c-3-0.7-5.4-0.3-7.3,2.1c-1.9,2.5-4,4.9-6,7.4c22.4,17.9,46.1,32.4,72.1,43c33.7,13.7,68.5,20.3,105,16.3
			c41.9-4.6,78.2-21.5,106.9-52.2c45.2-48.4,66.7-106,62.2-172.6c-0.6-8.4-2.1-15.6-8.6-22.1C467.2,209.9,463.1,197.6,460.1,184.7z
			 M249.3,378c0.7,0.1,0.9,0.1,1,0.1c56.1-14,100.3-45.5,134.3-91.9c0.9-1.3,1.1-4.1,0.4-5.5c-6.5-11.8-13.1-23.5-20.1-34.9
			c-8.9-14.7-13.2-29.9-9.9-47.3c3-16.3,4.3-32.8,2.2-49.4c-1.7-13.6-5.4-26.5-15.1-36.6c-22-23.1-61.5-18.1-78.3,9.7
			c-11,18.2-15.4,38.4-17.5,59.1c-1.4,13.5-4.5,26.3-14,36.5c-6.7,7.1-14,13.5-20.8,20.5c-7,7.3-13.7,14.9-20.8,22.6
			C232.9,289.5,252.8,328,249.3,378z M211.3,383.4c3.9-0.3,8.3-1.1,12.8-0.9c4.4,0.2,5.7-1.8,5.6-5.7c-0.3-9.2,0.4-18.6-0.9-27.6
			c-7.9-53-57.5-91.1-110.6-85.5c-45.9,4.9-82.3,38.9-90.4,84.8c-12,67.8,48.4,128.9,116.4,117.5c11-1.8,21.6-5,31.9-10.8
			c-2.3-1.4-4.1-2.4-5.8-3.5c-15.9-10.9-31.8-21.8-47.5-32.9c-6-4.3-6.6-8.1-3.9-14.8c3.8-9.6,10.2-17.1,18.2-23.6
			c4.6-3.7,9.2-4.4,14.9-3.2c12.5,2.6,25.1,4.6,38,6.9c0.8-4.1,1.5-7.1,2-10.1c1.8-11.2,0-21.9-3.8-32.5c-2.2-6.2,0.5-11.8,5.8-13.5
			c5.3-1.7,10.4,1,12.4,7.2c2,6.1,4.2,12.4,4.7,18.8C211.9,363.6,211.3,373.3,211.3,383.4z M87.8,170.2c-3.3,26,21.4,44.9,41.1,40.9
			C131.7,188,110.5,166.7,87.8,170.2z"/>
		<path class="st1" d="M293.5,444.4c-9.1,0.4-13.2-1.5-15-5.9c-2.6-6.6,1.8-13,9.5-13.3c16.2-0.7,31.8-4,46.8-9.9
			c4.8-1.9,9.4-4.3,14.2-6.2c5.9-2.4,11.4-0.6,13.7,4.3c2.3,5,0.2,10.5-5.5,13.3C336.6,436.8,314.9,443.3,293.5,444.4z"/>
		<path class="st1" d="M376.9,412.7c-5.3-0.1-9.3-4.2-9.3-9.7c0-5.3,4.3-9.5,9.6-9.5c5.3-0.1,9.5,4.1,9.5,9.5
			C386.8,408.5,382.5,412.7,376.9,412.7z"/>
		<path class="st1" d="M341.4,165.5c-1.5,11.5-2.7,22.8-4.5,34c-0.9,5.5-5.5,8.4-10.6,7.7c-5-0.7-8.2-4.7-8.1-10.4
			c0-1.9,0.4-3.9,0.6-5.8c0.8-9,2.1-18.1,2.2-27.1c0.1-6.4-1-12.9-2.6-19.2c-0.9-3.3-3.6-6.4-6.2-8.8c-4.5-3.9-6.1-8.7-3.5-13.2
			c2.8-4.7,8.1-6.1,13.5-3.4c8.8,4.4,13.5,12.1,15.5,21.3C339.5,148.8,340.2,157.2,341.4,165.5z"/>
		<path class="st1" d="M171.2,312.6c0.2-5.3,4.5-9.3,9.8-9.2c5.3,0.2,9.9,5,9.6,10.2c-0.2,5.1-5,9.5-10,9.3
			C175.4,322.7,171,317.9,171.2,312.6z"/>
	</g>
</g>
</svg>
