<?xml version="1.0" encoding="utf-8"?>
<!-- Generator: Adobe Illustrator 22.1.0, SVG Export Plug-In . SVG Version: 6.00 Build 0)  -->
<svg version="1.1" id="Layer_1" xmlns="http://www.w3.org/2000/svg" xmlns:xlink="http://www.w3.org/1999/xlink" x="0px" y="0px"
	 viewBox="0 0 512 512" style="enable-background:new 0 0 512 512;" xml:space="preserve">
<style type="text/css">
	.st0{fill:#31B44A;}
</style>
<g>
	<path class="st0" d="M506,241.3c0,9.8,0,19.5,0,29.3c-0.3,1.6-0.7,3.1-0.9,4.7c-1.2,9.2-1.9,18.5-3.6,27.5
		c-9.5,49.8-32.1,92.8-67.7,128.7c-37.3,37.7-82.2,61.4-134.6,70.5c-9.4,1.6-18.9,2.6-28.4,3.9c-9.8,0-19.5,0-29.3,0
		c-1.4-0.3-2.8-0.6-4.3-0.8c-13.6-2.1-27.5-3.3-40.9-6.5C67.9,467.8-14.7,338.8,10.5,209.1c10.4-53.6,35.4-99.3,75.6-136.2
		c57.9-53,126.4-74.2,204.2-64.4c49.4,6.2,92.9,26.5,130.2,59.4c44,38.8,71.5,87.1,81.6,145C503.8,222.3,504.7,231.8,506,241.3z
		 M255.9,35.3C134.2,35.4,35.2,134.7,35.4,256.2c0.2,121.5,99.1,220.3,220.6,220.4c121.6,0.1,220.8-99.1,220.7-220.7
		C476.7,134.2,377.5,35.1,255.9,35.3z"/>
	<path class="st0" d="M226,305.6c1.4-1.8,2.4-3.4,3.6-4.7c40.9-41,81.8-81.9,122.9-122.7c3-3,7.4-5.4,11.5-6.4
		c5.7-1.3,10.5,1.6,13.5,6.7c3.1,5.2,3,10.5-0.4,15.6c-1.1,1.6-2.5,3-3.8,4.4c-45.1,45.1-90.1,90.2-135.2,135.2
		c-8.9,8.9-16.4,8.9-25.2,0.1c-24.7-24.7-49.4-49.5-74.2-74.1c-4.1-4.1-7.1-8.5-6-14.7c1.9-11.1,14.3-16,23.2-9.3
		c1.7,1.3,3.1,2.8,4.6,4.3C182,261.6,203.5,283.1,226,305.6z"/>
</g>
</svg>
