<?xml version="1.0" encoding="utf-8"?>
<!-- Generator: Adobe Illustrator 22.1.0, SVG Export Plug-In . SVG Version: 6.00 Build 0)  -->
<svg version="1.1" id="Layer_1" xmlns="http://www.w3.org/2000/svg" xmlns:xlink="http://www.w3.org/1999/xlink" x="0px" y="0px"
	 viewBox="0 0 512 512" style="enable-background:new 0 0 512 512;" xml:space="preserve">
<style type="text/css">
	.st0{fill:#4BC1EA;}
	.st1{fill:#3762AE;}
</style>
<g>
	<rect x="30.9" y="392" class="st0" width="49.6" height="62.3"/>
	<rect x="431.3" y="391.6" class="st0" width="49.6" height="62.3"/>
	<path class="st0" d="M84.1,346.8H27.9c-7.1,0-13-5.9-13-13V328c0-7.1,5.8-13,13-13h56.2c7.1,0,13,5.9,13,13v5.7
		C97.1,340.9,91.3,346.8,84.1,346.8z"/>
	<path class="st0" d="M484.3,346.8h-56.2c-7.1,0-13-5.9-13-13V328c0-7.1,5.9-13,13-13h56.2c7.1,0,13,5.8,13,13v5.7
		C497.3,340.9,491.4,346.8,484.3,346.8z"/>
	<g>
		<path class="st1" d="M442.6,506c-0.5-0.3-1-0.8-1.5-1c-12.5-4.5-18.1-12.4-18.2-25.8c-0.1-14.3,0-28.6,0-43
			c0-25.6,0-51.1,0.1-76.7c0-3.2-0.6-5.1-3.9-6.8c-9.8-4.9-14.5-15.6-12.4-26.8c1.8-10,9.6-18,20-19.4c6.7-0.9,13.6-0.7,21-1.1
			c-1-49.2-9.7-96.8-27.7-142.7c-15.6-39.7-45.2-83.6-67.2-99.9c23.8,61.2,12.5,112.5-46.4,146.8c-38.6,22.5-87.3,16.4-119.5-12.4
			c-42.1-37.7-48.9-83.4-26.2-135.8c-4.1,3.8-7.4,6.7-10.4,9.9c-25.8,26.3-44.1,57.4-57.7,91.4c-17.6,43.9-26.1,89.8-27.7,137
			c-0.1,1.8,0,3.6,0,6.2c5,0,10-0.1,15,0c12.9,0.2,21.9,6.6,25.2,17.6c3.4,11.3-1,23.3-11.4,28.9c-3.5,1.9-4.2,4.1-4.2,7.6
			c0.1,37.6-0.4,75.2,0.3,112.8c0.3,16-4.2,27.6-20,33.1c-8.8,0-17.6,0-26.4,0c-15.5-5-20.9-15.9-20.6-31.7
			c0.5-38.1,0.1-76.2,0.2-114.2c0-3.6-0.7-5.8-4.2-7.6c-3.2-1.6-6.1-4.4-8.1-7.4c-5.4-8-5.9-16.8-1.6-25.5
			c4.6-9.3,12.6-13.2,22.6-13.6c5.3-0.2,10.6,0,16.3,0c0.1-2.3,0.3-4,0.3-5.8c1.1-38.9,7.1-77,18.7-114.2
			c14.6-46.8,36.6-89.7,71-125.2c22.6-23.3,48.8-41,80.4-49.5c8.9-2.4,18.1-3.6,27.2-5.3c7.2,0,14.3,0,21.5,0
			c1.1,0.3,2.1,0.7,3.2,0.8c22.2,2.1,42.8,9.3,62,20.5c33.6,19.7,58.7,47.7,78.6,80.6c32.4,53.6,48.1,112.3,52.6,174.3
			c0.6,7.7,0.9,15.5,1.4,23.8c5.2,0,10.2-0.1,15.2,0c8.8,0.1,16.4,2.9,21.5,10.4c2.1,3,3.2,6.7,4.8,10c0,3.3,0,6.5,0,9.8
			c-2.7,6.7-5.8,13.2-12.7,16.4c-3.5,1.6-4,3.8-4,7.2c0.1,39.7,0,79.4,0.1,119c0,9.4-3.1,17.3-10.9,22.7c-2.9,2-6.4,3.1-9.6,4.6
			C460.2,506,451.4,506,442.6,506z M256.1,206.1c50.6-0.1,91.5-41,91.7-91.7c0.1-50.6-41.3-91.9-92-91.8
			c-50.5,0.1-91.6,41.5-91.4,91.9C164.6,165.2,205.6,206.1,256.1,206.1z M72.3,447.4c0-16.9,0-33.1,0-49.4c-11.1,0-21.9,0-32.6,0
			c0,16.7,0,33,0,49.4C50.7,447.4,61.4,447.4,72.3,447.4z M472.4,447.4c0-16.9,0-33.2,0-49.4c-11.2,0-21.9,0-32.6,0
			c0,16.7,0,33,0,49.4C450.8,447.4,461.5,447.4,472.4,447.4z M55.9,339.3c7.8,0,15.6,0.1,23.4,0c6.7-0.1,9.8-2.7,9.9-8.1
			c0.1-5.4-3.1-8.5-9.6-8.5c-15.8-0.1-31.6-0.1-47.3,0c-6.3,0.1-9.7,3.5-9.5,8.7c0.2,5.1,3.4,7.8,9.7,7.9
			C40.3,339.3,48.1,339.3,55.9,339.3z M456.2,339.3c7.8,0,15.6,0.1,23.4,0c6.3-0.1,9.5-2.8,9.7-7.9c0.2-5.2-3.3-8.6-9.6-8.7
			c-15.8-0.1-31.6-0.1-47.3,0c-6.5,0.1-9.6,3.1-9.5,8.5c0.1,5.3,3.1,8,9.4,8C440.3,339.3,448.3,339.3,456.2,339.3z M72.4,356.4
			c-11.3,0-22.1,0-32.9,0c0,8.3,0,16.3,0,24.3c11.1,0,21.9,0,32.9,0C72.4,372.5,72.4,364.6,72.4,356.4z M472.5,356.3
			c-11,0-21.8,0-32.8,0c0,8.3,0,16.4,0,24.4c11.1,0,21.9,0,32.8,0C472.5,372.4,472.5,364.5,472.5,356.3z M472.8,464.9
			c-11.5,0-22.3,0-33.3,0c0,1.6,0,2.5,0,3.5c0,3.9-0.1,7.8,0,11.7c0.2,5.9,3.2,9,9,9.3c5,0.2,10.1,0.2,15.1,0
			c5.6-0.2,8.8-3.2,9.1-8.7C473,475.4,472.8,470.2,472.8,464.9z M39.3,464.5c0,5.7-0.2,10.9,0.1,16c0.2,5.3,3.3,8.5,8.6,8.7
			c5.5,0.3,11,0.3,16.5,0c4.1-0.2,7.4-2.5,7.8-6.7c0.5-5.9,0.1-11.9,0.1-18C61.3,464.5,50.7,464.5,39.3,464.5z"/>
	</g>
</g>
</svg>
