<?xml version="1.0" encoding="utf-8"?>
<!-- Generator: Adobe Illustrator 22.1.0, SVG Export Plug-In . SVG Version: 6.00 Build 0)  -->
<svg version="1.1" id="Layer_1" xmlns="http://www.w3.org/2000/svg" xmlns:xlink="http://www.w3.org/1999/xlink" x="0px" y="0px"
	 viewBox="0 0 512 512" style="enable-background:new 0 0 512 512;" xml:space="preserve">
<style type="text/css">
	.st0{fill-rule:evenodd;clip-rule:evenodd;fill:#3663AE;}
	.st1{fill:#FFFFFF;}
</style>
<circle class="st0" cx="256" cy="256" r="250"/>
<g>
	<path class="st1" d="M254.6,140c2.9,1.3,5.1,3.2,5,6.8c-0.1,3.4-2.5,6.1-5.8,6.4c-1,0.1-2,0.1-2.9,0.1c-19.4,0-38.8-0.1-58.2,0
		c-13,0.1-22.5,5.9-28.2,17.6c-2,4.1-2.7,8.6-2.7,13.2c0,47.9,0,95.9,0,143.8c0,17.8,12.9,30.7,30.7,30.8c19.6,0.1,39.3,0,58.9,0
		c3.9,0,6.4,2,7.2,5.3c0.7,3.1-0.9,5.9-4.3,7.6c-0.2,0.1-0.3,0.3-0.5,0.4c-22.2,0-44.4,0-66.6,0c-0.6-0.2-1.1-0.4-1.7-0.5
		c-6.8-1-13.1-3.4-18.7-7.5c-12.2-9-18.2-21.1-18.2-36.3c0-38.6,0-77.2,0-115.8c0-10-0.2-19.9,0.1-29.9
		c0.4-18.1,11.5-33.3,28.5-39.4c3.2-1.2,6.7-1.8,10-2.6C209.6,140,232.1,140,254.6,140z"/>
	<path class="st1" d="M340.6,249.4c-0.9-1-1.5-1.6-2-2.2c-9.3-9.3-18.6-18.6-27.9-27.9c-1.5-1.5-2.8-3.2-2.7-5.5
		c0-2.7,1.2-4.6,3.5-5.9c2.3-1.3,4.7-1.1,6.8,0.4c0.7,0.5,1.4,1.2,2,1.8c13.4,13.3,26.7,26.7,40,40c4.1,4.1,4.1,7.5,0.1,11.5
		c-13.5,13.5-27,27-40.5,40.5c-2.2,2.2-4.6,3.4-7.7,2.3c-4.3-1.6-5.7-6.6-2.9-10.2c0.5-0.7,1.2-1.4,1.8-2
		c9.1-9.1,18.3-18.3,27.4-27.4c0.6-0.6,1.1-1.2,2-2.2c-1.3,0-2.2,0-3.1,0c-43.2,0-86.4,0-129.6,0c-1.3,0-2.6,0-3.8-0.3
		c-3.1-0.8-5.1-3.5-4.9-6.7c0.2-3.1,2.4-5.6,5.4-6.1c1.2-0.2,2.4-0.2,3.6-0.2c43,0,85.9,0,128.9,0
		C338.2,249.4,339.2,249.4,340.6,249.4z"/>
</g>
</svg>
