<?xml version="1.0" encoding="utf-8"?>
<!-- Generator: Adobe Illustrator 22.1.0, SVG Export Plug-In . SVG Version: 6.00 Build 0)  -->
<svg version="1.1" id="Layer_1" xmlns="http://www.w3.org/2000/svg" xmlns:xlink="http://www.w3.org/1999/xlink" x="0px" y="0px"
	 viewBox="0 0 512 512" style="enable-background:new 0 0 512 512;" xml:space="preserve">
<style type="text/css">
	.st0{fill:#ADADAD;}
</style>
<g>
	<path class="st0" d="M286.4,506c-10-3.3-20.3-5.7-29.8-10c-11.1-5-19.8-13.6-26.5-23.9c-2.2-3.3-4.5-4.3-8.3-4.2
		c-49.8,0.1-99.6,0.1-149.4,0.1c-20.9,0-36.5-9.2-46.1-27.9c-3.7-7.2-5-15-4.9-23.1c0.1-22.1,0-44.3,0-66.4
		c0-38.7,0.2-77.5-0.1-116.2c-0.1-14,3.9-26.1,12.3-37.1c14.7-19.2,29.2-38.7,43.6-58.2c1.6-2.2,2.5-5.2,2.7-7.9
		c0.4-6.7,0.3-13.3,0-20c-0.1-1.5-1.4-3.6-2.7-4.3c-11.1-5.9-16.7-15.1-16.7-27.6c0-14.2-0.1-28.3,0-42.5
		C60.8,18.3,73.1,6.1,91.4,6.1C148.8,6,206.3,6,263.7,6c18.4,0,30.7,11.9,31.1,30.3c0.3,14.5,0.3,29,0,43.4
		c-0.2,12-5.8,21-16.5,26.8c-1.3,0.7-2,2.8-2.9,4.2c-0.1,0.2,0,0.6,0,1c-2.5,16.4,2.6,29.9,13.6,42.5c12.1,13.8,22.2,29.3,33.4,43.9
		c7.9,10.4,11.6,22,11.6,34.9c-0.1,25.1,0,50.1,0,75.2c0,1.8,0,3.5,0,6.2c2.1-1.1,3.7-1.9,5.1-2.8c13-7.4,25.7-15.3,39-22.1
		c46-23.7,103.3,5.8,111.4,56.9c5.2,33.1-9.1,63.7-38.5,81c-38.8,22.8-78,45-116.9,67.6c-10,5.8-20.9,8.8-32.1,10.9
		C296.8,506,291.6,506,286.4,506z M41.2,389.6c1.4,0.1,2.1,0.2,2.9,0.2c59.4,0,118.8,0,178.2-0.1c1.9,0,4.6-1.6,5.6-3.2
		c6.1-9.2,13.3-17.4,22.7-23.1c19.8-11.9,39.8-23.4,59.8-35c2.9-1.7,4-3.5,4-6.8c-0.2-23.4-0.1-46.9-0.1-70.3c0-1.6,0-3.1,0-4.6
		c-91.5,0-182.3,0-273.2,0C41.2,294.3,41.2,341.7,41.2,389.6z M39.8,226.5c92.6,0,183.2,0,274.1,0c-0.3-6.2-3-11.1-6.5-15.7
		c-14.8-19.8-29.6-39.6-44.6-59.2c-1.2-1.6-3.9-2.8-5.9-2.9c-15.1-0.2-30.3-0.1-45.4-0.1c-14,0-28,0.1-42,0
		c-7.5-0.1-11.9-4.6-11.1-11.1c0.7-5.3,4.8-8.4,11.8-8.4c26.7,0,53.4,0,80,0c1.7,0,3.4,0,5.3,0c0-6.8,0-12.9,0-19.2
		c-52,0-103.8,0-156,0c0,8.4-0.2,16.5,0.1,24.6c0.1,5.1-1.3,9.4-4.5,13.5c-15.7,20.7-31.4,41.5-46.8,62.5
		C45.1,215,43,220.5,39.8,226.5z M317.9,346.4c-19.2,11.2-38.2,21.6-56.5,33.2c-20.2,12.8-29.8,38.3-24.2,61.4
		c9.5,39,51.6,57.1,87,37.2c16.6-9.3,33-19,49.4-28.5c0.9-0.5,1.7-1.2,2.7-2C356.9,413.9,337.5,380.4,317.9,346.4z M178,25.5
		c-28.6,0-57.3,0-85.9,0c-8.3,0-11.9,3.6-11.9,11.9c-0.1,13.3-0.1,26.7,0,40c0,9.2,3.4,12.5,12.8,12.5c56.5,0,112.9,0,169.4,0
		c9.5,0,13-3.5,13.1-12.9c0-12.7,0-25.4,0-38.1c0-10.1-3.4-13.5-13.4-13.5C234,25.5,206,25.5,178,25.5z M334.9,336.9
		c19.5,33.8,38.9,67.4,58.5,101.4c17.2-10,34.3-19.3,50.8-29.7c26.6-16.7,34.7-51.4,19-78.4c-15.7-27.1-49.8-37.3-77.5-22.5
		c-16.8,8.9-33,18.8-49.5,28.3C335.9,336.2,335.6,336.5,334.9,336.9z M217.3,409.5c-58.3,0-117,0-175.8,0c-4,25.9,13.1,39.3,33,39
		c46-0.6,92.1-0.2,138.1-0.2c1.9,0,3.9,0,4.7,0C217.3,435.2,217.3,422.5,217.3,409.5z"/>
	<path class="st0" d="M187.5,331.4c0,8.5,0,16.8,0,25c0,8.9-3.4,13.6-9.7,13.7c-6.4,0.1-9.8-4.6-9.8-13.5c0-8.3,0-16.5,0-25.5
		c-7.8,0-15.2,0-22.6,0c-2.3,0-4.6,0.1-6.8-0.1c-5.8-0.5-9.5-4.4-9.5-9.7c0-5.3,3.8-9.4,9.6-9.6c7.8-0.3,15.6-0.1,23.4-0.1
		c1.8,0,3.5,0,5.9,0c0-8.3,0-16.3,0-24.2c0-1.1,0-2.3,0-3.4c0.2-7,3.7-11.2,9.4-11.4c5.8-0.2,9.9,4.3,10,11.4c0.2,8.9,0,17.9,0,27.6
		c4.5,0,8.9,0,13.2,0c4.9,0,9.8-0.1,14.6,0c6.7,0.1,11.1,4.1,11.1,9.8c-0.1,5.7-4.4,9.6-11.2,9.7c-7.5,0.1-15,0-22.4,0
		C191.1,331.2,189.6,331.3,187.5,331.4z"/>
	<path class="st0" d="M138.5,138.7c0.1,5.2-4.3,9.7-9.5,9.8c-5.2,0.1-9.6-4.3-9.7-9.5c-0.1-5.3,4.2-9.7,9.4-9.8
		C133.8,129,138.4,133.5,138.5,138.7z"/>
</g>
</svg>
