<?xml version="1.0" encoding="utf-8"?>
<!-- Generator: Adobe Illustrator 22.1.0, SVG Export Plug-In . SVG Version: 6.00 Build 0)  -->
<svg version="1.1" id="Layer_1" xmlns="http://www.w3.org/2000/svg" xmlns:xlink="http://www.w3.org/1999/xlink" x="0px" y="0px"
	 viewBox="0 0 512 512" style="enable-background:new 0 0 512 512;" xml:space="preserve">
<style type="text/css">
	.st0{fill:#1F1F1F;}
</style>
<g>
	<path class="st0" d="M506,104.1c0,14.2,0,27.9,0,42.1c-166.6,0-333,0-499.9,0c0-13.9,0-27.9,0-42.1
		C172.7,104.1,338.9,104.1,506,104.1z"/>
	<path class="st0" d="M6,407.9c0-14.2,0-27.9,0-42.1c144.8,0,289.7,0,434.9,0c0,13.9,0,27.9,0,42.1C296,407.9,151.3,407.9,6,407.9z"
		/>
	<path class="st0" d="M322.4,234.9c0,14.2,0,27.9,0,42.1c-105.4,0-210.7,0-316.3,0c0-13.9,0-27.9,0-42.1
		C111.4,234.9,216.7,234.9,322.4,234.9z"/>
</g>
</svg>
