<?xml version="1.0" encoding="utf-8"?>
<!-- Generator: Adobe Illustrator 22.1.0, SVG Export Plug-In . SVG Version: 6.00 Build 0)  -->
<svg version="1.1" id="Layer_1" xmlns="http://www.w3.org/2000/svg" xmlns:xlink="http://www.w3.org/1999/xlink" x="0px" y="0px"
	 viewBox="0 0 512 512" style="enable-background:new 0 0 512 512;" xml:space="preserve">
<style type="text/css">
	.st0{fill:#4BC1EA;}
	.st1{fill:#3762AE;}
</style>
<g>
	<path class="st0" d="M78.2,77.5c0,0-30.3-12.2-23.4-34.2s23.4-30.5,23.4-30.5l33,4.9l31.7,27.5l66.5,1l33.6,5.1l5.2,26.2H78.2z"/>
	<path class="st0" d="M380.3,77.5c1.8,0,43.3,93.2,43.3,93.2s-2.4,37.5-11.6,41.7c-9.2,4.2-38.5,13.9-38.5,13.9l-37.7-23.1
		l-10.5-32.5L369,84.2L380.3,77.5z"/>
	<g>
		<path class="st1" d="M506,305.8c-3.2,11.1-10.8,17.8-20.8,22.9c-14.8,7.5-29.2,15.6-43.7,23.7c-28.9,16.1-59.3,20-91.4,12.5
			c-17.9-4.2-35.8-8.3-53.8-11.4c-16.6-2.8-31.9,1.9-45.6,11.5c-1.4,1-2.4,3.7-2.4,5.6c-0.2,26.2,0,52.4-0.1,78.6
			c-0.1,24.8-15.4,46.1-39,53.8c-5.4,1.8-11.4,2.7-17.1,2.8c-43.3,0.2-86.5,0.1-129.8,0.1C35.1,506,12,486.8,7,460.2
			c-0.1-0.7-0.6-1.4-0.9-2.1C6,377.1,6,296,6,215c1.5-4.5,2.6-9.3,4.6-13.6c8.4-18.9,23.3-29.8,44-33.9c0-16.1,0-32.1,0-48.5
			c9.7,0,18.8-0.1,27.8,0.1c3.5,0.1,4.5-1.1,4.4-4.5c-0.2-7.8-0.2-15.6,0-23.4c0.1-3.5-1-4.7-4.6-5.1c-15.6-1.7-26.7-10.2-32.6-24.4
			c-5.9-14.1-3.9-27.7,5.4-40C61.8,12.6,71.4,8.3,82.2,6c4.2,0,8.5,0,12.7,0c10.8,2.3,19.3,8.4,27.5,15.6
			c12.8,11.3,28.2,16.5,45.2,16.6c20.3,0,40.7,0,61,0c17.7,0,27.4,9.8,27.4,27.5c0,6.8,0,13.6,0,20.9c-29.7,0-58.9,0-88.4,0
			c0,10.8,0,21.2,0,32.2c10.4,0,20.9,0,31.9,0c0,16.7,0,32.7,0,48.6c22.9,4.8,38.7,17.4,45.9,39.4c1.8,5.6,2.6,11.7,2.7,17.7
			c0.4,12.7,0.1,25.4,0.1,38.7c3.7-1.9,6.9-3.8,10.1-5.3c13.2-6.3,27.2-9.9,41.9-9.9c28.6-0.1,57.3-0.2,85.9,0.1
			c10.3,0.1,17.5,5.7,21.3,15.2c3.8,9.4,1.8,17.9-4.9,25.3c-5,5.5-11.5,7.6-18.9,7.6c-13.7-0.1-27.3,0-41,0c-1.6,0-3.2,0-5.4,0
			c5.6,10.2,13.2,16,24.5,16.3c7.6,0.1,15.3,0.5,22.9-0.2c5-0.5,10.3-1.9,14.8-4.2c21.6-10.5,43-21.5,64.6-32.1
			c13.9-6.9,27.8-4.2,36.2,7.3c2.5,3.5,3.8,7.8,5.7,11.7C506,298.6,506,302.2,506,305.8z M22.5,336.2c0,36.6,0,73.2,0,109.8
			c0,3.7,0,7.5,0.7,11.2c4.1,19.3,19.4,32.1,39.1,32.2c43.1,0.2,86.2,0.1,129.4,0c2.6,0,5.2-0.2,7.7-0.7
			c19.7-4.4,32.1-20.2,32.1-40.9c0-73.7,0-147.4,0-221.2c0-26.1-16.9-43-43-43c-41,0-82,0.4-123-0.2c-24.7-0.4-43.9,18.3-43.3,43.4
			C23,263.3,22.5,299.8,22.5,336.2z M248.2,347.2c1.6-0.7,2.3-1,3-1.3c16-8.1,33-11.1,50.6-7.8c16.1,3,32.2,6.5,48.1,10.4
			c23.2,5.7,46.5,7,68.4-3.1c22.7-10.5,44.3-23.1,66.3-35.1c2.3-1.3,4.1-4.6,4.8-7.4c1.2-4.4,0-8.8-3.8-11.8
			c-4.1-3.2-8.5-3.5-13.2-1.1c-16.2,8.2-32.5,16.3-48.8,24.4c-33.3,16.5-23.3,13.9-60.9,14.2c-15,0.1-26.7-5.9-35.4-17.9
			c-2.6-3.6-5.4-7.1-8.3-10.9c-8.8,6.6-17.3,12.8-25.8,19.1c-3.4-4.5-6.4-8.5-9.6-12.8c7.6-5.7,15-11.2,22.4-16.8
			c8.1-6.1,17.1-9.1,27.2-9c13,0.2,26,0.1,39,0c4.6,0,9.1,0.2,13.6-0.3c4.4-0.5,7.1-3.2,7.1-7.8c0-4.6-2.7-7.1-7.1-7.9
			c-1.1-0.2-2.3-0.2-3.4-0.2c-26.5,0-53-0.1-79.5,0c-19.3,0.1-36.8,5.6-52,17.8c-1.2,1-2.6,2.8-2.6,4.2
			C248.1,306.2,248.2,326.3,248.2,347.2z M239.5,70.3c1.3-13.4-0.9-15.9-13.8-15.9c-18.4,0-36.8,0-55.1,0c-14.8,0-29.4-2.1-42.3-9.7
			c-8.5-5-16-11.6-24-17.4c-9.2-6.7-19.1-7.1-29-2.2C66.1,29.9,62,38.1,62.7,48.6c0.8,12.6,11.5,21.9,25.4,21.9
			c49.1,0.1,98.2,0,147.3,0C236.7,70.5,237.9,70.4,239.5,70.3z M183.3,135.4c-37.9,0-75.2,0-112.5,0c0,10.7,0,21.1,0,31.5
			c37.6,0,74.9,0,112.5,0C183.3,156.2,183.3,145.9,183.3,135.4z M103,118.5c16.3,0,32.1,0,47.8,0c0-10.8,0-21.1,0-31.6
			c-16.1,0-31.8,0-47.8,0C103,97.6,103,107.9,103,118.5z"/>
		<path class="st1" d="M377,231.8c-33-0.1-58.1-25.3-56.2-57.2c0.4-7,2.4-14.2,5.1-20.6c10.1-23.4,20.9-46.5,31.5-69.7
			c6.8-14.7,23-18.4,33.9-7.7c2.1,2.1,3.8,4.9,5.1,7.6c10.7,23.3,21.6,46.6,31.8,70.1c15,34.2-4.9,70.7-41.6,76.8
			C383.5,231.7,380.2,231.6,377,231.8z M335.9,176.4c0.6,25.3,23.3,45.2,52.3,37.8c24.6-6.2,35.4-31,24.7-54.8
			c-10-22.4-20.2-44.7-30.5-66.9c-1-2.2-3.5-5.1-5.4-5.1c-1.8,0-4.4,2.8-5.4,5c-10.3,22.1-20.4,44.2-30.2,66.5
			C338.9,164.5,337.7,170.6,335.9,176.4z"/>
		<path class="st1" d="M38.4,441.2c0-69.8,0-139.3,0-209.1c59,0,117.9,0,177.1,0c0,69.7,0,139.2,0,209.1
			C156.5,441.2,97.7,441.2,38.4,441.2z M54.7,424.9c48.3,0,96.3,0,144.3,0c0-59.1,0-117.9,0-176.5c-48.3,0-96.3,0-144.3,0
			C54.7,307.3,54.7,366,54.7,424.9z"/>
		<path class="st1" d="M86.8,304.4c0-22.2,18.6-40.7,40.4-40.3c22.1,0.4,40,18.4,40,40.3c0,22.1-18.6,40.6-40.4,40.3
			C104.7,344.4,86.8,326.4,86.8,304.4z M127,328.4c13.4,0,24.3-10.9,24.2-24.2c-0.1-13.1-10.8-23.8-23.9-23.9
			c-13.4-0.1-24.4,10.6-24.5,23.9C102.7,317.5,113.6,328.4,127,328.4z"/>
		<path class="st1" d="M70.8,376.7c0-5.5,0-10.4,0-15.7c37.5,0,74.7,0,112.3,0c0,5.2,0,10.3,0,15.7
			C145.7,376.7,108.4,376.7,70.8,376.7z"/>
		<path class="st1" d="M70.7,409c0-5.3,0-10.3,0-15.6c37.4,0,74.7,0,112.4,0c0,5.2,0,10.3,0,15.6C145.7,409,108.5,409,70.7,409z"/>
	</g>
</g>
</svg>
