<?xml version="1.0" encoding="utf-8"?>
<!-- Generator: Adobe Illustrator 22.1.0, SVG Export Plug-In . SVG Version: 6.00 Build 0)  -->
<svg version="1.1" id="Layer_1" xmlns="http://www.w3.org/2000/svg" xmlns:xlink="http://www.w3.org/1999/xlink" x="0px" y="0px"
	 viewBox="0 0 512 512" style="enable-background:new 0 0 512 512;" xml:space="preserve">
<style type="text/css">
	.st0{fill:#3663AE;}
	.st1{fill:#FFFFFF;}
</style>
<circle class="st0" cx="256" cy="256" r="250"/>
<g>
	<path class="st1" d="M373,257.8c-1.5,2-2.7,4.2-4.4,5.9c-23.6,23.7-47.4,47.4-71.1,71.1c-2.5,2.5-5.2,4-8.8,3.1
		c-5.8-1.5-8.2-8-4.8-12.9c0.7-0.9,1.5-1.7,2.3-2.5c18.7-18.7,37.4-37.3,56.1-56c0.6-0.6,1.3-1,2-1.5c-0.1-0.2-0.3-0.5-0.4-0.7
		c-0.9,0-1.7,0-2.6,0c-64,0-128,0-192,0c-1.3,0-2.6,0.1-3.9-0.2c-4-0.7-6.8-4.6-6.6-8.7c0.3-4.2,3.5-7.4,7.7-7.7c1-0.1,2,0,3,0
		c63.8,0,127.7,0,191.5,0c0.9,0,1.8,0,3.3,0c-0.9-1-1.5-1.6-2.1-2.2c-18.8-18.9-37.7-37.7-56.6-56.5c-2.7-2.7-4.2-5.6-3-9.4
		c1.8-5.6,8.4-7.6,13-4c0.8,0.6,1.5,1.3,2.2,2c23.5,23.5,47.1,47.1,70.6,70.6c1.7,1.7,3,3.9,4.4,5.9C373,255.4,373,256.6,373,257.8z
		"/>
</g>
</svg>
