<?xml version="1.0" encoding="utf-8"?>
<!-- Generator: Adobe Illustrator 22.1.0, SVG Export Plug-In . SVG Version: 6.00 Build 0)  -->
<svg version="1.1" id="Layer_1" xmlns="http://www.w3.org/2000/svg" xmlns:xlink="http://www.w3.org/1999/xlink" x="0px" y="0px"
	 viewBox="0 0 512 512" style="enable-background:new 0 0 512 512;" xml:space="preserve">
<style type="text/css">
	.st0{fill:#4BC1EA;}
	.st1{fill:#3762AE;}
</style>
<g>
	<path class="st0" d="M150.9,409.2c0,0-22.4-22.1-14.7-34.3s14.7-8.4,14.7-8.4l45.4,30.9l8.5,4.5c0,0-8.3,11.6-27.7,12.5
		S150.9,409.2,150.9,409.2z"/>
	<path class="st0" d="M358.1,409.2c0,0,22.4-22.1,14.7-34.3c-7.7-12.2-14.7-8.4-14.7-8.4l-45.4,30.9l-8.5,4.5
		c0,0,8.3,11.6,27.7,12.5S358.1,409.2,358.1,409.2z"/>
	<g>
		<path class="st1" d="M259,459.2c-1.2-0.8-2.8-0.9-4.4-0.2c-2.1,0.9-3.9,4.3-3.9,6.7c-0.3,9.8-0.3,20.6,0,32.9
			c0,1.7,0.7,3.2,1.4,4.7c0.3,0.6,0.6,1.2,0.8,1.8l0.3,0.9h5.6l0.3-0.8c0.2-0.5,0.5-0.9,0.7-1.4c0.7-1.2,1.4-2.4,1.4-3.8
			c0.2-11.6,0.1-23.1,0.1-35.8C261.3,462,260.5,460.2,259,459.2z"/>
		<path class="st1" d="M418.1,311.7c-10.9-13.7-23-26.9-33.4-37.9c-24.6-26.1-38.4-51.1-43.3-78.9c-5.3-30-11.3-60.5-17.1-89.9
			l-0.1-0.6c-5.1-26-10.5-47.5-20.4-67.9C293.8,15.7,277.1,5.4,254.2,6c-21.7,0.5-37.8,11.4-46.6,31.5c-4.4,10.1-9.8,23.4-12.9,37.2
			c-5.9,27-11.4,54.5-16.6,81.1c-1.9,9.7-3.8,19.3-5.7,29c-0.3,1.7-0.6,4.1,0.6,6c0.8,1.1,1.9,1.8,3.5,2.1c5.5,1,6.5-4.1,6.9-6.3
			L186,173c4.2-22.2,8.5-45.2,12.9-67.8c4.1-21,9.3-43.3,19.2-64c7.7-16,20.4-24.1,37.9-24.1c0.2,0,0.5,0,0.7,0
			c18.2,0.2,31.2,8.8,37.5,24.8c7.4,18.9,12.4,34.5,15.6,49.1c5.8,26.5,10.8,53.7,15.7,80c1.3,7.1,2.6,14.1,3.9,21.2
			c5.4,28.9,14.6,50.3,28.9,67.6c8.3,10,17.3,19.6,26,28.9c3.5,3.8,7.1,7.6,10.6,11.4c7.9,8.6,16.1,17.5,20,28.9
			c5.6,16.1,4.6,33.4-2.7,47.6c-7.2,13.8-20.1,23.7-37.3,28.7c-14.2,4.1-28.8,4.7-44.6,2.1c-2-0.3-4.6-0.6-6.4,0.8
			c-1.1,0.8-1.7,2-2,3.7c-0.7,5.4,4.5,6.2,6.8,6.6c6.9,1.1,13.6,1.6,20.1,1.6c8,0,15.7-0.8,23.3-2.4c35.4-7.4,57.3-34.4,57.1-70.5
			C430.1,334.3,426.1,321.7,418.1,311.7z"/>
		<path class="st1" d="M331,390.7c4.4-3.6,8.9-7.4,13.6-10.7c5.7-4,12.7-6.6,17.4-8.1c4.4-1.5,7.1,3.1,7.8,4.6
			c1.3,2.8,0.2,4.7-2.6,7.6c-0.4,0.5-1,0.9-1.6,1.3c-1.1,0.8-2.2,1.7-2.8,2.9c-0.8,1.7-1,4.6,0.1,6.4c1,1.6,4.3,2.2,6.1,1.5
			c7.7-2.9,13.6-13.1,11.9-20.7c-2.2-9.7-9.9-15.6-19.2-14.7c-3.5,0.3-10.1,1.5-15.5,5.1c-7.7,5.2-15.2,11.1-22.3,16.9
			c-1.9,1.6-3.9,3.1-5.8,4.6c-12.1,9.6-24.3,14.7-37.2,15.8c-13.7,1.1-28,1.5-42.4,1.1c-17.3-0.5-33.2-6.6-47.2-18.3
			c-1.6-1.3-3.1-2.6-4.7-3.9c-4.8-4.1-9.8-8.2-15-12.1c-7.4-5.5-14.9-8.9-21.3-9.5l-0.1,0c-10.6,0-18.8,6.1-20.6,15.1
			c-1.5,7.6,5.2,18.5,12.7,20.9c2,0.6,5.3-0.6,6.3-2.3c1-1.8,0.2-4.9-0.9-6.5c-0.8-1.2-1.9-2-3-2.9c-0.8-0.6-1.5-1.1-2.1-1.8
			c-1.7-1.9-2.4-4.2-1.8-6.3c0.5-2,2-3.5,4.2-4.3c1.9-0.7,4.8-0.6,7.6,0.1c9.3,2.5,16.5,9.1,22.8,14.9
			c12.1,11.1,28.9,24.2,51.1,26.6c11.2,1.2,22.3,1.5,32.7,1.5c4.7,0,9.2-0.1,13.4-0.2c17.3-0.4,32.8-5.4,46.1-15.1
			C322.9,397.4,327,394,331,390.7z"/>
		<path class="st1" d="M183.3,418.1c1.8-0.2,4.3-0.7,5.7-2.6c0.8-1.1,1.1-2.6,0.7-4.3c-1.1-5.2-6.1-4.4-8-4.1
			c-16.8,2.6-31.8,1.8-46-2.4c-19.9-5.9-34-19.2-39.9-37.5c-5.6-17.5-2.5-37.4,7.9-50.9c5.4-7,11.6-13.7,17.6-20.1
			c3.9-4.2,7.9-8.5,11.6-12.8c7.3-8.5,14.5-17.3,21.4-25.8l4.8-6c1.4-1.7,1.9-3.4,1.7-4.9c-0.2-1.4-1.1-2.7-2.6-3.6
			c-1.6-1.1-4.9-2.3-7.9,2.1l-0.2,0.3c-0.2,0.3-0.3,0.5-0.6,0.8c-2.8,3.2-5.5,6.5-8.3,9.8c-6.6,7.8-13.5,15.9-20.3,23.8
			c-3.1,3.6-6.4,7.1-9.6,10.6c-4.9,5.3-10,10.9-14.7,16.6c-9.9,12.3-14.8,26.2-14.5,41.1c0.5,26.7,10.7,45.9,31.2,58.7
			c13.8,8.6,30,13,49.7,13.4l0.1,0l0.1,0c1.9-0.2,3.8-0.4,5.7-0.6C173.9,419.2,178.7,418.7,183.3,418.1z"/>
		<path class="st1" d="M204.7,455.3c-0.9-1.2-1.8-2.5-3.1-2.5c-1.9-0.1-4.7,0.5-6.4,2.1c-6.3,6-12.5,12.3-18.5,18.3
			c-1.8,1.9-3.7,3.7-5.6,5.6c-1.2,1.2-2.7,3-2.7,5.1c0,1.3,0.7,2.6,1.9,3.8c1.2,1.2,2.4,1.6,3.5,1.6c2.3,0,4.2-1.9,5-2.7l5.8-5.8
			c6-5.9,12.1-12.1,18.1-18.2c0.8-0.8,1.4-1.8,2.1-2.9c0.3-0.5,0.6-1,1-1.5l0.6-0.8l-0.7-0.7C205.3,456.2,205,455.7,204.7,455.3z"/>
		<path class="st1" d="M342.9,481.4c-0.7-1-1.3-2-2.1-2.8c-5.9-6-11.9-12-17.8-17.8l-5.9-5.9c-1.3-1.3-3-2.8-5.1-2.8c0,0,0,0,0,0
			c-1.3,0-2.6,0.6-3.8,1.8c-3.9,4-0.2,7.5,1.1,8.9l13.8,13.6c1,1,2,2,3,3c2.5,2.5,5.1,5.2,7.9,7.5c1.2,1,2.9,1.4,4.6,1.4
			c0.6,0,1.1,0,1.7-0.1c1.3-0.2,2-1.4,2.7-2.5c0.3-0.4,0.5-0.9,0.8-1.2l0.6-0.7l-0.5-0.8C343.5,482.4,343.2,481.9,342.9,481.4z"/>
		<path class="st1" d="M336.8,269.9c4.8,6,9.8,12.1,14.9,17.9c1.2,1.4,3.6,2.1,5.5,2.1c0.2,0,0.5,0,0.7,0c1.4-0.1,2.3-1.4,3-2.5
			c0.3-0.4,0.5-0.7,0.7-1l0.5-0.6l-0.2-0.7c-0.1-0.4-0.2-0.8-0.3-1.1c-0.2-0.7-0.4-1.4-0.8-2l-2.9-3.7c-5.7-7.3-11.6-14.8-17.7-22
			c-1.4-1.7-5.4-1.4-7.1-0.4c-1.7,1-2,4.8-1.3,6.6c1,2.5,2.8,4.7,4.5,6.8L336.8,269.9z"/>
		<path class="st1" d="M162.1,230c0.9,1.2,1.8,2.5,3.2,2.6c0.1,0,0.2,0,0.3,0c1.9,0,5-1.1,5.7-3c2.9-7.7,5.2-14.8,6.9-21.6
			c0.4-1.5-0.9-3-2.1-4.5c-0.4-0.5-0.9-1.1-1.2-1.5l-0.7-1.1l-1.1,0.8c-0.5,0.3-1,0.7-1.6,1c-1.5,0.9-3,1.7-3.6,3.3
			c-1.5,3.8-2.7,7.8-3.9,11.7c-0.4,1.5-0.9,2.9-1.3,4.4c-0.3,1.1-0.7,2.2-1.1,3.5l-0.9,3l0.5,0.5C161.5,229.3,161.8,229.6,162.1,230
			z"/>
		<path class="st1" d="M380.2,317c0.6,0.5,1.5,0.8,2.5,0.8c1.4,0,2.9-0.5,3.8-1.1c1-0.7,1.6-2.5,1.8-3.8c0.1-1,0-1.8-0.5-2.3
			c-3.5-4.1-7.3-8-11-11.8l-2.2-2.3c-0.5-0.5-1.2-0.6-1.6-0.7c-0.1,0-0.1,0-0.2,0l-0.2,0l-0.2,0c-2.1,0.1-4.1,1.4-5,3.3
			c-0.8,1.6-0.6,3.4,0.5,4.7C371.1,307.9,375,312.1,380.2,317z"/>
	</g>
</g>
</svg>
