<?xml version="1.0" encoding="utf-8"?>
<!-- Generator: Adobe Illustrator 22.1.0, SVG Export Plug-In . SVG Version: 6.00 Build 0)  -->
<svg version="1.1" id="Layer_1" xmlns="http://www.w3.org/2000/svg" xmlns:xlink="http://www.w3.org/1999/xlink" x="0px" y="0px"
	 viewBox="0 0 512 512" style="enable-background:new 0 0 512 512;" xml:space="preserve">
<style type="text/css">
	.st0{fill:#4BC1EA;}
	.st1{fill:#3762AE;}
</style>
<g>
	<path class="st0" d="M181,28.2c0,0,5.5-12.2,18.3-12.2s40.3,18.3,40.3,18.3l-3.1,155l-18.9,23.2c0,0-47.3-13.4-54.3,0
		c-7,13.4-11,13.7-14,43.5c-3.1-1.3-30.5,4.6-34.5,16.6c-4,12-22.9,30.3-22.9,30.3L42.4,331l-28.1-34.8l9.9-47l-9.9-28.1l14-42.7
		l19.5-14.6l-3.7-36l33.6-25.6L101,63.6l25.1-11C126.1,52.6,149.8,19.7,181,28.2z"/>
	<g>
		<path class="st1" d="M205.1,6c2.9,0,5.9,0,8.8,0c0.3,0.2,0.5,0.4,0.8,0.5c17.9,2.6,32.1,18,31.8,39.9
			c-0.6,41.3-0.1,82.6-0.3,123.9c0,5.8-0.8,11.7-2,17.3c-2.4,10.7-8.8,19.3-16.9,27c14.9,13.8,19.6,31,19.1,50.5
			c-0.6,23.2-0.2,46.5-0.1,69.8c0,9.7-1.5,19-5.7,27.9c-0.7,1.5-0.2,3.9,0.2,5.8c1.6,6.4,4.8,12.7,5,19.1
			c0.6,23.6,0.6,47.2,0.2,70.7c-0.3,13.9-6.9,25.1-17.1,34.4c-8,7.2-17.6,10.8-27.8,13.2c-4.6,0-9.1,0-13.7,0
			c-0.6-0.3-1.1-0.7-1.7-0.8c-14.5-2.5-26.1-9.6-34.4-21.8c-1.8-2.6-3.4-2-5.7-1.2c-31.6,10.8-64.2-9.2-68.8-42.3
			c-0.6-4.1-2.2-5.7-5.7-7c-27.4-10.2-44.9-35.9-43.5-65.1c0.4-9.4,3.5-18.6,5.2-27c-6.1-7.2-13.4-13.9-18.4-22.1
			c-4.2-6.7-5.7-15-8.5-22.6c0-4.6,0-9.1,0-13.7c3-8.3,6-16.7,8.9-25c0.3-1,0.5-2.2,0.2-3.1c-3-9.2-6-18.4-9.1-27.5
			c0-4.9,0-9.8,0-14.6c0.2-0.6,0.6-1.2,0.7-1.8c3-19.6,12.3-35.4,27.9-47.5c1.1-0.8,1.4-3.3,1.2-5c-0.5-5.1-2.3-10.3-2-15.4
			c1.1-21.6,11.5-37.5,31.6-45.6c7.7-3.1,11.3-6.5,13.5-15c5.3-20.5,20-32.3,40.7-36.6c2-0.4,4.3-1.6,5.4-3.2
			c12-19,30.3-27,52.1-22.7c1.4,0.3,3.6,0.1,4.3-0.8C187.9,11.3,196.2,8,205.1,6z M140.7,464c0-0.4,0.1-0.9,0-1.4
			c-4.3-14.2-1.4-27.2,6.3-39.6c1-1.6,1-4.6,0.3-6.5c-4-10.2-3.3-19.8,2.8-28.8c3.2-4.8,8.3-5.8,12.8-3.1c4.3,2.6,5.4,7.2,2.9,12.4
			c-0.4,0.9-1,1.7-1.4,2.6c-1.8,4.6-1.3,9.1,2.1,12.8c3.5,3.9,8,5,12.8,3c2.3-1,4.4-2.7,6.3-4.4c4.5-3.9,9.8-4.2,13.5-0.4
			c3.6,3.6,3.5,8.7-0.4,13.1c-8.6,9.5-19.2,12.7-31.8,9.6c-1.4-0.4-4-0.3-4.5,0.6c-5.3,8.2-7.2,17-2.7,26.3c1.3,2.8,2.9,5.4,4.2,8.2
			c6.3,13.8,21.2,21.6,36.6,19c14.8-2.5,26.7-15.1,27.1-30.3c0.6-22.3,0.2-44.6,0.1-66.9c0-3.4-1.2-6.8-1.9-10.7
			c-13.1,7.8-26.4,11.6-40.7,11.4c-6.4-0.1-10.6-3.6-10.6-9c-0.1-5.2,3.6-8.6,10-9.2c4.8-0.5,9.8-0.4,14.5-1.6
			c11.9-3.1,23.2-7.4,26.9-21c1.2-4.2,2-8.6,2-12.9c0.2-26.5,0.1-53.1,0.1-79.6c0-20-12.9-33.6-30.5-39.7
			c-10.8-3.7-20.8-0.9-29.8,5.8c-5.7,4.2-11.2,3.9-14.7-0.6c-3.4-4.4-1.8-9.8,3.9-14.1c15.8-11.7,32.9-13.8,51.1-6.6
			c2.7,1.1,4.5,0.7,6.6-1c9.3-7.9,13.6-17.9,13.5-30c-0.1-42.2,0-84.3,0-126.5c0-1.5-0.1-2.9-0.2-4.4c-0.7-7.3-5.8-13.4-13.1-15.4
			c-7.4-2-13.9-0.3-19,5.5c-0.9,1-1.7,3-1.4,4.2c1.8,7.3,4.4,14.3,10.6,19.3c4.8,3.9,5.6,9,2.5,13.2c-3.1,4.1-8.6,4.5-13.5,1.2
			c-8.5-5.8-12.7-14.5-16-23.9c-2.6-7.6-3.6-8.5-11.6-8.4c-2.9,0-5.9,0.4-8.6,1.3c-9.4,2.8-18.7,12.4-18.1,19.7
			c0.8,8.3,2,16.9,4.7,24.7c3.7,10.6,11.4,17.9,23.3,20.4c0.7-1.7,1.2-3.2,1.8-4.7c3.3-7.5,8.6-12.9,16.3-15.8c5-1.9,9.9,0.1,12,4.4
			c2.1,4.3,0.5,8.8-4,11.7c-7.3,4.6-9.5,8.6-7.7,13.9c1.8,5.3,6.1,7.3,14.5,6.6c6.3-0.5,10.3,2.2,11.1,7.5c0.7,4.9-2.3,8.7-8.2,10.3
			c-11.8,3.2-24.1-1.5-31.5-11.5c-1.4-1.9-3.8-3.7-5.9-4.1c-22.4-4.4-35.6-18.3-41.7-39.6c-1.6-5.5-2.4-11.3-3.7-17.2
			C108.4,67,99.7,74.2,96.5,86.3c-3.3,12.5-2.8,24.9,7,35.1c3.6,3.8,4.1,8.5,1.1,12.3c-2.9,3.6-8.2,4.6-12.3,1.7
			c-2.5-1.7-5-3.9-6.5-6.5c-3.2-5.4-5.8-11.1-8.7-16.9c-17.2,3.4-29.3,23.1-23.4,39.4c18.8-7.7,38-8.1,56.2,0.8
			c8.2,4,14.5,4.3,23.1,1.2c16.6-5.8,31.7-0.9,44.1,11.6c3.7,3.7,3.8,8.7,0.6,12.3c-3.2,3.7-8.1,4.2-12.3,1.3
			c-1.6-1.1-3-2.5-4.5-3.8c-12-9.9-30.5-6.4-37.7,7.4c-5.1,9.6-3.4,18.7,3,27.4c3.7,5,2.9,10.2-1.4,13.3c-4.3,3.1-9.5,2.1-13.3-2.6
			c-4.9-6.1-8-12.9-9.1-20.7c-1.4-10.1,1-19.3,5.8-28.1c-21.6-13.1-45.6-9.6-66.9,9.4c-16.6,14.8-21.8,41.1-12.7,57.8
			c5.6-2.2,11.2-4.3,16.6-6.8c1.8-0.8,3.4-2.4,4.5-4.1c2.9-4.7,4.9-9.9,8.2-14.3c4.8-6.4,11.5-10.5,19.1-12.9
			c5.1-1.7,9.9,0.5,11.8,5c1.9,4.6,0,9.1-5,11.7c-1.2,0.6-2.4,1-3.6,1.5c-14.4,6.8-18.7,24.5-8.8,37c2.1,2.6,5,4.6,7.5,6.9
			c4,3.6,4.6,8.8,1.7,12.6c-2.9,3.8-8.3,4.7-12.7,1.7c-3.3-2.3-6.8-4.7-9.1-7.9c-4.2-5.8-7.6-12.2-11.5-18.6
			c-9.9,2.9-21.1,18.7-22.5,33.2c-1.6,16.6,4.8,29.6,18.1,39.6c2.5-3.1,4.6-6,7.1-8.6c10.1-10.3,22.7-15.5,36.9-17
			c5.3-0.5,8.5-1.9,10.2-7.7c2.4-8.4,8.1-15.1,14.9-20.7c4.2-3.4,9.3-3.2,12.8,0.3c3.5,3.5,3.4,8.6-0.2,12.7c-0.9,1-1.8,1.9-2.7,2.8
			c-7.8,7.9-11,17.3-9.6,28.4c1.8,13.3,12.1,24.4,26.1,27.7c12.9,3.1,27.9-2.8,35.6-14c7.7-11.4,7.7-26.6-0.4-37.5
			c-1.4-1.9-3.8-3.6-6-4.2c-10.9-2.9-18.9-9.2-24.1-19.1c-4.8-9.3-5.4-19-2-28.8c1.7-5,6.4-7.4,11.2-6.2c4.7,1.2,7.4,5.8,6.3,11.1
			c-0.3,1.3-0.6,2.5-0.9,3.8c-2.1,11,6,21.5,17.1,22.1c8.7,0.5,14.9-3.3,19-11c3.4-6.5,8.3-8.4,13.4-5.7c5,2.7,6.1,7.6,2.8,13.9
			c-1.4,2.7-2.9,5.6-5.1,7.7c-4.1,4-8.8,7.4-13.3,11.1c16,32-2,61.9-26.7,71.9c-13.3,5.4-26.8,5.2-39.9-0.3
			c-18-7.6-28.3-21.6-31.9-41c-16.3,1.9-30.3,6.4-37,23c-0.9,2.2-2.3,4.3-3.5,6.4c-7.6,12.6-9.4,26-5,39.9
			c4.6,14.7,14.4,25,28.7,30.9c0.5-0.5,0.9-0.7,0.9-1c0.3-0.9,0.5-1.9,0.7-2.8c2.5-9.5,7.1-17.8,13.9-24.8c3.9-4,9.4-4.1,13.1-0.7
			c3.6,3.3,4.3,8.4,0.7,12.2c-9.5,10-11.4,22.1-11.3,35.2C94.9,457.1,120.2,474.1,140.7,464z"/>
		<path class="st1" d="M324.3,506c-4.6,0-9.1,0-13.7,0c-0.4-0.2-0.8-0.6-1.2-0.7c-28.1-5.9-43.9-25.1-43.9-53.6c0-19,0-38.1,0-57.1
			c0-9.2,1.6-18,5.7-26.4c0.8-1.6,0.3-3.9-0.1-5.8c-1.7-7.9-5.1-15.7-5.2-23.5c-0.6-28-0.3-55.9-0.2-83.9
			c0.1-11.2,3.8-21.4,10.3-30.5c2.5-3.5,5.5-6.7,8.3-10.1c-12-11.2-18.7-24.7-18.7-41.1c0-43.3,0-86.5,0-129.8
			c0-12.6,4.9-23,15.2-30c5.1-3.4,11.5-5,17.2-7.4c2.9,0,5.9,0,8.8,0c9,2.1,17.3,5.4,23.7,12.4c0.9,1,3.6,0.9,5.3,0.5
			c18.8-3.9,38.6,3.8,48.9,19.9c2.9,4.5,6.1,6.3,11,7.2c19.3,3.6,36.8,22.2,38.9,41.5c0.5,4.3,2.1,6,6.2,7.1c27,7.3,43,35.3,35.5,62
			c-1,3.6-0.3,5.5,2.6,7.7c26.5,20.8,34.6,57,19.3,86.9c-1.7,3.3-1.5,5.6,0.2,8.9c10.8,20.5,10.4,41.1-2.1,60.6
			c-4.8,7.5-11.8,13.6-18.1,20.6c1.1,3,2.8,6.9,3.8,11c1.1,4.2,2.1,8.6,2.3,12.9c1.6,31.2-15.3,56.9-44.4,68
			c-2.5,0.9-4.3,1.7-4.7,5.1c-4.4,34.6-36.3,54.6-69.5,43.6c-2.7-0.9-3.7-0.2-5.6,1.8c-4.7,5.1-9.4,10.6-15.2,14.1
			C338.7,501.6,331.2,503.4,324.3,506z M403.8,171.5c1.4,3.5,3.1,6.7,4.1,10.2c4.1,14.3,1.6,27.3-7.8,39c-2.7,3.3-6.1,5-10.3,3.8
			c-3.8-1-6.5-3.9-6.4-7.7c0.1-3,1.7-6.2,3.4-8.8c5.9-8.9,6.2-18.8,0.6-27.5c-5.4-8.3-15.5-13.1-25.4-10.4
			c-5.4,1.5-10.2,5.2-15.1,8.3c-4.6,3-9.4,2.9-12.8-0.8c-3.3-3.6-3.1-8.7,0.6-12.7c13-14,34.5-17.8,51.4-8.7c3,1.6,5.2,1.4,8-0.2
			c12.5-7.5,26.1-11.2,40.5-9.9c8,0.7,15.9,3,23.8,4.5c4.8-16.7-7.4-36.2-24.8-38.5c-0.4,1.5-0.8,3.1-1.4,4.6
			c-2.6,7.3-6,14.1-12.7,18.6c-4.2,2.8-9.4,2.1-12.4-1.4c-2.9-3.4-3.2-8.6,0.1-11.5c8.4-7.5,9.6-17.4,9.3-27.6
			c-0.3-15.1-11.3-28-25.7-30.8c-1.2,5.7-2,11.5-3.6,17.1c-5.9,20.8-18.8,34.6-40.4,39c-3.4,0.7-5.7,2-7.7,5
			c-7.1,10.2-20.5,14.5-32,10.8c-5-1.6-7.8-5.7-7-10.2c0.9-4.9,4.5-7.7,9.8-7.4c1.6,0.1,3.2,0.4,4.9,0.5c5.1,0.3,9.6-2.6,11-7.1
			c1.4-4.5-0.4-9.1-4.6-11.8c-1.4-0.9-2.9-1.6-4.2-2.5c-3.7-2.6-4.7-6.3-3.3-10.3c1.4-3.8,4.6-6.4,8.7-5.6c3.7,0.7,7.9,2,10.4,4.5
			c4.7,4.6,8.4,10.3,13,16.1c5.9-1.1,11.7-4.8,16.2-10.5c6.9-8.6,9-18.9,10.2-29.5c0.8-6.6-1.4-11.8-5.7-16.4
			c-6-6.4-13.4-9.5-22.2-9.2c-7.2,0.3-8,0.9-10.2,7.6c-3.3,9.9-7.7,19-16.8,25c-4.7,3.1-10.2,2.3-13.1-1.8c-2.9-4-1.7-8.6,1.9-12.7
			c3.7-4.2,7.1-8.8,9.4-13.8c3.7-7.8,1.7-11.6-6.4-14.9c-1.3-0.5-2.8-0.9-4.2-1.1C293,23,284,31.2,283.9,44.1
			c-0.1,21.6,0,43.3,0,64.9c0,20.8,0.1,41.7,0,62.5c-0.1,11.8,4.1,21.5,12.9,29.4c2.5,2.2,4.6,2.5,7.8,1.3
			c18.9-7.4,36.3-4.2,52.2,8.1c4.2,3.3,5.1,8.7,2.3,12.6c-2.9,4-8.1,5-12.6,2.3c-1.4-0.8-2.6-1.9-4-2.8c-6.1-4-12.7-6.5-20.2-5.9
			c-21,1.6-37.9,18.8-38.3,40.3c-0.5,27-0.4,54,0,81c0.3,17.9,7.7,27.2,24.9,32.1c6.3,1.8,13.1,2,19.7,2.8c5.6,0.7,8.9,4.3,8.8,9.2
			c-0.2,4.9-3.8,8.5-9.3,8.7c-3.7,0.1-7.6,0.4-11.2-0.5c-10.3-2.6-20.4-5.9-31.1-9c-0.3,1.5-1.5,4.4-1.5,7.2
			c-0.2,22.8-0.6,45.6-0.1,68.3c0.3,14.3,8.4,24,21.7,28.9c13.5,5,27.7,1.4,36.7-9.4c3.4-4,5.3-9.2,8.1-13.8
			c5.6-9,4.6-17.8-0.1-26.8c-1.5-2.8-2.9-3.3-6.1-2.5c-11.8,3.2-22.2,0.3-30.7-8.6c-4.8-5-5.1-10.3-1.1-14.1c4-3.9,9.2-3.3,14.2,1.5
			c5.2,5,11.7,5.8,16.7,2c4.8-3.6,5.8-9.8,2.6-16.2c-2.8-5.7-1.8-10.5,2.8-13.1c4.8-2.7,9.9-1.2,13.2,4.3c5.4,8.8,6.2,18.1,2,27.5
			c-1.3,2.9-1.1,4.9,0.6,7.5c7.6,11.8,10.3,24.4,6.3,38.1c-0.2,0.7-0.1,1.5-0.1,2.2c15.1,6.3,32.9,0.5,41-13.3
			c8.6-14.6,6.2-36.6-5.4-51.2c-4.2-5.3-4.2-10.2,0-13.8c4.2-3.6,9.8-2.8,14.1,2.1c6.1,7,10.4,14.9,12.8,23.9
			c0.3,1.2,0.7,2.3,1.1,3.5c21.5-7.5,35.6-31.9,30.4-53.7c-2-8.4-6.9-16-10-24.1c-5.2-13.9-21.5-22-36.6-21.7
			c-7.5,38.2-43.2,49.6-66.6,42.6c-13.4-4-23.8-11.9-30.9-23.8c-9.8-16.5-9.2-33.6-0.8-50.5c-12-7.6-15.9-11.6-19.4-19.8
			c-3-6.9,0.9-13.5,8-13.5c5.1,0,7.3,3.4,9.4,7.3c4.8,9,14.3,12.7,23.6,9.5c8.7-3,15.1-13.1,11.6-24.2c-1.8-5.5,1-10.3,5.8-11.7
			c4.9-1.5,9.7,1.1,11.6,6.3c7,18.6-4.3,41.8-23.6,46.8c-6,1.6-9.2,4.8-11.5,9.8c-3,6.5-3.9,13.3-2.6,20.4
			c2.9,15.7,17.6,27.5,34.1,27c16.8-0.5,30.7-12.7,32.7-28.6c1.5-12.1-2.7-21.9-11.4-30.2c-4.7-4.5-4.9-10-1-13.7
			c3.9-3.8,9.1-3.4,13.9,0.9c6.9,6.2,12.2,13.6,14.7,22.6c0.9,3.1,2.6,3.7,5.4,4.3c8.1,1.7,16.2,3.4,23.9,6.2
			c10,3.6,17.5,10.9,23.3,19.7c13.5-8.3,21.2-25.2,18.3-41.1c-2.6-14.2-9.7-25.4-23-32.6c-0.6,1.4-0.9,2-1.1,2.6
			c-3.1,10.6-9.3,18.8-18.5,24.8c-4.6,3-10.2,2.3-13.1-1.7c-2.8-3.9-2-9,2-12.6c2.2-1.9,4.7-3.6,6.6-5.8
			c11.3-13.4,6.6-31.3-10.1-38.8c-6.2-2.8-8.6-7.1-6.7-12.1c1.9-5.1,7.3-7,13.5-4.6c12.6,4.9,21.1,13.7,25.6,26.4
			c0.5,1.4,1.3,3.3,2.4,3.8c6.2,2.6,12.5,4.8,18.9,7.2c8.7-18.4,3.1-43.5-13.3-58.3C449.5,162.3,424.7,158.8,403.8,171.5z"/>
	</g>
</g>
</svg>
