<?xml version="1.0" encoding="utf-8"?>
<!-- Generator: Adobe Illustrator 22.1.0, SVG Export Plug-In . SVG Version: 6.00 Build 0)  -->
<svg version="1.1" id="Layer_1" xmlns="http://www.w3.org/2000/svg" xmlns:xlink="http://www.w3.org/1999/xlink" x="0px" y="0px"
	 viewBox="0 0 512 512" style="enable-background:new 0 0 512 512;" xml:space="preserve">
<style type="text/css">
	.st0{fill:#4BC1EA;}
	.st1{fill:#3762AE;}
</style>
<g>
	<circle class="st0" cx="424.2" cy="309.4" r="24.3"/>
	<circle class="st0" cx="228.9" cy="426.5" r="24.3"/>
	<polygon class="st0" points="86.9,278.5 121.1,213.7 160.6,202.4 180.1,202.4 228.9,158.5 346.1,86.2 470.1,40.1 490.8,40.1 
		490.8,66.6 385.2,151.1 283.4,213.7 190.3,246.2 180.1,274 141.1,285.4 100.1,285.4 	"/>
	<g>
		<path class="st1" d="M243.6,506c-9.2-1.2-18.4-2.2-27.5-3.8c-99.6-18-177.6-89.4-200.5-187.8c-22.2-95.4,4.2-177.5,76.1-244.3
			c33.1-30.7,72.3-50.6,116.7-59.4c17.9-3.5,36-6.4,54.2-3.5c27.7,4.3,40,33.5,24.1,56.5c-6.5,9.4-12.6,18.9-14.3,30.5
			c-1.1,7.4-0.5,14.5,2,22.2c2.1-1.2,4.1-2.3,5.9-3.4c41.2-24.7,83.6-46.9,128.4-64.4c17.4-6.8,35.1-13.1,53.7-15.4
			c7.9-1,16.3-1.2,24.1,0.4c13.3,2.7,18.6,14.1,13.9,27C496.1,72.7,487.8,82.1,479,91c-21.5,21.9-46,40.2-71.2,57.6
			c-1.6,1.1-3.1,2.3-5.4,3.9c2.4,0.7,4.2,1.3,5.9,1.7c56.3,12.5,89.9,55.8,94.7,110c5.5,61.9-16,115.1-56.3,161
			c-37.7,42.9-85.9,67.6-142,76.9c-10.2,1.7-20.6,2.6-30.9,3.9C263.8,506,253.7,506,243.6,506z M112.2,294.2c0-0.3-0.1-0.7-0.1-1
			c-9.4-0.5-18.9-0.7-28.2-1.6c-7.9-0.8-11.5-7.4-8-14.6c10.2-20.7,21-41,34.7-59.8c13.8-18.8,31.4-27,54.7-21.3
			c1.3,0.3,3.5-0.5,4.5-1.5c25.6-24.5,54.2-45.1,83.8-64.4c3.1-2.1,3.9-3.8,2.6-7.4c-5.5-15-5.2-30.2,0.8-44.8
			c3.7-9.1,9.3-17.4,14.2-25.9c6.4-10.9,2.1-21.9-10.1-25.1c-2.5-0.7-5.1-1.1-7.7-1c-7.8,0.2-15.6,0.4-23.4,1.2
			c-32.3,3.6-62.3,14.2-90,31c-38.5,23.4-68.1,55.1-88.4,95.3c-23.1,45.7-29.2,94.1-19.8,144.2c11.8,62.8,44.3,112.7,96.9,148.7
			c52.2,35.8,110.3,47.7,172.4,36.5c83.4-15.1,142.4-61.4,172.9-141.3c11.8-31,14.7-63.2,5.8-95.8c-6.4-23.3-18.7-42.7-38.9-56.6
			c-19.1-13.1-40.7-18.2-63.5-19c-1.6-0.1-3.4,0.9-4.9,1.8c-11.1,6.5-22,13.3-33.2,19.5c-43.7,24.5-88.4,46.9-136.7,61.1
			c-1.6,0.5-3.3,2.5-3.9,4.1c-6.4,18.7-18.6,30.9-38.5,33.5C144.3,292.1,128.2,292.9,112.2,294.2z M482.6,52.2
			c-2.1-0.4-3.7-0.8-5.3-0.9c-1.9-0.1-3.9,0.1-5.8,0.3c-16.8,1.6-32.7,6.7-48.4,12.6c-52.7,19.6-101.9,46.4-149.5,76
			c-3.6,2.2-7,4.6-10.9,7.1c12.4,14.4,21.3,30.5,27.7,47.9c1.1-0.4,1.6-0.6,2-0.8c43.4-22.3,85.4-47,124.4-76.4
			c18-13.6,34.6-29,51.3-44.1C474.3,68.2,479.7,61.3,482.6,52.2z M246.3,158.5c-16.8,10.3-54.4,40.4-60.2,47.7
			c5,8.9,9.8,17.4,15.3,27.2c23.2-9.3,47.2-18.8,71.3-28.4C266.8,186.8,258.3,171.6,246.3,158.5z M100.1,272.1
			c0.2,0.6,0.3,1.2,0.5,1.9c16-0.6,32-0.9,48-2c6.2-0.4,12.9-1.5,18.2-4.4c10.8-5.9,15.5-16.1,14-28.3c-1.5-12.6-8.9-21.2-21.3-24.5
			c-11.4-3-21.6-0.3-29.3,9.1C118.2,238.8,108.9,255.3,100.1,272.1z"/>
		<path class="st1" d="M424.3,270.4c21.4,0.1,38.8,17.6,38.9,38.8c0.1,21.3-18,39.3-39.2,39c-21.6-0.2-39.1-18-38.8-39.4
			C385.5,287.5,403,270.3,424.3,270.4z M424.2,290c-10.9-0.1-19.6,8.6-19.6,19.4c0,10.7,8.8,19.5,19.6,19.5
			c10.5-0.1,19.2-8.7,19.4-19.2C443.8,298.9,435,290,424.2,290z"/>
		<path class="st1" d="M133.4,406.7c-20.8,1.8-39.3-14.7-41-36.4c-1.6-19.9,14.4-39.2,33.8-40.9c23.7-2.1,42.2,13,43.9,36.7
			C171.5,387,155,405.7,133.4,406.7z M131.3,348.5c-10.9,0-19.5,8.6-19.5,19.5c0,10.7,9,19.5,19.7,19.4c10.5-0.1,19.2-8.8,19.3-19.3
			C150.9,357.3,142.1,348.5,131.3,348.5z"/>
		<path class="st1" d="M345.9,368.1c21.4-0.1,39.3,17.7,39.2,39c-0.1,21.2-17.6,38.7-38.9,38.9c-21.2,0.2-38.8-17.2-39.1-38.6
			C306.8,385.9,324.3,368.2,345.9,368.1z M346.2,387.6c-10.9-0.1-19.6,8.5-19.7,19.3c0,10.7,8.7,19.6,19.5,19.6
			c10.5,0,19.3-8.6,19.5-19.1C365.8,396.6,357,387.7,346.2,387.6z"/>
		<path class="st1" d="M228.7,387.6c21.4-0.1,39.3,17.7,39.2,39c-0.1,21.2-17.6,38.7-38.9,38.9c-21.2,0.1-38.8-17.2-39.1-38.6
			C189.6,405.5,207.1,387.7,228.7,387.6z M229.1,407.1c-10.9-0.1-19.6,8.4-19.7,19.3c-0.1,10.7,8.7,19.6,19.5,19.6
			c10.5,0,19.3-8.6,19.5-19.1C248.6,416.2,239.9,407.2,229.1,407.1z"/>
		<path class="st1" d="M180.2,66.6c21.2,0.1,38.8,17.6,38.9,38.8c0.1,21.2-18,39.3-39.2,39.2c-21.3-0.2-38.7-17.7-38.8-38.9
			C141,84.3,158.7,66.6,180.2,66.6z M179.9,86.2c-10.8,0.1-19.4,8.9-19.3,19.7c0.1,10.5,8.9,19.2,19.4,19.2
			c10.6,0.1,19.6-9,19.6-19.6C199.5,94.8,190.7,86.1,179.9,86.2z"/>
		<path class="st1" d="M261.7,350c-26.9-0.6-49.2-7.9-67.2-26c-3.4-3.4-5.2-7.1-3.4-11.8c2.3-6.3,10-7.9,15.8-3.3
			c4.6,3.6,8.9,7.7,13.8,10.8c26.9,16.9,67.8,13.5,91.7-7.3c7-6.1,11.9-13.7,14-22.9c0.5-2,1-4.2,1.9-6c2.1-4,7-5.8,11.3-4.5
			c4.7,1.5,7.5,5.9,6.6,11.1c-1.8,10.3-5.7,19.6-12.3,27.7c-15.1,18.6-35.3,27.5-58.4,31C270.2,349.6,264.9,349.7,261.7,350z"/>
		<path class="st1" d="M336.2,246.2c-5.1,0-9.6-4.6-9.6-9.7c0-5.1,4.6-9.7,9.7-9.6c5.1,0,9.7,4.6,9.6,9.7
			C345.9,241.7,341.3,246.3,336.2,246.2z"/>
	</g>
</g>
</svg>
