<?xml version="1.0" encoding="utf-8"?>
<!-- Generator: Adobe Illustrator 22.1.0, SVG Export Plug-In . SVG Version: 6.00 Build 0)  -->
<svg version="1.1" id="Layer_1" xmlns="http://www.w3.org/2000/svg" xmlns:xlink="http://www.w3.org/1999/xlink" x="0px" y="0px"
	 viewBox="0 0 512 512" style="enable-background:new 0 0 512 512;" xml:space="preserve">
<style type="text/css">
	.st0{fill:#4BC1EA;}
	.st1{fill:#3762AE;}
</style>
<g>
	<circle class="st0" cx="418.7" cy="201.5" r="28.9"/>
	<circle class="st0" cx="419.9" cy="310.4" r="28.9"/>
	<circle class="st0" cx="419.9" cy="419.7" r="28.9"/>
	<path class="st0" d="M210.6,400.5H98.9c-18.2,0-33.1-14.9-33.1-33.1v-14.6c0-18.2,14.9-33.1,33.1-33.1h111.6
		c18.2,0,33.1,14.9,33.1,33.1v14.6C243.7,385.6,228.8,400.5,210.6,400.5z"/>
	<g>
		<path class="st1" d="M6,151.5c2.5-2.3,5.1-4.6,8.7-7.8c0-8.7,0-19.1,0-29.5c0-15.2,8.2-23.7,23.4-23.8c77.8-0.1,155.5-0.1,233.3,0
			c15.1,0,23.3,8.7,23.4,23.9c0.1,10.2,0,20.5,0,30.9c1.2,0.4,2.2,0.8,3.2,1.2c3.9,1.5,5.5,4.4,5,8.4c-0.5,3.9-2.9,6.3-6.7,6.6
			c-4.7,0.4-9.4,0.3-14.1,0.4c-1.9,0-3.9,0-6.5,0c0,6.1-0.3,11.7,0.2,17.3c0.2,1.6,2.7,3.4,4.6,4.3c11.5,5.8,18.8,14.9,21.7,27.3
			c0.9,3.8,1.2,7.7,1.2,11.6c0.1,81.8,0.1,163.6,0,245.5c0,24.1-14.1,38.1-38.3,38.1c-72.4,0-144.8,0-217.2,0
			c-24.9,0-33.7-6.2-42-29.3C6,389.1,6,301.6,6,214c3.4-14.6,11.4-25.5,25.3-31.9c1-0.4,2.1-1.8,2.1-2.8c0.2-5.6,0.1-11.3,0.1-17.4
			c-5.7,0-10.8-0.1-16,0c-4.9,0.2-8.9-1.1-11.5-5.5C6,154.8,6,153.2,6,151.5z M287.1,283.3c-88.6,0-176.6,0-264.8,0
			c0,51.5,0,102.6,0,153.8c88.5,0,176.6,0,264.8,0C287.1,385.7,287.1,334.7,287.1,283.3z M287.3,266.6c0-15.4,0-30.3,0-45.3
			c0-10.5-4.2-18.5-13.8-23.4c-2.6-1.3-5-3-7.6-4.3c-4.5-2.2-6.3-5.6-6.2-10.6c0.2-6.9,0.1-13.9,0.1-20.9c-70.3,0-140,0-210.2,0
			c0,4.3,0,8.4,0,12.4c0,17.5,1,14.9-13.2,23.1c-0.7,0.4-1.4,0.8-2.1,1.2c-6.9,3.8-11.4,9.7-11.8,17.4c-0.7,13.8-0.5,27.6-0.7,41.4
			c0,2.9,0,5.8,0,8.9C110.5,266.6,198.6,266.6,287.3,266.6z M287.2,453.6c-88.7,0-176.8,0-265.3,0c0,5,0,9.7,0,14.4
			c0,15.1,7.1,22.2,22.1,22.2c73.8,0,147.7,0,221.5,0c2.6,0,5.2-0.2,7.8-0.7c7.3-1.5,13.3-7.8,13.8-15.2
			C287.5,467.4,287.2,460.6,287.2,453.6z M67.5,107.1c-0.9-0.3-1.2-0.5-1.5-0.5c-7.2,0-14.3-0.1-21.5-0.1c-14,0-14,0-14,14.3
			c0,8.2,0,16.5,0,24.7c83.1,0,165.5,0,248.1,0c0-11.4,0.2-22.5-0.2-33.5c-0.1-1.8-2.8-5.1-4.4-5.1c-10.5-0.5-21-0.2-32-0.2
			c0,4.5,0.2,8.5-0.1,12.5c-0.1,2.4-0.2,5.5-1.6,6.9c-1.9,1.9-5.2,3.5-7.8,3.4c-4.3-0.1-6.3-3.7-6.5-7.8c-0.2-4.9-0.1-9.9-0.1-14.8
			c-12.7,0-24.5,0-36.9,0c0,4.5,0.2,8.7-0.1,12.8c-0.1,2.2-0.2,5.2-1.5,6.4c-2,1.9-5.2,3.5-7.8,3.4c-4.3-0.1-6.4-3.7-6.5-7.8
			c-0.2-5-0.1-9.9-0.1-14.9c-12.6,0-24.5,0-36.9,0c0,4.7,0.4,9.3-0.1,13.7c-0.3,2.7-1.4,6-3.3,7.5c-1.7,1.4-5.8,1.9-7.5,0.8
			c-2.3-1.5-4.3-4.8-4.8-7.6c-0.8-4.7-0.2-9.6-0.2-14.3c-12.7,0-24.6,0-36.9,0c0,4.9,0.1,9.4,0,14c-0.1,5.6-3.4,9.2-8.1,9
			c-4.5-0.2-7.6-3.7-7.7-9C67.4,116.3,67.5,111.8,67.5,107.1z"/>
		<path class="st1" d="M453.2,6c10.1,2.4,20,5.4,28.4,11.9c15.2,11.8,23.4,27.2,24.2,46.4c0.4,9.9,0.1,19.8,0.1,29.8
			c0,116.5,0,233,0,349.5c0,30.3-18.3,54.1-47.1,60.7c-4.7,1.1-9.7,1.5-14.5,1.5c-40,0.1-80.1,0.1-120.1,0c-1.9,0-4-0.1-5.8-0.7
			c-3.7-1.2-5.4-4.1-5.1-8c0.3-3.9,2.6-6.3,6.4-6.9c1.9-0.3,3.9-0.3,5.8-0.3c38.9,0,77.8,0,116.7,0c10.8,0,21-2.2,29.8-8.9
			c13-9.9,18-23.3,18-39.2c-0.1-75.2,0-150.4,0-225.5c0-48.8,0-97.6,0-146.4c0-11-2.2-21.3-9-30.2c-9.4-12.3-22.1-17.8-37.3-17.8
			c-69.5-0.1-139-0.1-208.4,0c-22.7,0-39.2,12.8-44.8,34c-0.8,3.1-0.8,6.4-1.4,9.6c-0.9,5.8-4.2,8.9-8.8,8.3
			c-4.7-0.5-7.5-4.2-7.1-9.9c1.3-20.7,10.1-37.4,27.9-48.2c7.4-4.5,16.4-6.6,24.6-9.8C301.5,6,377.4,6,453.2,6z"/>
		<path class="st1" d="M331.5,207.6c0-52.2,0-104.4,0-156.6c0-2.3,0.1-4.6,0.5-6.8c0.8-3.8,3.3-5.9,7.2-6c4.1-0.1,6.8,1.9,7.8,5.9
			c0.4,1.7,0.5,3.5,0.5,5.3c0,105.9,0,211.7,0,317.6c0,1.9-0.1,3.9-0.7,5.8c-1.1,3.7-3.9,5.5-7.7,5.4c-3.6-0.2-6.2-2.1-7-5.7
			c-0.5-2.2-0.6-4.5-0.6-6.8C331.5,313,331.5,260.3,331.5,207.6z"/>
		<path class="st1" d="M379.9,92.4c-0.1-21.2,17.1-38.7,38.5-39.1c21-0.4,39.2,17.7,39.2,39c-0.1,21.2-17.6,38.7-38.8,38.8
			C397.5,131.1,380,113.7,379.9,92.4z M418.8,69.4c-12.6,0-23,10.3-23,22.8c0,12.4,10.5,23,23,23c12.5,0,22.9-10.4,22.9-23
			C441.6,79.5,431.5,69.4,418.8,69.4z"/>
		<path class="st1" d="M457.4,417.6c1.8,19.4-14.3,38.5-33.4,40.7c-23.4,2.7-41.9-14.4-43.9-34.6c-2.1-21.6,13.6-40.6,35.1-42.6
			C436.4,379.1,456.3,395.2,457.4,417.6z M441.6,419.7c0-12.6-10.4-23-22.9-22.9c-12.4,0.1-23,10.7-22.9,23.1
			c0.1,12.6,10.5,22.8,23.1,22.8C431.5,442.6,441.6,432.4,441.6,419.7z"/>
		<path class="st1" d="M379.9,201.3c0.1-21.2,17.7-38.8,38.8-38.8c21.1,0,38.7,17.6,38.9,38.8c0.1,21.3-17.9,39.3-39.1,39
			C397.2,240.1,379.8,222.5,379.9,201.3z M441.6,201.4c0-12.7-10.1-22.8-22.9-22.8c-12.7,0-23,10.3-23,22.9c0,12.5,10.5,23,23,22.9
			C431.3,224.3,441.6,214,441.6,201.4z"/>
		<path class="st1" d="M457.4,308.4c1.9,20.9-14.7,39.6-37.3,40.9c-20.5,1.1-37.8-14.3-39.9-34.8c-2.2-22.2,13.8-41,36.6-42.6
			C437.3,270.4,456.3,286.4,457.4,308.4z M418.7,333.4c12.8,0,22.9-10.1,22.9-22.8c0-12.6-10.2-23-22.8-23
			c-12.5,0-23,10.4-23.1,22.9C395.7,323.1,406,333.4,418.7,333.4z"/>
		<path class="st1" d="M347.6,434.5c0,9.4,0,18.8,0,28.3c0,2.1-0.1,4.3-0.9,6.2c-1.2,3.4-4.2,5.6-7.6,4.6c-2.6-0.7-4.9-3-6.9-5.1
			c-0.9-1-0.7-3.1-0.7-4.7c0-19.7,0-39.3,0-59c0-1.3,0.2-2.6,0.4-3.9c0.8-4,3.3-6.3,7.4-6.4c4.3-0.1,7,2.2,7.9,6.4
			c0.3,1.6,0.4,3.2,0.4,4.8C347.6,415.3,347.6,424.9,347.6,434.5z"/>
		<path class="st1" d="M260.5,68.4c-4.4,1.6-8.6,2.7-12.5,4.5c-5.3,2.4-9.5,1.6-11.8-2.6c-2.3-4.2-0.8-8.6,4.2-11.4
			c13.6-7.7,27.2-7.6,40.6,0.5c4.7,2.8,6,7.5,3.5,11.6c-2.3,3.7-6.8,4.3-11.6,2.1C269,71.3,264.8,70,260.5,68.4z"/>
		<path class="st1" d="M154.5,408.3c-16.6,0-33.2,0.3-49.8-0.1c-28.6-0.6-50.9-28.8-45.3-56.9c4.6-22.9,23.9-39.4,47.3-39.6
			c31.9-0.2,63.8-0.2,95.7,0c23.1,0.2,42.5,16.3,47.4,38.9c4.7,21.3-7.2,44.5-28.1,53.5c-6.1,2.6-13.2,3.8-19.8,4.1
			C186.1,408.8,170.3,408.4,154.5,408.3C154.5,408.4,154.5,408.4,154.5,408.3z M162.9,392.6c13,0,25.5,0,38,0c2.3,0,4.5-0.3,6.8-0.7
			c15.7-2.3,27.4-16.4,27-32.6c-0.4-16.3-12.7-30.1-28.6-31c-13.8-0.8-27.6-0.4-41.4-0.5c-0.6,0-1.1,0.4-1.7,0.7
			C162.9,349.7,162.9,370.8,162.9,392.6z M146.5,328.1c-14.5,0-28.6-0.6-42.7,0.2c-16.5,0.9-28.9,15-29.3,31.5
			c-0.3,16,11.9,30.7,28.2,32c14.2,1.1,28.6,0.5,42.9,0.6c0.3,0,0.5-0.4,0.9-0.7C146.5,370.8,146.5,349.6,146.5,328.1z"/>
		<path class="st1" d="M186.8,177.6c15,0,29.9,0,44.9,0c1.8,0,3.6,0,5.4,0.2c4.1,0.6,6.4,3.3,6.6,7.3c0.2,3.8-1.6,6.6-5.4,7.8
			c-1.7,0.5-3.5,0.6-5.3,0.6c-30.9,0-61.8,0-92.7,0c-1.5,0-3,0-4.4-0.3c-4.2-1-6.6-3.8-6.4-8c0.2-4.2,2.6-7,7-7.4
			c3.9-0.3,7.8-0.2,11.7-0.2C161.1,177.6,174,177.6,186.8,177.6z"/>
		<path class="st1" d="M89.7,193.5c-5,0-10.1,0.1-15.1,0c-5.4-0.1-8.8-3.2-8.9-7.7c-0.1-4.7,3.3-8,9-8.1c9.9-0.1,19.8-0.1,29.7,0
			c5.6,0.1,9.1,3.4,9,8.1c-0.2,4.5-3.7,7.6-9,7.7C99.4,193.6,94.5,193.5,89.7,193.5z"/>
	</g>
</g>
</svg>
