<?xml version="1.0" encoding="utf-8"?>
<!-- Generator: Adobe Illustrator 22.1.0, SVG Export Plug-In . SVG Version: 6.00 Build 0)  -->
<svg version="1.1" id="Layer_1" xmlns="http://www.w3.org/2000/svg" xmlns:xlink="http://www.w3.org/1999/xlink" x="0px" y="0px"
	 viewBox="0 0 512 512" style="enable-background:new 0 0 512 512;" xml:space="preserve">
<style type="text/css">
	.st0{fill-rule:evenodd;clip-rule:evenodd;fill:#666766;}
</style>
<g>
	<path class="st0" d="M251.1,6c3.3,0,6.5,0,9.8,0c1.9,0.4,3.8,0.8,5.7,1.1c8.5,1.1,17.2,1.5,25.5,3.1c60.2,12.2,105,45.7,134.4,99.4
		c14.7,26.8,21.6,55.8,22.4,86.3c0.1,3.6,1.2,4.9,4.8,4.8c5.5-0.2,11.1-0.1,16.6-0.1c10.1,0,12.9,2.9,12.9,13.1
		c0,92.4-0.1,184.8,0.1,277.2c0,7.2-1.7,12.3-8.6,15.1c-145.8,0-291.7,0-437.5,0c-6.9-2.7-8.6-7.8-8.6-15
		c0.3-38.2,0.1-76.5,0.1-114.7c0-54.8,0-109.6,0-164.5c0-7.5,3.5-11.1,10.9-11.1c6.2,0,12.4-0.2,18.5,0c3.6,0.1,4.5-1.1,4.9-4.7
		c1.1-12.3,1.8-24.7,4.4-36.7c9-43,30.7-78.7,64.1-107.1c29.1-24.7,62.7-39.5,100.7-44C238.6,7.5,244.9,6.7,251.1,6z M256,485.9
		c67.2,0,134.4,0,201.6,0c6.5,0,6.5,0,6.5-6.4c0-84.5,0-168.9,0-253.4c0-6.5,0-6.5-6.6-6.5c-134.2,0-268.5,0-402.7,0
		c-6.7,0-6.8,0-6.8,6.8c0,84.3,0,168.6,0,252.9c0,6.5,0,6.5,6.8,6.5C121.9,485.9,188.9,485.9,256,485.9z M256.1,200.6
		c45.2,0,90.5,0,135.7,0c10.7,0,21.5-0.2,32.2,0.1c4.4,0.1,5.7-1.4,5.3-5.6c-0.6-6.5-0.4-13-1.4-19.4
		c-7.1-46.4-28.8-84.6-65.9-113.4c-37.8-29.3-80.9-40.7-128.2-34.9c-35.3,4.3-66.5,18.6-92.9,42.5c-36.7,33.2-56.5,74.6-58.1,124.4
		c-0.2,6.3,0,6.3,6.3,6.3C144.8,200.7,200.4,200.6,256.1,200.6z"/>
	<path class="st0" d="M246.5,396c0-8.3-0.2-16.6,0.1-24.9c0.1-4.1-1.2-5.9-5.2-7.2c-19.4-6.4-32.3-24.8-31.9-44.9
		c0.5-22.8,19.6-43.4,41.5-45.1c30.4-2.4,48,20.5,50.9,39c3.4,22.3-10.6,44.8-31.4,51.1c-3.8,1.2-5,2.9-5,6.9
		c0.2,15.9,0.1,31.9,0.1,47.8c0,8.8-3.5,13.7-9.6,13.6c-6.1-0.1-9.4-4.9-9.4-13.9C246.5,411,246.5,403.5,246.5,396z M282.8,320.3
		c0-15-11.7-27-26.6-27.3c-14.5-0.3-26.9,12.1-27,26.9c0,15.2,11.6,27.1,26.5,27.2C270.7,347.2,282.7,335.3,282.8,320.3z"/>
</g>
</svg>
