<?xml version="1.0" encoding="utf-8"?>
<!-- Generator: Adobe Illustrator 22.1.0, SVG Export Plug-In . SVG Version: 6.00 Build 0)  -->
<svg version="1.1" id="Layer_1" xmlns="http://www.w3.org/2000/svg" xmlns:xlink="http://www.w3.org/1999/xlink" x="0px" y="0px"
	 viewBox="0 0 512 512" style="enable-background:new 0 0 512 512;" xml:space="preserve">
<style type="text/css">
	.st0{fill:#4BC1EA;}
	.st1{fill:#3762AE;}
</style>
<g>
	<path class="st0" d="M147.1,403.3l51.3-66.3H318l45.2,66.3l-48.8,86c0,0-92.8,22.9-111.1,0S147.1,403.3,147.1,403.3z"/>
	<path class="st0" d="M459.6,123.4l-23,81.8l62,67.7c0,0,1.5-31.6-9.6-72.9S471.8,135.6,459.6,123.4z"/>
	<path class="st0" d="M52,124.9l23.1,82.7l98.8,33l82.4-73.2l-0.5-96.4l-97.1-39.1C158.8,31.9,66.1,101.9,52,124.9z"/>
	<g>
		<path class="st1" d="M6,270.6c0-9.8,0-19.5,0-29.3c0.3-1.4,0.7-2.8,0.8-4.2c2.4-34.9,11.7-67.9,28.5-98.5
			c38.9-70.4,98-113.5,177.1-128.7c9.5-1.8,19.3-2.7,28.9-3.9c9.8,0,19.5,0,29.3,0c3.5,0.4,7.1,0.8,10.6,1.2
			c53.1,5.9,100.2,25.9,140.1,61.6c52.7,47.1,80.9,106.3,84.4,176.8c2.2,45.1-7,88.2-29.1,127.7c-45.9,82-116.2,126.5-210.1,132.3
			c-45.1,2.8-88.1-7.2-127.7-29C68.2,437.8,25.1,378.7,9.9,299.5C8.1,290,7.3,280.3,6,270.6z M264.4,123.6c0,13.7-0.1,27.3,0.1,41
			c0,2.2,1.4,5.1,3.1,6.4c23.4,19,46.9,37.7,70.4,56.6c2.4,1.9,4.3,2,7.1,1.1c27.7-9.3,55.4-18.6,83.2-27.7c2.9-1,4.4-2.4,5.1-5.5
			c5.1-22.2,10.4-44.3,15.4-66.5c0.4-1.8-0.1-4.2-1.1-5.7c-24-34.4-54.8-60.6-92.8-78.4c-1.8-0.8-4.5-0.9-6.3-0.2
			c-26.8,10.5-53.4,21.3-80.2,31.8c-3,1.2-4.1,2.7-4.1,6.1C264.5,96.3,264.4,110,264.4,123.6z M247.6,123.7
			c0-13.8-0.1-27.7,0.1-41.5c0-2.8-0.8-4.3-3.5-5.4c-27.1-10.6-54.1-21.4-81.1-31.9c-1.7-0.7-4.2-0.7-5.9,0
			c-38.1,17.9-69,44.3-93.1,78.8c-0.9,1.4-1.2,3.7-0.9,5.3c5.1,22.2,10.4,44.3,15.5,66.4c0.7,3.1,2.1,4.6,5.1,5.5
			c27.8,9.1,55.5,18.4,83.2,27.7c3,1,5,0.6,7.5-1.3c23.3-18.8,46.6-37.5,70.1-56.1c2.5-2,3.2-4,3.2-7
			C247.6,150.7,247.6,137.2,247.6,123.7z M142.7,396.8c0.6-0.4,2.2-1.1,3.1-2.3c13.7-18.2,27.4-36.4,41-54.7c1-1.3,1.4-3.6,1-5.2
			c-7-28.6-14.1-57.1-21.4-85.6c-0.4-1.6-2.2-3.6-3.8-4.2c-28-9.5-56-18.8-84.1-28c-1.4-0.4-3.9,0.1-4.8,1.2
			c-16.2,19.1-32.2,38.4-48.1,57.7c-1,1.2-1.5,3.2-1.3,4.8c3.7,36,15.4,69.3,34.8,99.8c1.2,1.9,3.7,3.5,5.9,4
			c8.1,1.6,16.3,2.7,24.5,4C106.8,391.1,124.1,393.8,142.7,396.8z M488.9,279.5c-1.1-1.7-1.9-3.1-2.8-4.3
			c-15.7-18.9-31.5-37.7-47.1-56.6c-1.7-2-3-2.7-5.7-1.8c-27.8,9.4-55.7,18.6-83.6,28c-1.7,0.6-3.7,2.7-4.1,4.5
			c-7.3,28.5-14.4,57-21.4,85.5c-0.4,1.5,0,3.6,0.9,4.8c13.7,18.4,27.6,36.6,41.5,54.8c0.9,1.2,3.3,2.3,4.8,2
			c25.5-3.9,51-7.9,76.5-12.2c1.9-0.3,4-2,5.1-3.6c12.1-18.7,21.3-38.7,27.1-60.2C483.7,306.9,486,293.1,488.9,279.5z M255.9,347.7
			c-16.8,0-33.5-0.1-50.3,0.1c-2,0-4.7,1.3-5.9,2.9c-13.2,17.3-26.2,34.8-39.4,52.2c-2.1,2.7-2,4.5-0.2,7.2
			c14.9,23.1,29.7,46.2,44.3,69.5c2.2,3.5,4.8,5.1,8.8,5.8c31.6,5.7,63.1,5.2,94.4-2.1c2.2-0.5,4.7-2.4,5.8-4.3
			c13.3-22.9,26.3-46,39.6-68.9c1.6-2.8,1.3-4.4-0.5-6.8c-13.4-17.4-26.6-34.9-39.8-52.5c-1.8-2.4-3.6-3.2-6.5-3.2
			C289.4,347.8,272.6,347.7,255.9,347.7z M307.4,331.1c0.5-1,0.8-1.5,0.9-1.9c7-27.9,14-55.8,20.8-83.7c0.4-1.6-1-4.3-2.4-5.4
			c-22.4-18.1-44.9-36.1-67.4-54.1c-1.1-0.9-2.3-1.6-3.5-2.5c-24,19.2-47.8,38.1-71.4,57.3c-1.2,1-1.7,4-1.3,5.8
			c6.5,26.5,13.3,52.9,19.7,79.4c0.9,3.8,2.2,5.2,6.4,5.2c18.4-0.3,36.8-0.1,55.2-0.1C278.7,331.1,293,331.1,307.4,331.1z
			 M182.8,34.6c2,0.9,3.2,1.4,4.4,1.8C208.8,45,230.4,53.6,252,62c2.4,0.9,5.7,0.8,8.1-0.1c19.5-7.6,38.9-15.4,58.4-23.2
			c3.1-1.2,6.1-2.5,10.4-4.2C279.6,18.9,231.7,18.9,182.8,34.6z M182.7,477.4c-0.4-1.2-0.4-1.6-0.7-2
			c-12.7-19.9-25.3-39.7-38.1-59.5c-0.9-1.4-3-2.4-4.7-2.7c-11.5-2-23.1-3.8-34.6-5.7c-9.4-1.5-18.8-2.9-29.6-4.5
			C104.6,438.4,139.9,462.8,182.7,477.4z M335.1,475.4c40.6-15.1,73.9-38.7,101.5-72.1c-2.1,0.1-3,0.1-4,0.3
			c-19.6,3.1-39.1,6.1-58.6,9.5c-2.1,0.4-4.7,2.2-5.8,4c-10.5,17.9-20.8,36-31.1,54C336.6,472.2,336.1,473.3,335.1,475.4z
			 M489.1,252c0.3-32.9-15.9-93.8-27.6-103.9c-4.2,17.8-8.3,35.5-12.3,53.2c-0.3,1.4,0.2,3.5,1.2,4.7c12.1,14.7,24.3,29.3,36.5,43.9
			C487.3,250.5,487.9,250.9,489.1,252z M22.8,251.6c0.9-0.4,1.3-0.5,1.5-0.7c12.6-15.1,25.3-30.2,37.8-45.4c0.9-1.1,1-3.3,0.6-4.8
			c-3.4-15-7-30.1-10.5-45.1c-0.6-2.6-1.2-5.2-2.1-9.1C32.4,180.3,23.7,214.7,22.8,251.6z"/>
	</g>
</g>
</svg>
