<?xml version="1.0" encoding="utf-8"?>
<!-- Generator: Adobe Illustrator 22.1.0, SVG Export Plug-In . SVG Version: 6.00 Build 0)  -->
<svg version="1.1" id="Layer_1" xmlns="http://www.w3.org/2000/svg" xmlns:xlink="http://www.w3.org/1999/xlink" x="0px" y="0px"
	 viewBox="0 0 512 512" style="enable-background:new 0 0 512 512;" xml:space="preserve">
<style type="text/css">
	.st0{fill:#4BC1EA;}
	.st1{fill:#3762AE;}
</style>
<g>
	<path class="st0" d="M11.1,142.2L49,123.1v342.6l47.6-11l97.7-6.1l61.8,12.9v34.2H114.9H35.6c0,0-22-2-22-42.2
		S11.1,142.2,11.1,142.2z"/>
	<path class="st0" d="M500.1,142.2l-37.8-19.1v342.6l-47.6-11l-97.7-6.1l-61.8,12.9v34.2h141.1h79.3c0,0,22-2,22-42.2
		S500.1,142.2,500.1,142.2z"/>
	<g>
		<path class="st1" d="M506,468.9c-2.1,10.1-5.9,19.2-13.8,26.2c-8.8,7.9-19.3,10.9-31,10.9c-110.5,0-221,0-331.5,0
			c-26.9,0-53.7,0.1-80.6,0c-20.5-0.1-36.1-11.8-41.5-31.1c-1.2-4.2-1.6-8.7-1.6-13C6,355.4,6,248.9,6,142.5c0-1.6,0-3.3,0.4-4.8
			c1-4.1,3.8-6.4,8.1-6.5c3.9-0.1,7.4,3.1,8,7.2c0.3,1.9,0.2,3.9,0.2,5.8c0,105.3,0,210.6,0,315.9c0,19.6,9.7,29.3,29.4,29.3
			c63.1,0,126.3,0,189.4,0c1.8,0,3.5,0,6.1,0c0-6.2,0.2-12.2-0.2-18.1c-0.1-1-2-2.3-3.3-2.8c-20.5-7.9-41.7-12.5-63.8-12.4
			c-43.1,0.3-85.7,5.2-127.5,15.6c-9.4,2.3-13.5-0.9-13.5-10.7c0-120.1,0-240.2,0-360.3c0-7.7,1.7-9.8,9.5-11.8
			C92,77.8,136.1,73,180.6,72.7c26.1-0.1,51.3,5.5,75.4,15.7c6.2,2.6,8.4,6.6,8.4,13.1c-0.1,87.7-0.1,175.4-0.1,263.2
			c0,15.1,0,30.3,0,45.4c0,1.8,0,3.5,0,6.2c2.3-1.2,4-2.1,5.6-3c42.7-23.6,86.2-45.5,132.3-61.9c3-1.1,3.8-2.6,3.8-5.7
			c-0.1-105-0.1-209.9-0.1-314.9c0-1.1-0.1-2.2-0.2-4c-1.9,0.7-3.5,1.2-5.1,1.9c-38.3,16-74.9,35.4-110.6,56.5
			c-1.7,1-3.3,2.1-5.1,2.9c-4.5,2.1-8.8,0.8-11.1-3c-2.2-3.8-1.3-8.3,2.8-11.1c4.6-3.1,9.4-5.8,14.2-8.5
			c37.9-21.9,76.7-42,117.6-57.8c1-0.4,1.9-1.1,2.8-1.7c2,0,3.9,0,5.9,0c4.4,2.8,5.7,6.9,5.7,12c-0.1,111.5-0.1,223-0.1,334.5
			c0,7.9-1.2,9.9-8.4,12.4c-52.7,18.5-102.1,43.7-150.5,71.2c-1.3,0.7-2.5,1.5-3.8,2.1c-5.9,2.7-11.4-0.3-12.2-6.7
			c-0.3-2.1-0.2-4.2-0.2-6.3c0-105.3,0-210.6,0.1-315.9c0-4.9-1.5-7-6-8.6c-22.5-7.9-45.5-11.8-69.4-11.2
			c-37.2,0.9-73.9,5.4-110.3,13.2c-5,1.1-6.3,2.9-6.3,7.9c0.2,112.1,0.1,224.3,0.1,336.4c0,1.9,0,3.9,0,6.5c8-1.6,15.5-3.2,23.1-4.6
			c33.5-6.1,67.3-9.5,101.4-9.5c24.9,0,48.7,5.3,71.8,14.1c2.4,0.9,5.8,1.1,8.2,0.3c34.9-12.1,70.7-16.2,107.6-13.7
			c29.4,2,58.5,6.1,87.7,13c0.1-1.9,0.2-3.6,0.2-5.3c0-112.8,0-225.6,0.1-338.4c0-4.2-1.2-5.8-5.3-6.1c-2.4-0.1-4.8-0.8-7.1-1.7
			c-4-1.6-5.8-4.9-4.9-9c0.8-4.1,3.6-7,7.9-6.5c6.9,0.8,13.9,2,20.5,4.1c2.3,0.7,3.9,4.3,5.2,6.9c0.7,1.3,0.2,3.2,0.2,4.8
			c0,119.3,0,238.6,0,357.9c0,0.7,0,1.3,0,2c-0.2,8.6-4.6,11.9-13.1,9.8c-11.7-2.8-23.3-5.9-35.1-8.1c-31.1-5.8-62.6-8.5-94.2-7.3
			c-21.7,0.8-42.7,6.1-63.3,13c-1.1,0.4-2.5,2.2-2.5,3.4c-0.3,5.3-0.1,10.7-0.1,16.6c2.2,0,3.9,0,5.7,0c63.6,0,127.3,0,190.9,0
			c18.3,0,28.4-10.1,28.4-28.4c0-105.5,0-210.9,0-316.4c0-1.5,0-2.9,0-4.4c0-4.4,2-7.6,6.3-8.8c4-1.1,6.9,0.7,9.2,3.9
			c0.4,0.5,0.8,1,1.1,1.5C506,247.5,506,358.2,506,468.9z"/>
		<path class="st1" d="M160.5,305.3c12.2,1.3,27.7,2.8,43.2,4.5c1.4,0.2,2.9,0.5,4.3,1c4.6,1.5,6.9,5.4,6,9.8
			c-0.9,4.2-4.9,6.9-9.6,6.3c-10-1.2-19.9-2.9-30-3.5c-23.7-1.5-47,1.3-70.2,6.4c-1.4,0.3-2.9,0.7-4.3,0.9c-5,0.9-9.1-1.5-10.2-5.9
			c-1.1-4.6,1.1-8.8,6.2-10c7.6-1.9,15.2-3.7,22.9-4.7C131.5,308.2,144.3,307.1,160.5,305.3z"/>
		<path class="st1" d="M205.3,376.2c-11.1-1.1-22.3-2.6-33.4-3.1c-24-1.1-47.7,1.9-71.1,7.3c-6.4,1.5-11.4-2-11.3-7.8
			c0.1-4.8,2.9-7.6,7.4-8.3c18.3-2.7,36.5-6.1,54.9-7.7c18.3-1.6,36.7-0.5,54.8,3.7c5.4,1.3,8.1,4.9,7.4,9.7
			C213.4,374.2,209.7,377.1,205.3,376.2z"/>
		<path class="st1" d="M206.3,176.9c-7.7-1.1-14.8-2.4-21.9-3c-27.9-2.7-55.5,0.2-82.8,6.4c-2.1,0.5-4.6,0.7-6.7,0.1
			c-3.6-1.1-5.5-4-5.4-7.8c0.1-4.6,2.9-7.2,7.1-8.1c10-2,20-4.2,30.2-5.6c26.2-3.6,52.5-4.1,78.6,1.4c1.1,0.2,2.2,0.5,3.3,0.9
			c4.3,1.6,6,4.8,5.4,9.2C213.4,174.3,210,176.9,206.3,176.9z"/>
		<path class="st1" d="M205.2,276.4c-9.2-1-18.4-2.2-27.6-2.9c-25-2.1-49.6,1.2-74,6.4c-0.8,0.2-1.6,0.4-2.4,0.6
			c-6.3,1.2-10.4-0.9-11.5-5.9c-1.1-5.2,1.7-9.3,8.2-10.5c13.7-2.5,27.5-5.1,41.3-6.6c21.9-2.5,43.8-1.8,65.5,2.6
			c1.1,0.2,2.2,0.5,3.3,0.8c4.5,1.6,6.6,5.1,5.9,9.4C213.3,274.3,209.9,276.9,205.2,276.4z"/>
		<path class="st1" d="M164,205.2c13.6,1.6,27.6,3.2,41.6,5c4.3,0.6,7.8,2.6,8.5,7.4c0.9,6.3-4.1,10.1-11.5,9.1
			c-7.4-1.1-14.8-2.3-22.2-3c-26.2-2.4-51.9,0.8-77.4,6.4c-1.1,0.2-2.2,0.6-3.3,0.7c-5.3,0.6-9-1.8-9.9-6.4
			c-0.9-4.6,1.5-8.5,6.6-9.8c6.8-1.7,13.6-3.4,20.5-4.2C132.3,208.3,147.8,206.9,164,205.2z"/>
		<path class="st1" d="M381.6,257c-1.7,2-3.3,5.3-5.8,6.4c-24.5,11.2-49.1,22.1-73.7,33c-5.2,2.3-9.7,0.8-11.7-3.4
			c-2.1-4.5-0.5-9.2,4.8-11.6c24.1-10.9,48.2-21.7,72.5-32.3c5.7-2.5,9.8-1.3,12,2.7C380.3,253,380.6,254.4,381.6,257z"/>
		<path class="st1" d="M371.5,297.9c5,0,7.8,2,9,5.8c1.2,3.9-0.2,7-3.5,9.2c-0.9,0.6-2,1.1-3,1.5c-22.5,10-45.1,20-67.6,30
			c-1.3,0.6-2.6,1.3-4,1.9c-5.4,2.3-10.1,0.9-12.1-3.4c-2.1-4.6-0.3-8.9,4.9-11.6c9.1-4.6,18.3-9.3,27.6-13.4
			c14.5-6.4,29.3-12.5,43.9-18.6C368.5,298.5,370.4,298.2,371.5,297.9z"/>
		<path class="st1" d="M381.9,156.9c-2.2,2.3-4,5.6-6.7,6.8c-24.2,11.1-48.6,21.8-72.9,32.6c-5.4,2.4-10.1,1-12.1-3.5
			c-2-4.4-0.5-9,4.6-11.3c24.2-11,48.5-21.9,72.9-32.6c6.2-2.7,11.1-0.5,12.8,4.6c0.2,0.8,0.3,1.6,0.5,2.4
			C381.3,156.3,381.6,156.6,381.9,156.9z"/>
		<path class="st1" d="M296.4,248.3c-2.1-1.9-5.3-3.6-6-5.9c-0.7-2.6,0.7-6,1.6-8.9c0.3-1,2-1.6,3.1-2.2
			c23.5-10.6,47-21.4,70.6-31.7c8-3.5,12.8-1.8,14.7,3.9c1.7,5.1-1.4,8.5-9.2,11.9c-22.2,9.7-44.1,19.7-66.2,29.6
			C302.6,246.1,300,246.9,296.4,248.3z"/>
		<path class="st1" d="M296.5,148.3c-2-1.8-5.3-3.4-6-5.8c-0.8-2.6,0.6-6,1.5-8.9c0.3-1,1.9-1.7,3.1-2.3
			c24.1-10.8,48.3-21.6,72.4-32.4c1.7-0.8,3.8-1.2,5.7-1.1c4,0.2,6.7,2.6,7.5,6.4c0.9,4-0.7,7.2-4.3,8.9c-4.3,2-8.9,3.2-13.1,5.1
			c-19.5,8.8-39,17.8-58.4,26.7C302.4,146.2,299.9,147,296.5,148.3z"/>
	</g>
</g>
</svg>
