<?xml version="1.0" encoding="utf-8"?>
<!-- Generator: Adobe Illustrator 22.1.0, SVG Export Plug-In . SVG Version: 6.00 Build 0)  -->
<svg version="1.1" id="Layer_1" xmlns="http://www.w3.org/2000/svg" xmlns:xlink="http://www.w3.org/1999/xlink" x="0px" y="0px"
	 viewBox="0 0 512 512" style="enable-background:new 0 0 512 512;" xml:space="preserve">
<style type="text/css">
	.st0{fill:#FFFFFF;}
</style>
<g>
	<path class="st0" d="M506,259.9c-3.1,4.2-5.8,9-9.5,12.7c-50.5,50.7-101.2,101.3-151.8,152c-5.3,5.3-11.1,8.6-18.7,6.6
		c-12.3-3.2-17.5-17.1-10.2-27.5c1.4-2,3.1-3.7,4.9-5.4c40-39.9,79.9-79.8,119.9-119.7c1.3-1.2,2.8-2.2,4.3-3.2
		c-0.3-0.5-0.5-1.1-0.8-1.6c-1.8,0-3.7,0-5.5,0c-136.7,0-273.4,0-410.2,0c-2.8,0-5.6,0.1-8.3-0.4c-8.5-1.6-14.6-9.8-14-18.6
		c0.6-8.9,7.5-15.8,16.4-16.4c2.1-0.1,4.2-0.1,6.3-0.1c136.4,0,272.8,0,409.2,0c1.9,0,3.8,0,7.1,0c-2-2.1-3.2-3.5-4.4-4.8
		c-40.3-40.3-80.5-80.6-120.9-120.8c-5.7-5.7-8.9-12-6.3-20.1c3.8-11.9,17.9-16.2,27.7-8.4c1.7,1.3,3.1,2.8,4.6,4.3
		c50.3,50.3,100.6,100.6,150.8,151c3.7,3.7,6.4,8.4,9.5,12.6C506,254.7,506,257.3,506,259.9z"/>
</g>
</svg>
