<?xml version="1.0" encoding="utf-8"?>
<!-- Generator: Adobe Illustrator 22.1.0, SVG Export Plug-In . SVG Version: 6.00 Build 0)  -->
<svg version="1.1" id="Layer_1" xmlns="http://www.w3.org/2000/svg" xmlns:xlink="http://www.w3.org/1999/xlink" x="0px" y="0px"
	 viewBox="0 0 512 512" style="enable-background:new 0 0 512 512;" xml:space="preserve">
<style type="text/css">
	.st0{fill:#4BC1EA;}
	.st1{fill:#3762AE;}
</style>
<g>
	<path class="st0" d="M323.8,413.3l-24.6,32.1c0,0-7.1,6.1-2.7,21.1c4.5,15,14.6,27.2,14.6,27.2h30.9l17.5-15.8l2.4-24.4l-12.2-24
		l-18.3-16.2H323.8z"/>
	<path class="st0" d="M191.2,380.4l-24.6,32.1c0,0-7.1,6.1-2.7,21.1s14.6,27.2,14.6,27.2h30.9l17.5-15.8l2.4-24.4l-12.2-24
		l-18.3-16.2H191.2z"/>
	<g>
		<path class="st1" d="M322.2,506c-10.1-2.6-19.1-7-25.6-15.6c-5.3-7-7.8-14.9-7.8-23.5c0-4.1,2.4-6.8,6.4-7.3
			c3.8-0.5,6.6,1.5,7.7,5.3c0.8,2.9,0.9,6.1,1.8,9c3.7,12.4,15.8,19.5,28.5,16.7c12.4-2.7,20.4-14.5,18.9-27.3
			c-2-16.9-12-28.9-24.5-41c-4.9,5.8-9.7,11.4-14.4,17.1c-1.4,1.7-2.4,3.9-3.7,5.7c-2.8,3.7-6.9,4.6-10.2,2.4
			c-3.4-2.2-4.8-6.6-2.1-10.2c7.1-9.2,14.3-18.4,22.5-26.7c7-7.1,9.2-6.5,16.8,0.1c13.4,11.6,23.8,25.1,28.8,42.4
			c7.1,24.7-6.9,47.6-30.1,52.2c-0.4,0.1-0.8,0.5-1.2,0.7C330,506,326.1,506,322.2,506z"/>
		<path class="st1" d="M231,426.6c1.6,11.3-0.2,21.5-7.2,30.2c-10.1,12.5-26.2,16.8-41.2,11c-13.8-5.3-22.9-19.7-22.4-35
			c0.4-9.7,3.7-18.3,8.4-26.6c0.9-1.5,1.8-3,3-5c-6.2,0.7-11.9,1.3-17.6,1.9c-10.4,1-20.5,0-30-4.2c-15.1-6.6-22.3-19-23.9-34.7
			c-3.1-29,7.7-53.7,24.7-76.3c4.3-5.7,8.8-11.4,14.3-15.9c11.1-9.2,17.3-21.1,20.3-34.6c5-22.8,9.2-45.7,13.7-68.6
			c0.4-2.1,0.6-4.2,1-6.2c0.9-4.8,4.3-7.7,8.3-7.3c4.2,0.5,6.9,3.8,6.3,8.8c-1.1,8.5-2.3,17-4,25.4c-3.6,17.8-7.2,35.6-11.4,53.2
			c-3.7,15.4-11.6,28.4-23.3,39.6c-17.3,16.7-29.9,36.6-34.9,60.7c-1.8,8.7-1.6,17.4,1.1,26c3.7,11.9,12.3,17.4,24,19
			c15.4,2,29.9-1.8,45.1-6.2c-5.5-5.2-12.2-6.7-18.6-8.4c-2.2-0.6-4.5-0.7-6.7-1.1c-4.4-0.7-7.4-4-7.1-7.8c0.3-4.2,3.7-7.2,8.6-6.7
			c17.2,1.5,32,7.7,42.7,21.9c5.7,7.5,11.2,15.3,17.9,21.7c23.2,22.4,50,19.4,71.4-3.3c5-5.3,9.4-11.2,13.5-17.2
			c10.4-14.8,25.2-21.4,42.5-23.2c5.6-0.6,9.2,2.1,9.6,6.6c0.4,4.2-2.7,7.1-8.4,8c-8.3,1.3-16.5,3.2-23.5,8.6
			c11.6,5.7,37.8,9.8,50.8,5.7c11.6-3.6,18.6-12.9,19.3-26.4c1.2-21.5-5.7-40.7-18-57.9C373,293.9,365,286.3,358,278
			c-1.7-2.1-3.4-5-3.4-7.5c0-2,2.3-5.2,4.1-5.7c2.4-0.7,6.1,0,8,1.6c15.4,13.3,27.9,29,36.2,47.7c6.9,15.6,10.8,31.8,9.1,49.2
			c-2.2,21.6-15.7,36.4-37.2,39.4c-17.6,2.5-34.5-1-51.2-6.3c-7.4-2.4-7.3-2.3-12.1,3.7c-13,16.4-28.5,29-50.2,31.4
			c-5.1,0.6-10.4,0.1-15.5-0.6C241.1,429.9,236.4,428.1,231,426.6z M195.3,396c-1.7,2.1-3.1,3.9-4.6,5.6
			c-8.3,9.4-15.4,19.4-15.7,32.6c-0.3,12.5,9.7,21.9,22.5,21.2c11.6-0.6,20.6-11.8,19.2-23.6C214.9,417.1,206.3,406.7,195.3,396z"/>
		<path class="st1" d="M256.1,6c19.1,1,32.8,10.3,43.4,25.1c12.2,17,19.3,36.5,23.5,56.7c7.5,36.3,13.7,72.9,20.7,109.3
			c2.7,14.1,6.2,28.1,9.4,42.2c0.4,1.7,1.1,3.4,1.3,5.2c0.7,4.6-1.5,8.2-5.4,9c-4.1,0.9-7.7-1.1-8.9-5.6c-2.5-8.9-5.3-17.7-6.9-26.8
			c-5.5-29.8-10.3-59.7-15.8-89.5c-5-27.3-10-54.6-22.6-79.7c-4.4-8.8-9.7-17-17.7-22.9c-16.8-12.3-37.8-8.7-51.1,8.7
			c-11.2,14.6-17.2,31.6-21.6,49.1c-4.1,16.3-7.3,32.9-10.8,49.3c-1.5,6.9-7.2,9.8-12,6.1c-3.4-2.6-3-6.3-2.4-9.8
			c1.8-9.6,3.6-19.1,5.7-28.6c4.9-21.7,10.3-43.2,21.3-62.8c7.5-13.3,16.9-24.8,31.6-30.4C243.6,8.2,250,7.4,256.1,6z"/>
	</g>
</g>
</svg>
