<?xml version="1.0" encoding="utf-8"?>
<!-- Generator: Adobe Illustrator 22.1.0, SVG Export Plug-In . SVG Version: 6.00 Build 0)  -->
<svg version="1.1" id="Layer_1" xmlns="http://www.w3.org/2000/svg" xmlns:xlink="http://www.w3.org/1999/xlink" x="0px" y="0px"
	 viewBox="0 0 512 512" style="enable-background:new 0 0 512 512;" xml:space="preserve">
<style type="text/css">
	.st0{fill:#4BC1EA;}
	.st1{fill:#3762AE;}
</style>
<g>
	<circle class="st0" cx="402.3" cy="143.9" r="95"/>
	<g>
		<path class="st1" d="M506,154.5c-1.4,6.5-2.5,13-4.3,19.4c-4,14.1-11,26.7-20.4,37.8c4.4,7.6,4.6,10.9,1.2,14.1
			c-3.4,3.2-7.2,2.7-12.4-1.3c-8.9,5.1-17.3,10.7-26.4,15c-14.5,6.9-30,9.5-46,8.7c-3.7-0.2-6.4,0.9-9.1,3.3
			c-79.6,71.4-159.3,142.7-239,214c-1.2,1.1-2.4,2.2-3.7,3.2c-4.6,3.7-8.3,3.6-12.5-0.5c-7.2-7.1-14.2-14.3-21.4-21.6
			c-2.8,2.6-5.2,5-7.8,7.2c-17.7,14.9-37.8,18.7-59.3,10.9c-21.4-7.8-34.3-23.7-38-46.3c-3.3-20.4,3.2-37.8,17.7-52.4
			c32.6-32.6,65.1-65.2,97.7-97.7c16.5-16.5,33-32.9,49.4-49.4c15.4-15.6,18.3-35.4,8.1-54c-12-21.8-43.6-28.2-63.1-12.7
			c-2.9,2.3-5.7,4.9-8.4,7.5c-28.2,28.2-56.4,56.4-84.6,84.6c-1.3,1.3-2.1,2.9-3.2,4.4c-4.3-4.6-7.8-8.3-11.5-12.1
			c0.3-0.4,0.9-1.1,1.6-1.8c29.7-29.7,59.3-59.5,89.1-89.1c20.6-20.4,49.4-24,73.4-9.7c31.4,18.7,38.1,62.4,13.9,89.7
			c-1.8,2.1-3.8,4-5.7,6c-48.2,48.2-96.4,96.5-144.7,144.7c-13.1,13.1-17.8,28.3-12.4,46.3c8.3,27.3,43.4,38.8,66.1,21.5
			c3.4-2.6,6.6-5.7,10.2-8.9c-6.8-6.8-13.1-13.1-19.4-19.4c-7.3-7.3-7.5-10-0.7-17.5c70.4-78.7,140.8-157.5,211.4-236.1
			c4.8-5.4,7.2-10.4,7-18c-0.5-23.7,7.2-45,21.9-63.7c0.7-0.9,1.4-1.8,2-2.7c-4.4-8-4.6-11.2-1-14.3c3.5-3,7-2.5,12.5,1.8
			c6.4-4.1,12.5-8.7,19.2-12.3C417,19.1,495,58.9,505,130.3c0.2,1.2,0.7,2.4,1,3.6C506,140.8,506,147.6,506,154.5z M335.6,87.9
			c-29.3,33.8-29,89,8.6,122.4c35.8,31.8,87.6,26,113.5,1.5c-1.2-1.3-2.4-2.6-3.7-3.8c-25.7-25.8-51.4-51.7-77.1-77.5
			c-1.4-1.4-2.8-2.8-3.8-4.4c-2-3.3-1.7-6.6,1-9.4c2.8-3,6.3-3.2,9.8-1.2c1.6,1,3,2.4,4.4,3.8c25.8,25.9,51.7,51.9,77.5,77.8
			c1.2,1.2,2.5,2.3,3.7,3.5c29.2-33.4,29-90.8-11.9-124.1c-39.2-32-90.1-20.2-110.8,1.2c4.8,4.8,9.6,9.7,14.4,14.5
			c4.6,4.6,5,9.3,1.4,12.8c-3.6,3.5-8,3.1-12.4-1.4C345.3,98.6,340.6,93.4,335.6,87.9z M94.8,406.2c15.5,15.5,30.5,30.6,45.8,45.8
			c65.4-58.5,130.9-117.2,197-176.2c-29.4-15.1-51.4-37-66.5-66.6C212.1,275.1,153.4,340.7,94.8,406.2z M302.6,173.9
			c-6.3,7.1-12.2,13.4-17.7,20c-1,1.2-1.3,4-0.6,5.4c12,26.1,30.9,45.9,56,59.8c9.9,5.5,10,5.3,18.3-2.1c4.7-4.1,9.3-8.3,14.4-12.8
			C337.5,232.1,314.5,208.9,302.6,173.9z"/>
		<path class="st1" d="M466.9,156.1c0.1,4.1-3.4,7.9-7.6,8.1c-4.3,0.2-7.9-3.1-8.1-7.4c-0.2-4.5,3.2-8.2,7.7-8.3
			C463.2,148.5,466.7,151.9,466.9,156.1z"/>
		<path class="st1" d="M466.9,111.2c0,4.1-3.7,7.8-7.8,7.9c-4.4,0.1-8-3.7-7.9-8.1c0.1-4.3,3.6-7.6,7.9-7.5
			C463.4,103.5,466.9,107,466.9,111.2z"/>
	</g>
</g>
</svg>
