<?xml version="1.0" encoding="utf-8"?>
<!-- Generator: Adobe Illustrator 22.1.0, SVG Export Plug-In . SVG Version: 6.00 Build 0)  -->
<svg version="1.1" id="Layer_1" xmlns="http://www.w3.org/2000/svg" xmlns:xlink="http://www.w3.org/1999/xlink" x="0px" y="0px"
	 viewBox="0 0 512 512" style="enable-background:new 0 0 512 512;" xml:space="preserve">
<style type="text/css">
	.st0{fill:#4BC1EA;}
	.st1{fill:#3762AE;}
</style>
<g>
	<polygon class="st0" points="443.2,354.9 464,354.9 464,424.5 260.2,424.5 46.9,424.5 46.9,347.7 77.5,336.8 136.5,336.8 
		162.9,350 199.5,354.5 	"/>
	<g>
		<path class="st1" d="M6,122.2c7.2-13.9,19.8-19.3,34.5-14.7c10.3,3.2,15.4,10.2,15.4,21c0,51.9,0,103.8,0,155.7c0,1.9,0,3.9,0,6.4
			c9.3-28.3,23.5-42,47.5-42.7c28.1-0.8,44.9,14.5,52.6,42.2c0-14.2,0-27,0-39.9c0-8.1,2.8-10.9,10.8-10.9c76.3,0,152.6,0,229,0
			c21.9,0,37.4,11.4,49.8,28c3.5,4.7,6.4,9.7,10.4,15.8c0-6.7-0.2-12.3,0-17.8c0.2-7-2-14.6,4.8-20c7.7-6.1,16.7-6.7,26-5.7
			c8.3,1,15.3,4.3,19.1,12.3c0,80.4,0,160.8,0,241.2c-3.2,3.2-6.1,6.8-9.7,9.5c-2.4,1.8-5.9,2.2-8.9,3.2c-4.2,0-8.5,0-12.7,0
			c-1.1-0.3-2.1-0.8-3.2-1c-11.3-2.6-15.5-7.9-15.5-19.5c0-16.4,0-32.8,0-49.3c0-1.7-0.1-3.4-0.2-5c-133.6,0-266.5,0-399.9,0
			c0,2.1,0,3.8,0,5.6c0,15.8-0.1,31.5,0,47.3c0.1,9.5-4.6,15.6-12.9,19.3c-2.2,1-4.5,1.7-6.8,2.5c-3.6,0-7.2,0-10.7,0
			c-8.7-2.5-15.8-7-19.5-15.6C6,367.7,6,244.9,6,122.2z M454.9,347.5c0.2-0.5,0.5-0.8,0.4-1.1c-0.3-3.9-0.5-7.8-1.1-11.6
			c-3.5-21.8-10-42.4-23.9-60c-9.8-12.5-22.1-19-38.6-18.9c-70.9,0.4-141.9,0.2-212.8,0.2c-1.9,0-3.8,0-5.8,0c0,30.8,0,61.1,0,91.5
			C267.4,347.5,361.2,347.5,454.9,347.5z M455.8,364.4c-2.3,0-4.4,0-6.5,0c-96.2,0-192.4,0-288.5,0c-1.3,0-2.6,0-3.9,0
			c-6-0.2-8.5-2.2-9.8-8.1c-1.6-7-3.5-8.5-10.7-8.6c-20.8,0-41.7,0-62.5,0c-6.7,0-8.7,2.1-10.4,8.6c-0.7,2.6-2.4,5.6-4.6,6.8
			c-2.5,1.4-3,2.8-3,5.3c0.1,14,0,28,0.1,42c0,1.2,0.2,2.5,0.4,3.5c133.4,0,266.5,0,399.5,0C455.8,397.3,455.8,381.1,455.8,364.4z
			 M22.6,306.3c0,58.4,0,116.8,0,175.2c0,1.8,0.1,4.4,1.2,5.4c3.5,3,7.7,2.8,12,1.5c4.2-1.2,3.4-4.5,3.4-7.5c0-116.7,0-233.3,0-350
			c0-1.1,0.2-2.3-0.1-3.4c-0.3-1.1-1-3-1.7-3.1c-4.1-0.4-8.3-1-12.2-0.3c-4,0.7-2.6,4.7-2.6,7.4C22.6,189.9,22.6,248.1,22.6,306.3z
			 M472.7,372.2c0,37.1,0.1,74.2-0.1,111.3c0,3.8,1.3,5.3,4.8,5.6c1.6,0.1,3.2,0.3,4.9,0.2c6.7-0.3,7.1-0.7,7.1-7.3
			c0-72.7,0-145.4,0-218.2c0-7.1-0.5-7.6-7.6-7.8c-1,0-1.9,0.1-2.9,0.1c-4.4,0.1-6.3,1.6-6.3,6.7
			C472.8,299.3,472.7,335.8,472.7,372.2z M139.2,296.5c-1.1-18.9-16.3-33-34.7-31.9c-18.3,1-32.8,16.6-31.7,34
			c1.2,18.8,16.5,33.3,34.1,32.4C125.7,330,140.2,314.6,139.2,296.5z M144.5,331.3c3.2,1.6,7.1,3.5,11.4,5.6c0-10.7,0-21.1,0-29.4
			C152.6,314.2,148.5,322.7,144.5,331.3z M56.3,307.4c0,7.9,0,18.1,0,28.4c4.2-1.8,8-3.4,11.1-4.7C63.5,322.7,59.5,314.1,56.3,307.4
			z"/>
		<path class="st1" d="M389.4,22.5c-20.1,0-38.9,0-58,0c0-5.5,0-10.6,0-16.5c1.4,0,3,0,4.5,0c22.4,0,44.9,0,67.3,0
			c4.2,0,7.8,0.6,10,4.6c2.3,4.3,0.2,7.8-2.3,11.1c-19.4,25.9-38.8,51.8-58.3,77.7c-1.3,1.8-2.7,3.6-4.7,6.3c22.6,0,44.2,0,66,0
			c0,5.9,0,11,0,16.6c-1.6,0.1-3.1,0.3-4.7,0.3c-25.1,0-50.1,0.1-75.2-0.1c-2.7,0-5.7-0.4-7.9-1.7c-4.5-2.6-4.6-7.9-0.7-13.1
			c12.7-16.9,25.4-33.8,38-50.7C372,45.9,380.3,34.7,389.4,22.5z"/>
		<path class="st1" d="M263.8,89.3c-17.1,0-33,0-49.2,0c0-5.5,0-10.6,0-16.1c1-0.2,2-0.5,3.1-0.5c20.5,0,41-0.1,61.5,0
			c5.6,0,9.6,2.5,9.7,6.8c0.1,2.8-1.1,6.1-2.8,8.4c-14.1,18.5-28.4,36.8-42.7,55.1c-1,1.3-1.9,2.6-3.3,4.5c16.6,0,32.6,0,48.9,0
			c0,5.8,0,11,0,16.6c-1.5,0.1-2.9,0.2-4.3,0.2c-19.7,0-39.4,0-59,0c-4.3,0-8.3-0.5-10.3-4.9c-1.9-4.1,0-7.5,2.5-10.7
			c14.2-18.2,28.4-36.4,42.5-54.7C261.3,92.8,262.2,91.5,263.8,89.3z"/>
		<path class="st1" d="M154.8,156.1c-11.3,0-21.3,0-31.7,0c0-5.7,0-10.9,0-16.7c2.7,0,5.3,0,7.9,0c12.2,0,24.4,0,36.6,0
			c4.9,0,10.1-0.7,12.6,5c2.5,5.6-1.5,9.1-4.6,12.8c-7.7,9.3-15.4,18.5-23.1,27.7c-1,1.2-1.9,2.4-3.3,4.3c10.9,0,20.9,0,31.3,0
			c0,5.6,0,10.9,0,16.6c-1.3,0.1-2.7,0.3-4.1,0.3c-14.1,0-28.3,0-42.4,0c-4.3,0-8.3-0.6-10.3-4.9c-2-4.3,0-7.8,2.8-11.1
			C135.6,179.2,144.7,168.2,154.8,156.1z"/>
	</g>
</g>
</svg>
