<?xml version="1.0" encoding="utf-8"?>
<!-- Generator: Adobe Illustrator 22.1.0, SVG Export Plug-In . SVG Version: 6.00 Build 0)  -->
<svg version="1.1" id="Layer_1" xmlns="http://www.w3.org/2000/svg" xmlns:xlink="http://www.w3.org/1999/xlink" x="0px" y="0px"
	 viewBox="0 0 512 512" style="enable-background:new 0 0 512 512;" xml:space="preserve">
<style type="text/css">
	.st0{fill:#1F1F1F;}
</style>
<g>
	<path class="st0" d="M248.2,506c-4.3-1.2-8.7-2.2-13-3.7c-29.5-10.6-46.7-40.8-40.5-71.1c6.2-30.3,33.8-51.6,64.9-50
		c30.9,1.6,56.8,27.2,58.7,58.2c2,31.8-20.5,60.4-51.4,65.7c-1.1,0.2-2.1,0.7-3.1,1C258.6,506,253.4,506,248.2,506z"/>
	<path class="st0" d="M318.5,255.9c0,34.2-28.1,62.4-62.3,62.6c-34.4,0.1-62.8-28.2-62.7-62.7c0.1-34.2,28.3-62.3,62.5-62.3
		C290.3,193.5,318.5,221.7,318.5,255.9z"/>
	<path class="st0" d="M193.5,68.5c0-34.2,28.1-62.4,62.4-62.5c34.4-0.1,62.7,28.3,62.6,62.7c-0.2,34.2-28.4,62.3-62.6,62.2
		C221.6,130.9,193.5,102.7,193.5,68.5z"/>
</g>
</svg>
