<?xml version="1.0" encoding="utf-8"?>
<!-- Generator: Adobe Illustrator 22.1.0, SVG Export Plug-In . SVG Version: 6.00 Build 0)  -->
<svg version="1.1" id="Layer_1" xmlns="http://www.w3.org/2000/svg" xmlns:xlink="http://www.w3.org/1999/xlink" x="0px" y="0px"
	 viewBox="0 0 512 512" style="enable-background:new 0 0 512 512;" xml:space="preserve">
<style type="text/css">
	.st0{fill:#4BC1EA;}
	.st1{fill:#3762AE;}
</style>
<g>
	<polygon class="st0" points="352.7,16 410.5,16 372.3,75.8 415.4,75.8 352.7,152.6 362.5,111 325.1,105.5 	"/>
	<g>
		<path class="st1" d="M196.4,506c-6-1.5-12-2.5-17.8-4.5c-36.2-12.4-59.1-44.6-59.2-83.2c-0.1-34,0-68,0-102c0-1.8,0-3.6,0-5
			c-5.9-1.8-11.8-2.7-16.9-5.3c-14.4-7.1-22-19.2-22.1-35.2c-0.3-44.1-0.3-88.2,0-132.3c0.1-22.1,16.5-38.4,39.5-38.5
			c58.4-0.4,116.8-0.1,175.2-0.1c0.4,0,0.9,0.2,2,0.4c-11.3,17-22.5,33.7-33.9,50.7c1.6,0.9,3,1.7,4.4,2.4
			c11.2,5.6,22.4,11.2,33.6,16.6c3,1.5,4.6,3.4,5.7,6.7c3.8,12.1,8,24,11.8,36.1c1.1,3.4,2.7,4.5,6.2,4.5c20.5-0.2,41-0.1,61.5-0.1
			c1.8,0,3.5,0,4.9,0c0.5,0.8,0.8,1,0.8,1.3c-0.1,19.5,0.3,39-0.6,58.5c-0.8,16.2-16.5,31.1-32.6,32.6c-1.7,0.2-3.5,0.5-5.7,0.8
			c0,2.2,0,4.1,0,6c0,33.4,0,66.7,0,100.1c0,23.4-6.9,44.2-22.9,61.5c-13.6,14.8-30.3,23.7-50.2,26.7c-1.3,0.2-2.5,0.6-3.7,1
			c-5.5,0-11.1,0-16.6,0c0.1-1.9,0.3-3.9,0.3-5.8c0-34.7,0-69.3,0-104c0-5.7,0.1-11.4-0.2-17.1c-0.7-12.3-10.6-21.7-23-22.3
			c-11.5-0.5-22.3,8.2-24.2,19.9c-0.5,2.9-0.6,5.8-0.6,8.7c-0.1,40.2-0.1,80.4-0.2,120.6C206.8,506,201.6,506,196.4,506z M269.8,115
			c-1.3-0.2-1.8-0.4-2.2-0.4c-49.1,0-98.3-0.1-147.4,0.1c-15.6,0.1-25.2,10.4-25.2,26.1c0,42.5,0,84.9,0,127.4
			c0,17.2,10.1,27.3,27.2,27.4c12.9,0.1,25.7,0,38.6,0c1.7,0,3.5,0.2,5.3,0.2c0,4.9,0,9.4,0,14.5c-10.7,0-21.2,0-31.7,0
			c-0.1,1.3-0.3,1.9-0.3,2.5c0,36.3-0.1,72.6,0.1,108.9c0.1,14.7,5,28.1,13.8,39.9c12.3,16.4,28.7,25.9,49.6,28.7c0-2.3,0-4.3,0-6.2
			c0-32.2,0-64.4,0-96.7c0-3.9,0.2-7.8,0.6-11.7c2.7-25.8,32-41.7,54.9-29.7c15.1,7.8,21.8,20.6,21.7,37.4c-0.1,33.5,0,67,0,100.6
			c0,1.9,0,3.8,0,5.8c0.9,0.1,1.4,0.3,1.9,0.3c32.2-3.3,60.3-31.8,61.2-64.1c1-37.7,0.4-75.5,0.5-113.2c0-0.7-0.4-1.5-0.7-2.7
			c-10.1,0-20.1,0-30.3,0c0-5,0-9.5,0-14.5c2.4,0,4.5,0,6.6,0c14-0.1,28,0.3,42-0.4c11.7-0.6,20.5-9.3,21.1-21.1
			c0.7-13.6,0.3-27.3,0.3-41c0-0.3-0.3-0.5-0.9-1.2c-1.4,0-3.2,0-4.9,0c-18.9,0-37.8-0.1-56.6,0.1c-4.2,0.1-5.9-1.3-7.1-5.2
			c-4.2-13.5-8.7-26.9-13.4-40.2c-0.8-2.2-2.7-4.4-4.8-5.5c-14.3-7.4-28.7-14.5-43.1-21.8c-1.5-0.8-3-1.6-4.9-2.6
			C251.2,142.8,260.3,129.2,269.8,115z"/>
		<path class="st1" d="M328,177.2c7.9-21,15.4-41.3,23.3-62.4c-13.1,0-25.5,0-38.6,0c1.7-5.3,3.2-9.9,4.7-14.5
			c10-30,20.1-60.1,30-90.2c1-3.2,2.4-4.2,5.7-4.2c22.6,0.2,45.2,0.1,68.9,0.1c-13.1,21-25.8,41.3-39,62.5c16.6,0,32.3,0,48.8,0
			c-1.2,1.7-1.8,2.8-2.6,3.7c-27.4,33.3-54.8,66.5-82.1,99.9c-3.1,3.8-6.2,5.7-11.1,5.1C333.7,176.9,331.1,177.2,328,177.2z
			 M356.6,83.4c13.3-21.3,26-41.6,39-62.6c-12,0-23-0.1-34,0.1c-1.1,0-2.7,1.9-3.2,3.3c-3.4,9.8-6.7,19.7-9.9,29.5
			c-5.1,15.2-10.2,30.4-15.5,46.3c13.3,0,26.1,0,39.5,0c-3.9,10.6-7.6,20.5-11.3,30.5c0.3,0.2,0.6,0.3,0.9,0.5
			c12.8-15.6,25.6-31.2,39.1-47.6C385.8,83.4,371.7,83.4,356.6,83.4z"/>
		<path class="st1" d="M212.7,231.7c-5,0-9.8,0-14.9,0c0-4.7,0-9.2,0-14c4.9,0,9.7,0,14.9,0C212.7,222.3,212.7,226.9,212.7,231.7z"
			/>
		<path class="st1" d="M244.2,217.9c0,4.7,0,9,0,13.8c-5.1,0-10,0-15.2,0c0-4.6,0-8.9,0-13.8C234,217.9,238.9,217.9,244.2,217.9z"/>
		<path class="st1" d="M275.3,231.8c-5.1,0-9.8,0-14.8,0c0-4.7,0-9.1,0-14c5,0,9.9,0,14.8,0C275.3,222.6,275.3,227.2,275.3,231.8z"
			/>
	</g>
</g>
</svg>
