<?xml version="1.0" encoding="utf-8"?>
<!-- Generator: Adobe Illustrator 22.1.0, SVG Export Plug-In . SVG Version: 6.00 Build 0)  -->
<svg version="1.1" id="Layer_1" xmlns="http://www.w3.org/2000/svg" xmlns:xlink="http://www.w3.org/1999/xlink" x="0px" y="0px"
	 viewBox="0 0 512 512" style="enable-background:new 0 0 512 512;" xml:space="preserve">
<style type="text/css">
	.st0{fill:#4BC1EA;}
	.st1{fill:#3762AE;}
</style>
<g>
	<path class="st0" d="M226.1,158.5h62.4c0,0-2.8,17.3-7.7,21.4c-5,4-16.1,13.9-16.1,13.9l-20.4-2.2l-15-17
		C229.3,174.6,222.6,160.9,226.1,158.5z"/>
	<polygon class="st0" points="164.3,231.7 178.5,179.8 197.1,205.7 197.1,244.3 	"/>
	<polygon class="st0" points="347,231.7 332.8,179.8 314.2,205.7 314.2,244.3 	"/>
	<g>
		<path class="st1" d="M351.3,229.9l-2.6-10.8c-2.6-10.8-5.3-22-8-32.9c-2-8.1-7.1-13.8-14.9-17c-5.6-2.2-11.1-4.4-16.7-6.5
			c-4.5-1.8-9.1-3.5-13.6-5.3c-1.7-0.6-3.3-1.4-4.9-2.1c-0.8-0.3-1.5-0.7-2.3-1l-0.1,0h-63.7l-0.8,0.3c-0.4,0.2-0.8,0.4-1.2,0.5
			l-13.9,5.4c-7.4,2.9-14.8,5.7-22.1,8.6c-8,3.1-13.1,8.9-15.2,17.2c-2.8,11.1-5.5,22.3-8.1,33.2l-2.4,10.1
			c-0.8,3.3-0.1,4.5,3.1,5.8l6,2.4c7.2,2.9,14.6,5.8,21.9,8.6c1.7,0.6,2.1,1.3,2.1,3.1c-0.1,28.1-0.1,56.7-0.1,84.4l0,17.9
			c0,4.6,1,5.6,5.7,5.6h113.4c4.3,0,5.4-1,5.4-5.3c0-23.6,0-47.1,0-70.7c0-0.7,0-1.4-0.1-2c-0.2-1.7-1.4-2.8-3.2-3
			c-1.8-0.2-3.2,0.7-3.7,2.4c-0.3,0.9-0.3,2-0.3,2.9c0,14.9,0,29.7,0,44.6v10.9l-76.6,0c-1.9,0-3.2,0.4-4.1,1.2
			c-0.6,0.6-0.9,1.4-0.9,2.4c0,2.4,1.7,3.6,5,3.6l76.5,0v5.6H201.2v-5.6h19c2.6,0,5.6-0.4,5.6-3.6c0-1-0.3-1.8-0.8-2.4
			c-0.9-0.9-2.4-1.3-4.9-1.3h-19l0-21c0-35.4,0-71.9-0.1-107.9c0-1.7-0.5-3.7-1.5-5.2c-3.7-6.3-7.4-12.4-11.3-18.9
			c-1.2-2.1-2.5-4.1-3.8-6.2c8.8-3.9,17.8-7.4,26.6-10.7c3.6-1.4,7.3-2.8,10.9-4.2l0.1,0.3c0.1,0.4,0.2,0.8,0.2,1.2
			c1.3,8.5,4.9,15.9,10.7,21.9c7.6,7.9,16.4,11.3,26.2,10.3c10-1,18-6.1,24.5-15.5c3.5-5.1,5.7-11,6.7-17.9c0.1,0,0.2,0,0.3,0.1
			l6.4,2.5c9,3.5,17.9,7,26.9,10.5c0.9,0.3,1.7,0.9,2.6,1.4c0.3,0.2,0.6,0.3,0.8,0.5l-3.6,5.9c-4,6.6-7.8,12.8-11.5,19.1
			c-0.8,1.4-1.3,3.1-1.3,4.7c-0.1,18.5-0.1,37.4,0,55.6l0,4.3c0,0.8,0,1.8,0.3,2.7c0.5,1.7,1.8,2.6,3.7,2.4c1.8-0.1,2.9-1.2,3.2-3
			c0.1-0.7,0.1-1.4,0.1-2l0-4.5c0-4.7,0-9.5,0-14.3c0-1.4,0.3-1.9,1.6-2.4c7.9-3.1,15.9-6.3,23.7-9.4l4.9-2
			C351.3,234.3,352.1,233,351.3,229.9z M318.1,216.3c-0.2-2.9-0.3-5.9,0.4-8.5c0.8-2.7,2.5-5.2,4.1-7.7c0.7-1.1,1.5-2.2,2.1-3.3
			c2-3.4,4.1-6.8,6.2-10.2l0.6-0.9c0.2-0.4,0.5-0.7,0.7-1.1l0.2-0.3l0.2,0l7.9,32.2l-22.3,9.4l0-1.4c0-1.5,0-2.8,0-4.2
			C318.2,218.9,318.2,217.6,318.1,216.3z M318.3,234.1c0-0.1,0.4-0.5,0.7-0.6c6.5-2.8,13-5.5,19.7-8.3l3.6-1.5l1.5,5.8l-25.5,10.1
			l0-1C318.2,237,318.2,235.6,318.3,234.1z M283.2,161.8c-0.2,3.5-1.1,6.9-2.7,10.4c-3,6.7-7.5,11.6-13.5,14.8
			c-7.7,4-15.4,3.8-23-0.8c-8.3-5-14.5-15.2-14.7-24.4H283.2z M171.4,216.5c1.1-4.3,2.2-8.6,3.1-12.8c1.5-6.4,3-13,5-19.3l0.2,0.3
			c0.2,0.3,0.4,0.6,0.6,0.9l2.3,3.8c3.4,5.5,6.8,11.3,10.2,16.9c0.5,0.8,0.8,1.9,0.8,2.9c0.1,4.2,0.1,8.3,0,12.7l0,3.9L171.4,216.5z
			 M193.8,238.5c0,0.4,0,0.7,0,1.1l-25.5-10.1l1.4-5.8l2.7,1.1c3.3,1.4,6.5,2.7,9.7,4c1.1,0.5,2.2,0.9,3.4,1.4c2.4,1,4.8,2,7.2,3
			c1,0.4,1.2,0.8,1.2,1.7C193.7,236.1,193.7,237.2,193.8,238.5z"/>
		<path class="st1" d="M248.3,172.7c2.6,0,5.2,0,7.9,0c2.6,0,5.2,0,7.7,0c2.4,0,4-1.4,4-3.6c0-1-0.3-1.9-0.9-2.5
			c-0.7-0.7-1.8-1.2-3.2-1.2c-1.8,0-3.6,0-5.4,0l-2.3,0l-2.4,0c-1.8,0-3.6,0-5.4,0c-2.6,0-4.2,1.5-4.2,3.7
			C244.3,171.2,245.9,172.7,248.3,172.7z"/>
	</g>
	<g>
		<path class="st1" d="M245.3,485.1c37.4,2.1,73.4-4.7,107-20.3c41.7-19.4,74.9-48.9,98.7-87.6c19.9-32.4,31-68.7,33-107.7
			c1-20.2-0.9-40.8-6-62.8c-1.1-4.9-4.7-8.2-9.3-8.4c-3.5-0.2-6.5,0.9-8.5,3.2c-2.2,2.6-2.9,6.6-1.9,10.8c7.6,33.2,7.2,66.1-1,97.8
			c-11.6,44.7-35.7,81.9-71.7,110.4c-31.8,25.2-68.4,39.8-108.8,43.5c-42,3.9-82-4.6-119-25.1c-7.3-4.1-14.3-8.8-21-13.4
			c-3-2.1-6.2-4.2-9.3-6.2l-2.6-1.7l2.7-6.3l24.2-2.2c3.8-0.4,7.6-0.7,11.3-1c8.9-0.8,18-1.6,27-2.7c5.5-0.7,9.2-5.4,8.6-11
			c-0.6-5.8-5.4-9.5-11.2-9c-31.6,2.8-62.4,5.5-91.7,8.3c-6.1,0.6-9.6,4.6-9.5,11c0,1.5,0.1,3.1,0.3,5.1c0.7,7.9,1.5,15.8,2.2,23.7
			c1.8,19.2,3.7,39.1,5.2,58.7c0.6,7.5,3,11.6,8.2,14.1h5.3c6-3.1,8.1-7.8,7.1-15.6c-0.9-7-1.5-14.1-2.1-20.9
			c-0.2-2.3-0.4-4.6-0.6-6.8c-0.5-5.2-0.9-10.5-1.3-15.8c-0.2-2.4-0.4-4.8-0.6-7.3l-0.4-5.2l5,1.3c0.3,0.1,0.5,0.1,0.7,0.2
			c0.6,0.1,1.3,0.3,2.1,0.8c2.2,1.6,4.3,3.1,6.4,4.7C159.5,467.8,200.4,482.5,245.3,485.1z"/>
		<path class="st1" d="M412.3,119.2c8.9-0.4,12.5-4.3,12.2-13.3c-0.6-16.2-1.2-33.4-2-53.9c-0.3-8.8-0.7-17.5-1.1-26.3l-0.4-9.3
			c-0.2-4.7-2.2-7.7-6.4-9.5c-3.2-1.4-6.7-1.1-9.5,0.8c-3,2-4.6,5.5-4.6,9.4c0.3,11.6,0.8,23.5,1.2,34.9c0.2,5.3,0.4,10.7,0.6,16
			c0,1.1,0,2.2,0,3.5c0,0.7,0,1.4,0,2.3v7.4l-8.8-6.6c-1.7-1.3-3.3-2.5-4.8-3.6c-41.3-29.8-85.7-44.8-132.7-44.8
			c-19.5,0-39.3,2.6-59.6,7.7C135.8,49.5,88.9,85.8,57.1,141.8c-28.5,50.1-36.3,105.1-23.2,163.4c1.1,4.8,4.2,8,8.4,8.6
			c3.7,0.5,6.9-0.4,9.1-2.7c2.5-2.6,3.3-6.8,2.2-11.4c-7.7-34-7.1-67.6,1.7-99.8c14.3-52.6,44.9-93.7,91.1-122.3
			c39.1-24.2,82.6-34,129.3-29.2c33.1,3.4,64.3,14.7,92.9,33.5c3.3,2.2,6.5,4.6,9.6,7c1.4,1.1,2.8,2.1,4.2,3.2l2.2,1.6l-2.2,6.4
			h-2.6c-0.8,0-1.7,0-2.5,0c-1.8,0-3.5,0-5.1,0l-7.8,0.3c-14,0.5-28.4,1-42.7,1.7c-5.6,0.2-9.5,3.9-10.1,9.2
			c-0.5,4.9,2.9,9.6,7.8,10.8c1.6,0.4,3.5,0.4,5.4,0.3l4.3-0.2C356.3,121.3,384.5,120.3,412.3,119.2z"/>
	</g>
</g>
</svg>
