<?xml version="1.0" encoding="utf-8"?>
<!-- Generator: Adobe Illustrator 22.1.0, SVG Export Plug-In . SVG Version: 6.00 Build 0)  -->
<svg version="1.1" id="Layer_1" xmlns="http://www.w3.org/2000/svg" xmlns:xlink="http://www.w3.org/1999/xlink" x="0px" y="0px"
	 viewBox="0 0 512 512" style="enable-background:new 0 0 512 512;" xml:space="preserve">
<style type="text/css">
	.st0{fill:#4BC1EA;}
	.st1{fill:#3762AE;}
</style>
<g>
	<rect x="134.6" y="16.8" class="st0" width="197.8" height="64.3"/>
	<path class="st0" d="M368.7,498.2h-15.8c-19.7,0-35.9-16.1-35.9-35.9V362.3c0-19.7,16.1-35.9,35.9-35.9h15.8
		c19.7,0,35.9,16.1,35.9,35.9v100.1C404.5,482.1,388.4,498.2,368.7,498.2z"/>
	<g>
		<path class="st1" d="M354.5,506c-9-2.4-17.9-4.9-27.5-4.9c-60.7,0.3-121.4-0.3-182.1,0.2c-28.7,0.3-46.4-19.7-47.3-44.9
			c-0.1-2.3-0.3-4.6-0.3-6.8c0-92.6,0-185.2,0-277.8c0-18.1,5.8-33.8,18-47.1c7-7.6,15.4-12.8,26-14.5c0-2.1-0.1-3.9,0-5.7
			c0.4-5.3,0.6-9.6-6.9-10.9c-6.3-1-10.3-6.7-10.4-13.3c-0.3-19.8-0.4-39.7,0-59.5c0.1-8,6.8-14.1,14.9-14.8
			c1.6-0.2,3.3-0.1,4.9-0.1c58.9,0,117.8,0,176.7,0c14.4,0,20.4,6,20.4,20.5c0,16.3,0,32.5,0,48.8c0,12.7-4.5,18-17,20
			c-0.5,0.1-0.9,0.3-1.7,0.6c0,4.6,0,9.2,0,14.3c13.8,1.6,24,9.4,31.9,20.2c9,12.3,13.2,26.2,13.2,41.5c-0.1,47.7,0,95.4,0,143
			c0,1.9,0,3.9,0,6.2c4,1.1,8,1.8,11.6,3.3c22.7,9.1,35,26,35.4,50.4c0.5,26.5,0.5,53.1-0.1,79.6c-0.6,25.9-18.5,45.9-43.8,50.7
			c-0.8,0.1-1.4,0.6-2.2,0.9C363.7,506,359.1,506,354.5,506z M347.7,194.5c-77.2,0-153.8,0-230.6,0c0,4.9,0,9.5,0,14.6
			c7,0,13.6,0,20.2,0c4.6,0,8.3,1.9,10,6.3c2.5,6.6-2.1,12.9-9.9,13.1c-6.8,0.2-13.6,0-20.3,0c0,45.6,0,90.6,0,135.6
			c1,0.1,1.7,0.2,2.3,0.2c61.8,0,123.7,0,185.5,0.1c3.3,0,3.9-1.5,4.7-4.1c5.1-17.6,16.3-29.7,33.5-36c3.5-1.3,4.6-2.8,4.6-6.5
			c-0.1-39.5-0.1-79.1-0.1-118.6C347.7,197.9,347.7,196.4,347.7,194.5z M307.7,384.3c-63.9,0-127.1,0-190.4,0c0,9,0,17.6,0,26.7
			c2.2,0,3.9,0,5.7,0c19.2,0,38.4,0,57.6,0c1.9,0,3.9,0,5.8,0.2c4.7,0.7,7.9,4.3,8.1,8.9c0.2,4.7-2.6,8.6-7.2,9.7
			c-2.2,0.5-4.5,0.6-6.8,0.6c-19.4,0-38.7,0-58.1,0c-1.7,0-3.5,0-5.5,0c0,8.9-0.3,17.2,0.1,25.4c0.8,16.9,10.3,25.7,27.2,25.7
			c55.5,0.1,111,0.1,166.4,0.1c1.6,0,3.1,0,5,0c-2.2-5.3-4.9-9.9-5.9-14.9c-1.4-7.3-2-14.8-2.1-22.2
			C307.5,424.7,307.7,404.7,307.7,384.3z M117.4,174.3c76.6,0,153.3,0,230.1,0c1.1-12.3-2.1-23-9.1-32.4c-5-6.7-11-12.3-20.1-12
			c-13.8,0.4-16.6-4.4-15.9-16.4c0.2-3.7,0-7.5,0-11.2c0-2.2,0-4.4,0-6.5c-47.7,0-94.4,0-141.6,0c0,7.1,0,13.7,0,20.4
			c0,10.2-3.2,13.2-13.3,13.8c-4.2,0.3-8.8,1.3-12.4,3.4C123,140.5,114.9,160,117.4,174.3z M327.2,423.5c0,10.2-0.2,19.9,0,29.6
			c0.5,18.5,14.8,32.8,33.3,33.4c17.7,0.5,33-13.5,34.1-31.8c0.6-9.7,0.2-19.5,0.2-29.2c0-0.6-0.3-1.2-0.6-1.9
			C372.1,423.5,350,423.5,327.2,423.5z M394.7,403.4c0-10.8,0.4-21.3-0.1-31.8c-0.8-15.4-13.6-28.7-28.6-30.5
			c-16.8-2-33.1,7.3-36.5,23.1c-2.7,12.6-2.1,26-3,39.2C350,403.4,372.2,403.4,394.7,403.4z M209.2,25.8c0,16.8,0,33.3,0,50
			c15.4,0,30.3-0.1,45.2,0c3.2,0,3.2-1.8,3.2-4.1c0-9.7,0-19.5,0-29.2c0-5.5,0-11,0-16.7C241.2,25.8,225.4,25.8,209.2,25.8z
			 M189,75.4c0-16.7,0-33,0-49.6c-15.3,0-30.3,0-45.4,0c0,16.7,0,33.2,0,49.6C158.9,75.4,173.8,75.4,189,75.4z M321.1,25.8
			c-14.7,0-29.1,0-43.5,0c0,16.8,0,33.2,0,49.7c14.7,0,29,0,43.5,0C321.1,58.9,321.1,42.6,321.1,25.8z"/>
		<path class="st1" d="M232.3,284.2c6.2-10.6,11.9-20.6,17.7-30.5c1.1-1.8,2.1-3.7,3.5-5.2c3.1-3.5,8.1-4.2,12-1.8
			c3.7,2.3,5.5,6.6,4.1,11c-0.5,1.7-1.3,3.3-2.2,4.9c-8.4,14.6-16.9,29.3-25.3,43.9c-5.7,9.8-13.9,9.7-19.6-0.1
			c-8.6-14.8-17.2-29.5-25.5-44.4c-1.5-2.8-2.4-6.5-2-9.6c0.5-3.9,3.8-6.3,7.9-6.9c4.6-0.6,7.9,1.7,10.1,5.5c5.3,9,10.4,18,15.6,27
			C229.6,279.6,230.7,281.4,232.3,284.2z"/>
		<path class="st1" d="M167.9,228.6c-5.6,0-10.1-4.3-10.1-9.7c0-5.6,4.6-10,10.5-9.8c5.7,0.2,9.9,4.4,9.8,9.9
			C178,224.5,173.6,228.6,167.9,228.6z"/>
		<path class="st1" d="M216.9,411.1c5.8,0.1,10,4.1,9.9,9.7c0,5.4-4.4,9.7-10,9.7c-5.8,0-10.4-4.5-10.2-10
			C206.8,415,211.2,411,216.9,411.1z"/>
	</g>
</g>
</svg>
