<?xml version="1.0" encoding="utf-8"?>
<!-- Generator: Adobe Illustrator 22.1.0, SVG Export Plug-In . SVG Version: 6.00 Build 0)  -->
<svg version="1.1" id="Layer_1" xmlns="http://www.w3.org/2000/svg" xmlns:xlink="http://www.w3.org/1999/xlink" x="0px" y="0px"
	 viewBox="0 0 512 512" style="enable-background:new 0 0 512 512;" xml:space="preserve">
<style type="text/css">
	.st0{fill:#4BC1EA;}
	.st1{fill:#3762AE;}
</style>
<g>
	<polygon class="st0" points="456.8,252.6 410.9,252.6 410.9,124.3 456.8,130.1 	"/>
	<g>
		<path class="st1" d="M506,429.8c-2.1,3.4-5.4,3.7-8.9,3.7c-28.5,0-57,0-85.4,0c-124,0-248,0-372,0c-13.4,0-24.2-4.5-30.5-17
			c-9.2-18.3,3.3-40.9,23.6-42.3c10.5-0.7,21.1-0.5,31.7-0.5c25.4-0.1,50.8-0.1,76.2-0.1c1.6,0,3.1-0.2,5.9-0.3
			c-6.5-6.8-12.2-13-18-19c-4.7-4.8-9.3-9.5-14.3-14C97,325,92.2,305.6,95.5,283.7c4-26.5,16.7-49,33.4-69.4
			c18.3-22.4,40.5-40,68.2-49.4c7.3-2.5,15-4.4,22.7-5.2c11.6-1.3,20.8,3.7,27.9,12.8c6,7.7,12.3,15.2,18.1,23c2.2,2.9,4.4,4,8.1,4
			c27.5-0.2,55.1,1,82.5-0.4c26.1-1.3,44.2,24.8,28.1,48.7c7.3,0,14.2,0,22,0c0-1.7,0-3.6,0-5.5c0-47.2,0-94.4,0-141.6
			c0-7,1.4-9.6,5.4-9.7c4.1-0.1,5.4,2.3,5.4,9.5c0,6.5,0,13,0,20c2,0.1,3.7,0.3,5.4,0.3c10.1,0,20.2,0,30.3,0c8.7,0,10,1.3,10,9.8
			c0,35.5,0,71,0,106.4c0,60.1,0,120.1,0,180.2c0,1.6,0.1,3.2,0.2,5.3c11.6,0,23-0.2,34.3,0.2c2.9,0.1,5.7,2.1,8.6,3.3
			C506,427.2,506,428.5,506,429.8z M123.6,422.4c13.7,0,27.3,0,41,0c16.6-0.1,33.2,0.1,49.8-0.4c9.5-0.3,16.3-8.2,16.8-17.7
			c0.4-7.2-3.4-12.3-7.7-17.3c-24.3-28.7-49.1-56.9-76.5-82.8c-3.1-3-4-6.4-3.6-10.6c0.9-9.9,4.5-19,9.3-27.5
			c13.3-23.7,31.1-42.7,56.4-54c4.3-1.9,7.3-1.3,10.1,2.5c4.3,5.7,9.4,10.9,13.2,16.9c8,12.8,18.9,17.2,34,16.7
			c30.9-1,61.8-0.3,92.7-0.3c10,0,17.5-5.1,20-13.3c3.9-12.7-5.3-24.7-19.1-24.7c-29.9-0.1-59.9-0.1-89.8,0.1c-4.6,0-7.6-1.4-10.3-5
			c-6.8-8.9-14-17.6-20.9-26.4c-4.7-5.9-10.6-9.3-18.2-8.3c-5.9,0.8-12,1.8-17.5,3.9c-50,18.9-82.6,54.2-96,105.9
			c-5.2,19.8-1,38.1,15,53c13.5,12.6,26.1,26.4,38.7,39.9c1.8,1.9,3.6,6,2.7,7.9c-0.8,1.9-4.9,3.3-7.6,3.4
			c-12.5,0.4-25.1,0.2-37.6,0.2c-27.7,0-55.3,0-83,0.1c-8.2,0-13.9,4.1-17.1,11.5c-3.2,7.5-1.5,14.4,3.8,20.3
			c4.4,4.8,10.2,5.8,16.5,5.8C67,422.4,95.3,422.4,123.6,422.4z M211.7,222.9c-16.9,7.8-29.7,19.8-40.5,34.2
			c-7.4,9.8-13.3,20.4-16.4,32.4c-1.1,4.2-0.3,7.1,2.9,10.4c12.9,12.9,25.7,25.8,38,39.3c13.2,14.4,25.8,29.3,38.5,44.1
			c9.6,11.3,10.5,23.8,3.1,36.5c-0.4,0.6-0.6,1.4-0.9,2.3c1,0.2,1.6,0.4,2.2,0.4c37.7,0,75.5,0,113.2-0.2c1.5,0,3.6-1.5,4.3-2.8
			c3.2-5.8,5.9-11.9,9-17.8c4.9-9.5,5.7-19.5,3.4-29.8c-0.8-3.7-2.3-5.6-6.6-6c-27.1-2.6-49.2-15.5-68.3-34.1
			c-19.5-19.1-32.1-42.2-39-68.6c-0.6-2.3-1-4.2-4-4.6c-9.3-1.2-16-6.6-21.6-13.8C223.3,237.5,217.6,230.4,211.7,222.9z
			 M379.7,366.3c0,10,1.3,19.7-0.4,28.9c-1.7,9.1-6.5,17.7-9.9,26.5c26.9,0,54.4,0,82.3,0c0-54.3,0-108.4,0-162.7
			c-62.4,0-124.5,0-186.9,0c0.2,1,0.3,1.8,0.5,2.6c6.5,25,19,46.6,37.8,64.2c20.7,19.5,44.9,30.6,73.9,29.8c9.1-0.3,18.2-0.1,27.3,0
			c5,0,8,2.1,7.6,5.5c-0.5,4.3-3.5,5.3-7.4,5.3C396,366.2,387.4,366.3,379.7,366.3z M417.6,131.9c0,39.1,0,77.5,0,115.9
			c11.6,0,22.7,0,34.1,0c0-38.8,0-77.2,0-115.9C440.2,131.9,429,131.9,417.6,131.9z"/>
		<path class="st1" d="M257,130.1c0-28.1,23.7-51.7,51.6-51.5c28,0.1,51.7,24,51.5,51.8c-0.2,28.3-23.5,51.4-51.7,51.4
			C280.2,181.7,257,158.4,257,130.1z M349.1,130.1c-0.1-22.5-18.3-40.6-40.7-40.5c-22.4,0.1-40.8,18.5-40.6,40.7
			c0.1,22.1,19,40.8,40.9,40.7C330.9,170.9,349.1,152.4,349.1,130.1z"/>
	</g>
</g>
</svg>
