<?xml version="1.0" encoding="utf-8"?>
<!-- Generator: Adobe Illustrator 22.1.0, SVG Export Plug-In . SVG Version: 6.00 Build 0)  -->
<svg version="1.1" id="Layer_1" xmlns="http://www.w3.org/2000/svg" xmlns:xlink="http://www.w3.org/1999/xlink" x="0px" y="0px"
	 viewBox="0 0 512 512" style="enable-background:new 0 0 512 512;" xml:space="preserve">
<style type="text/css">
	.st0{fill:#4BC1EA;}
	.st1{fill:#3762AE;}
</style>
<g>
	<rect x="189.3" y="315.6" class="st0" width="24.8" height="118"/>
	<rect x="56.4" y="347.2" class="st0" width="129.3" height="68.1"/>
	<rect x="309" y="315.6" class="st0" width="147" height="120.9"/>
	<g>
		<path class="st1" d="M502,304c-3.1,4.1-6.3,8.2-9.1,12.5c-0.9,1.4-1.1,3.6-1.1,5.4c-0.1,51.9,0,103.8-0.1,155.7
			c0,3.2,0,6.5-0.8,9.5c-2.4,9.7-11.7,15.8-21.8,14.8c-9.7-1-17.5-9.3-17.8-19.5c-0.3-11.7-0.1-23.4-0.1-35.1c0-1.7,0-3.5,0-5.9
			c-2,0-3.7,0-5.3,0c-12.7,0-25.3,0-38,0c-4.1,0-7.7-1.6-8.1-5.8c-0.2-2.4,1.3-5.5,3.1-7.3c1.2-1.3,4.1-1.3,6.3-1.3
			c10.9-0.1,21.8-0.1,32.7-0.1c2.9,0,5.7,0,9,0c0-35.4,0-70.6,0-106.1c-44.4,0-88.9,0-133.8,0c0,35.2,0,70.3,0,106.1
			c1.9,0,3.6,0,5.3,0c15.9,0,31.7,0,47.6,0c2,0,4.3,0,6.1,0.8c3.3,1.4,4.7,4.4,3.9,7.9c-1,4.3-4.2,5.8-8.2,5.8
			c-16.5,0-33,0-49.5,0.1c-1.6,0-3.2,0-5.4,0c0,3.8,0,7.2,0,10.7c-0.1,6.3-2.9,10.9-8.1,14.3c-1.3,0.8-2.3,2.8-2.5,4.4
			c-0.5,5.2,0,10.6-1,15.7c-2.1,10.2-11.4,16.4-21.8,15.3c-9.5-1-17.2-9.1-17.6-19.1c-0.2-4.6,0-9.2,0-14c-2.7,0-4.7,0-7.5,0
			c0,3.9,0,7.7,0,11.5c-0.1,12.7-8.3,21.7-20,21.7c-11.6,0-20.2-8.9-20.5-21.4c0-1.6-0.1-3.2,0-4.8c0.3-4.4,0.1-8-4.9-10.5
			c-4.1-2.1-5.7-6.7-5.8-11.5c0-4,0-7.9,0-12.4c-13.3,0.7-26.1,0.6-27.9-17c-1.3-0.1-2.5-0.4-3.7-0.4c-25.9,0-51.9-0.1-77.8,0.1
			c-2.5,0-5.5,1.4-7.4,3.1c-8.9,8.5-17.5,17.4-26.3,26c-2.3,2.2-3.1,4.5-3.1,7.6c0.2,6.7,0.1,13.5,0,20.2
			c-0.2,11.9-8.6,20.9-19.8,21c-11.6,0.2-20.4-8.3-20.6-20.6c-0.3-16.7-0.1-33.3,0-50c0-5.5,2.7-8.3,7.1-8.4c4.5,0,7.3,3.1,7.4,8.7
			c0.1,15.5,0.1,31.1,0.1,46.6c0,1.4-0.5,3.3,0.2,4.2c1.4,1.9,3.3,4.3,5.3,4.5c1.6,0.2,3.9-2.1,5.2-3.8c0.8-1.1,0.6-3.1,0.6-4.6
			c0-70.3,0-140.6,0-210.9c0-1.3,0-2.5,0-4.2c-3.9,0-7.4,0-11.4,0c0,2.1,0,4,0,5.9c0,40.8,0,81.7,0,122.5c0,1.6,0.1,3.2-0.1,4.8
			c-0.5,4.1-3.6,7.1-7.2,7.1c-3.8,0.1-6.9-3-7.2-7.4c-0.1-1.6-0.1-3.2-0.1-4.8c0-42.3,0-84.6,0-126.8c0-3.1-0.7-5.2-3.3-7.3
			c-6.5-5.3-8.7-14.8-5.9-22.7c2.9-8.1,10.7-14,19.3-14.2c6.7-0.2,13.5-0.1,20.2,0c8.9,0.2,16.1,5.6,19.1,14.2c3,8.6,0.9,17.4-6,23
			c-2.2,1.8-3.1,3.6-3,6.4c0.2,6.7,0.1,13.4,0.1,19.6c9.3,0,18,0,26.8,0c18.4,0,36.8-0.1,55.2,0c11.8,0.1,20.3,6.9,22.2,17.8
			c0.6,3.1,0.1,6.3,0.1,10.2c5.4,0,11.2,0,17,0c0.2,0,0.4,0,0.5-0.1c6.4-7.3,15.1-5.5,23.3-6.2c0.1,0,0.3-0.2,1-0.8
			c0-2.8,0-6.1,0-9.5c0-23.7-0.1-47.4,0-71.1c0-5.6-1.8-10.2-5.9-14.1c-9.8-9.4-19.4-19.1-29.2-28.5c-5.3-5.1-8.1-10.5-5-18
			c0.4-1-0.9-3.1-1.9-4.1c-14.1-13.8-28.4-27.3-42.4-41.1c-8.6-8.5-9-20.2-1.5-28.4c8.2-8.9,20.7-9.2,29.8-0.4
			c14,13.4,28,26.8,41.8,40.4c2.4,2.3,4.1,3.3,7.7,1.8c5.2-2.1,9.9,0.3,13.8,4.2c8.8,8.6,17.6,17.2,26.7,26.1
			c1.3-4.1,0.4-6.2-3.3-8.2c-19.6-10.6-29.3-33.8-23.7-55.3c5.7-21.7,25.8-37.1,48.2-36.6c4.8,0.1,9.5,1,15,1.5c0-6.8,0-13.9,0-21
			c0.1-10.9,3.9-20.1,13-26.4c3.6-2.5,7.9-3.9,11.9-5.8c58.3,0,116.6,0,174.9,0c2.6,1,5.3,2,7.9,3.2c9.3,4.4,14,12.5,17.1,21.8
			c0,8.6,0,17.3,0,25.9c-2.8,2.6-5.8,5.3-10,3.4c-4.5-2-4.5-6.1-4.4-10.2c0.1-3.8,0.1-7.7,0-11.5c-0.1-11.5-6.7-18.2-18.3-18.2
			c-53,0-106,0-159,0c-11.9,0-18.1,6.1-18.3,17.9c-0.2,8.6-0.1,17.3,0,25.9c0,1.5,0.3,3.5,1.3,4.3c3.4,3.1,7.1,5.7,10,8
			c0-8.9-0.1-19.6,0-30.2c0.1-9.9,4.6-14.4,14.4-14.4C365.6,36,413.5,36,461.3,36c9.9,0,14.7,4.8,14.7,14.6c0,39.4,0,78.8,0,118.2
			c0,11.3-4.7,16-15.9,16c-34.8,0-69.5,0.4-104.2-0.3c-9.3-0.2-12.6,5.9-18.7,11.3c2,0.2,2.7,0.3,3.5,0.3c42.9,0,85.8,0.1,128.8,0
			c11.9,0,18.1-6.6,18.1-18.7c0-27.7,0-55.4,0-83.1c0-4.1,0.3-7.7,4.7-9.5c4.6-1.8,7.1,1.1,9.7,4.1c0,32.4,0,64.7,0,97.1
			c-0.2,0.2-0.6,0.4-0.6,0.7c-3.7,15.4-17,24.5-35,24.4c-46.9-0.5-93.8-0.1-140.7-0.3c-5.2,0-7,3-8.2,7c-0.6,2.1-0.8,4.4-0.8,6.6
			c-0.1,25.6,0,51.2,0,76.8c0,1.4,0.2,2.8,0.3,4.2c41.7,0,83,0,124.4,0c0-1.1,0.1-1.7,0-2.3c-1.9-13.1,5.2-23.3,18.3-25
			c7.1-0.9,14.4-0.6,21.5-0.5c6,0.1,11.5,2.2,15.2,7c2.3,3,3.7,6.6,5.6,9.9C502,297.6,502,300.8,502,304z M221.7,311
			c0,47.8,0,95.3,0,142.7c11,0,21.6,0,32.7,0c0-2.3,0-4.4,0-6.4c0-37.6,0-75.2,0-112.9c0-1.7,0.2-3.5,0.5-5.2c0.6-3.6,3-5.7,6.6-5.8
			c3.8-0.2,6.4,1.8,7.3,5.6c0.4,2,0.5,4.1,0.5,6.2c0,37.6,0,75.2,0,112.9c0,1.9,0,3.7,0,6c9.4,0,18.2-0.3,26.9,0.1
			c5,0.2,6.1-1.4,6.1-6.2c-0.2-43.9-0.1-87.7-0.1-131.6c0-1.7,0-3.4,0-5.3C275.1,311,248.6,311,221.7,311z M397.1,50.5
			c0,11.2,0,21.9,0.1,32.6c0,1.1,0.6,2.5,1.4,3.2c12,11,12.4,21.7,1.4,33.4c-1.6,1.6-2.7,4.4-2.7,6.6c-0.3,13.3-0.1,26.6-0.1,39.8
			c0,1.2,0.3,2.4,0.4,3.6c21.5,0,42.7,0,63.8,0c0-40,0-79.6,0-119.2C439.9,50.5,418.8,50.5,397.1,50.5z M61,408.7
			c39.6,0,78.7,0,118.1,0c0-18.1,0-36,0-54c-39.5,0-78.7,0-118.1,0C61,372.9,61,390.6,61,408.7z M254.2,180.9
			c-12.1,1.7-20.1-4.8-27.6-12.6c-5.6-5.9-11.6-11.5-17.5-17.2c-1.7-1.6-3.4-3.2-4.5-4.3c-8,8-15.6,15.5-23.3,23.3
			c0.8,0.8,1.8,2,3,3.1c9.1,9,18.2,18,27.5,26.8c6.6,6.3,9.8,13.8,9.7,23.1c-0.2,18.6-0.1,37.1-0.1,55.7c0,5.7,0,11.4,0,17.3
			c11.3,0,22,0,32.8,0C254.2,257.6,254.2,219.6,254.2,180.9z M302.2,296.2c0-2,0-3.6,0-5.2c0-22.6,0.2-45.1,0-67.7
			c-0.1-9.4,3.2-17.1,9.9-23.5c9.1-8.8,18.1-17.6,27.1-26.5c1.2-1.2,2.3-2.5,3.4-3.6c-7.9-7.8-15.5-15.3-23.3-23
			c-0.9,0.8-2.1,1.8-3.2,2.9c-8.2,8-16.5,16-24.7,24.2c-4.9,4.9-10.6,7.6-17.6,7.2c-1.4-0.1-2.8,0.2-4.2,0.2c0,38.5,0,76.6,0,114.9
			C280.4,296.2,290.9,296.2,302.2,296.2z M318.1,130.6c2.4,0.5,4.6,0.5,6.4,1.4c2.4,1.2,3.7,0.5,5.4-1.2
			c13.6-13.1,27.1-26.3,40.8-39.2c2.9-2.7,6.4-4.6,9.5-7.1c0.9-0.7,2.1-1.8,2.1-2.7c0.2-10.4,0.1-20.7,0.1-31.3
			c-21.7,0-42.9,0-64.3,0C318.1,77.4,318.1,103.9,318.1,130.6z M296.5,111.3c0.1-19.4-15.3-35-34.5-35c-19.3,0-34.7,15.4-34.8,34.7
			c-0.1,18.9,15.5,34.5,34.5,34.5C280.6,145.6,296.4,130,296.5,111.3z M465.7,320.5c0,2.8,0,5,0,7.2c0,50.4,0,100.8,0.1,151.2
			c0,5.5,2.1,8.5,5.7,8.5c3.7,0,5.7-2.9,5.7-8.3c0-51,0-102.1,0-153.1c0-1.8,0-3.7,0-5.5C473,320.5,469.7,320.5,465.7,320.5z
			 M179.1,326.6c-39.7,0-78.8,0-118,0c0,4.4,0,8.5,0,12.7c39.5,0,78.7,0,118,0C179.1,334.9,179.1,330.9,179.1,326.6z M206.7,426.6
			c0-35.5,0-70.7,0-106.3c-2.1,0-3.8,0-5.5,0c-7.2,0.2-6.9-1.2-6.9,7c-0.1,30.1-0.1,60.1-0.1,90.2c0,3,0.3,5.9,0.4,9
			C198.9,426.6,202.7,426.6,206.7,426.6z M105.8,311.8c12,0,24,0,36,0c6,0,9-2.4,8.9-6.9c-0.1-4.3-3.1-6.6-8.8-6.6c-24,0-48,0-72,0
			c-5.8,0-9.1,2.6-9,6.9c0.1,4.1,3.3,6.6,8.9,6.6C81.8,311.8,93.8,311.8,105.8,311.8z M185.6,143.2c-15.1-14.5-30.1-29-45.2-43.5
			c-2.8-2.6-5.9-2.7-8.5,0c-2.9,3-1.6,6,0.9,8.4c14.9,14.5,29.8,28.8,44.8,43.3C180.4,148.6,182.8,146.1,185.6,143.2z M345.8,151.5
			c13.1-12.5,26.1-24.9,38.9-37.3c2.5-2.4,5.1-4.9,7.3-7.6c1.9-2.4,1.9-5.6-0.8-7.2c-1.8-1.1-4.6-0.7-6.9-0.6
			c-0.7,0-1.5,1.1-2.2,1.8c-14.2,13.6-28.3,27.3-42.4,40.9c-0.6,0.6-1.1,1.4-1.3,1.6C341,146.1,343.3,148.7,345.8,151.5z M382.1,170
			c0-11,0-21.4,0-32.9c-7.3,6.9-13.5,13.6-20.5,19.3c-5,4.1-6.2,8.1-2.9,13.6C366.3,170,373.9,170,382.1,170z M40.6,248.4
			C40.6,248.4,40.6,248.4,40.6,248.4c3,0,6.1,0.1,9.1,0c3.6-0.1,6.1-1.9,6.6-5.6c0.5-3.9-1.2-7.1-5.1-7.3c-7.1-0.5-14.3-0.4-21.4,0
			c-3.6,0.2-5.5,3.4-5.1,6.9c0.4,3.5,2.5,5.8,6.3,6C34.2,248.5,37.4,248.4,40.6,248.4z M471.3,292.4
			C471.3,292.4,471.3,292.4,471.3,292.4c-3.5,0.1-7.3-0.7-10.5,0.3c-2.1,0.7-4.7,3.8-4.8,5.9c-0.1,2.1,2.5,6,4.2,6.2
			c7.3,0.8,14.6,0.7,22,0.4c3.5-0.1,5.3-3.2,5.2-6.4c-0.1-3.5-2.2-6.1-6-6.3C478,292.2,474.7,292.4,471.3,292.4z M280,468.8
			c0,4.6-0.1,8.6,0,12.5c0.1,3.5,2.3,5.9,5.6,6c3.4,0.2,5.3-2.3,5.5-5.5c0.3-4.2,0.1-8.5,0.1-13C287.4,468.8,284,468.8,280,468.8z
			 M243.6,468.9c-4.2,0-7.6,0-11.1,0c0,4.7-0.2,9,0.1,13.2c0.2,3.3,2.5,5.4,5.8,5.2c3.2-0.2,5.2-2.4,5.2-5.8
			C243.6,477.5,243.6,473.3,243.6,468.9z M303.2,139.9c-5.8,4.7-11.5,9.8-17.8,14c-3.3,2.2-4,4.2-2.8,8.1c6.6-6.4,13-12.5,19.1-18.7
			C302.6,142.3,302.8,140.7,303.2,139.9z M267.3,160.2c-4,0-7.4,0-10.9,0c0,2.2,0,4.1,0,6c3.8,0,7.3,0,10.9,0
			C267.3,164.1,267.3,162.3,267.3,160.2z M61.2,424.1c0,3.6,0,6.9,0,9.4c3.2-2.9,6.6-6,10.5-9.4C67.8,424.1,64.6,424.1,61.2,424.1z"
			/>
	</g>
</g>
</svg>
